<?xml version="1.0" encoding="UTF-8" standalone="no"?>
<!-- Created with Inkscape (http://www.inkscape.org/) -->

<svg
   xmlns:dc="http://purl.org/dc/elements/1.1/"
   xmlns:cc="http://creativecommons.org/ns#"
   xmlns:rdf="http://www.w3.org/1999/02/22-rdf-syntax-ns#"
   xmlns:svg="http://www.w3.org/2000/svg"
   xmlns="http://www.w3.org/2000/svg"
   xmlns:sodipodi="http://sodipodi.sourceforge.net/DTD/sodipodi-0.dtd"
   xmlns:inkscape="http://www.inkscape.org/namespaces/inkscape"
   width="256"
   height="256"
   id="svg3385"
   version="1.1"
   inkscape:version="0.48.2 r9819"
   sodipodi:docname="Tree1.svg"
   inkscape:export-filename="E:\Proyectos\2dDevelopment\FakeMario\FakeMario-android\assets\data\layers\Layer31.png"
   inkscape:export-xdpi="90"
   inkscape:export-ydpi="90">
  <defs
     id="defs3387">
    <filter
       inkscape:collect="always"
       id="filter3837"
       x="-0.078713827"
       width="1.1574275"
       y="-0.12301508"
       height="1.2460302"
       color-interpolation-filters="sRGB">
      <feGaussianBlur
         inkscape:collect="always"
         stdDeviation="16.527173"
         id="feGaussianBlur3839" />
    </filter>
    <filter
       color-interpolation-filters="sRGB"
       inkscape:collect="always"
       id="filter3827-7"
       x="-0.069977529"
       width="1.139955"
       y="-0.15283434"
       height="1.3056687">
      <feGaussianBlur
         inkscape:collect="always"
         stdDeviation="14.373014"
         id="feGaussianBlur3829-7" />
    </filter>
    <filter
       id="filter6287"
       inkscape:collect="always"
       color-interpolation-filters="sRGB">
      <feGaussianBlur
         id="feGaussianBlur6289"
         stdDeviation="4.0395568"
         inkscape:collect="always" />
    </filter>
    <filter
       id="filter6275"
       inkscape:collect="always"
       color-interpolation-filters="sRGB">
      <feGaussianBlur
         id="feGaussianBlur6277"
         stdDeviation="2.3805537"
         inkscape:collect="always" />
    </filter>
    <filter
       id="filter6251"
       inkscape:collect="always"
       color-interpolation-filters="sRGB">
      <feGaussianBlur
         id="feGaussianBlur6253"
         stdDeviation="2.4059922"
         inkscape:collect="always" />
    </filter>
    <filter
       id="filter6263"
       inkscape:collect="always"
       color-interpolation-filters="sRGB">
      <feGaussianBlur
         id="feGaussianBlur6265"
         stdDeviation="3.3545394"
         inkscape:collect="always" />
    </filter>
    <filter
       id="filter6271"
       inkscape:collect="always"
       color-interpolation-filters="sRGB">
      <feGaussianBlur
         id="feGaussianBlur6273"
         stdDeviation="1.6149656"
         inkscape:collect="always" />
    </filter>
    <filter
       inkscape:collect="always"
       id="filter4434">
      <feGaussianBlur
         inkscape:collect="always"
         stdDeviation="1.5553083"
         id="feGaussianBlur4436" />
    </filter>
  </defs>
  <sodipodi:namedview
     id="base"
     pagecolor="#ffffff"
     bordercolor="#666666"
     borderopacity="1.0"
     inkscape:pageopacity="0.0"
     inkscape:pageshadow="2"
     inkscape:zoom="2.8"
     inkscape:cx="136.55932"
     inkscape:cy="121.00499"
     inkscape:document-units="px"
     inkscape:current-layer="layer1"
     showgrid="false"
     inkscape:window-width="1920"
     inkscape:window-height="1018"
     inkscape:window-x="-8"
     inkscape:window-y="-8"
     inkscape:window-maximized="1" />
  <metadata
     id="metadata3390">
    <rdf:RDF>
      <cc:Work
         rdf:about="">
        <dc:format>image/svg+xml</dc:format>
        <dc:type
           rdf:resource="http://purl.org/dc/dcmitype/StillImage" />
        <dc:title></dc:title>
      </cc:Work>
    </rdf:RDF>
  </metadata>
  <g
     inkscape:label="Capa 1"
     inkscape:groupmode="layer"
     id="layer1"
     transform="translate(0,-796.36218)">
    <rect
       style="fill:#4169e1;fill-opacity:0;stroke:none;display:inline"
       id="rect3005"
       width="256.45547"
       height="256.18481"
       x="0.43269372"
       y="796.79376" />
    <path
       style="fill:#32cd32;fill-opacity:1;stroke:none;display:inline;filter:url(#filter4434)"
       d="m 761.77108,930.72544 0.0146,-0.7928 -0.3051,-0.7318 0.0965,-0.8228 0.6126,-0.5577 0.5595,-0.5027 0.41027,-0.6305 0.0518,-0.7747 0.45808,-0.6269 0.35633,-0.7313 -0.14438,-0.8005 0.66761,-0.4434 0.35008,-0.7209 0.47303,-0.6061 0.43481,-0.634 0.76268,-0.1698 0.6523,-0.4301 -0.0126,-0.7481 0.27196,-0.6971 0.29521,-0.6745 0.39563,-0.621 0.47529,-0.5632 0.57702,-0.4584 0.55938,-0.5295 0.14635,-0.7562 0.50017,-0.54893 0.22122,-0.7089 0.65043,-0.3809 0.35267,-0.66617 0.46152,-0.58888 0.69512,-0.27675 0.60464,-0.42281 0.38595,-0.6288 0.58669,-0.5074 0.0997,-0.76923 0.22481,-0.69822 10e-4,-0.73351 0.50549,-0.5299 0.44513,-0.58154 0.19964,-0.70348 0.20182,-0.70286 0.51017,-0.61677 0.0413,-0.79936 0.55103,-0.53372 0.6755,-0.36358 -0.34872,-0.73794 0.10477,-0.80943 0.4818,-0.62006 0.38883,-0.68221 0.81297,-0.19914 0.8333,0.0786 0.73916,-0.42486 0.44001,-0.73025 0.16269,-0.77062 0.23344,-0.75223 0.21997,-0.80297 0.66929,-0.49518 0.10687,-0.80583 -0.3048,-0.75358 0.2504,-0.77928 0.62927,-0.52345 -0.0104,-0.80077 0.44079,-0.6686 0.77343,-0.28106 0.37346,-0.73329 0.69535,-0.4018 0.79212,-0.13231 0.78328,-0.18142 0.66426,-0.45299 0.77987,-0.30623 0.77246,-0.32446 0.14134,-0.87896 0.66856,-0.58786 0.53917,-0.63878 0.72191,-0.42143 0.16615,-0.81194 0.33911,-0.7562 -0.0557,-0.82721 -0.0821,-0.82501 0.56528,-0.63179 0.25704,-0.80786 0.20969,-0.81448 0.2892,-0.78975 -0.33477,-0.7708 -0.28976,-0.78883 0.47523,-0.7365 0.81238,-0.32912 0.2791,-0.79324 0.0968,-0.83532 0.15519,-0.78724 0.55508,-0.57941 0.54781,-0.584 0.15802,-0.78496 0.71242,-0.34248 0.66978,-0.4198 0.32753,-0.73701 0.59671,-0.54258 -0.0323,-0.81709 0.26617,-0.77321 -0.20396,-0.82116 -0.65179,-0.53952 -0.30783,-0.75612 -0.59699,-0.55685 -0.21977,-0.81164 0.31376,-0.78014 0.20693,-0.74618 -0.0435,-0.77312 -0.43077,-0.6857 0.0926,-0.80447 0.005,-0.76273 -0.21402,-0.7321 -0.1978,-0.74828 0.14574,-0.76014 -0.14922,-0.77565 0.23464,-0.75423 0.0268,-0.77156 -0.16289,-0.75465 0.13937,-0.80314 0.55331,-0.59859 0.19054,-0.77586 -0.13855,-0.78681 0.19862,-0.79439 -0.0833,-0.8146 -0.15465,-0.80525 0.14073,-0.80781 0.51643,-0.69642 0.17089,-0.85001 0.66014,-0.54621 0.79715,-0.31411 0.29043,-0.8015 -0.052,-0.8509 0.40388,-0.74046 0.59723,-0.59558 0.55237,-0.66201 0.30144,-0.80778 0.69454,-0.52889 0.85732,-0.16464 0.33084,-0.80638 0.41912,-0.76423 0.68678,-0.53921 0.76547,-0.42006 0.82474,-0.33716 0.85854,0.23825 0.84292,-0.11377 0.78358,-0.33087 0.84138,-0.009 0.82998,0.13832 0.663,0.56511 0.86086,0.13352 0.83896,0.12759 0.81239,-0.24526 0.85483,0.0212 0.75763,-0.39645 0.70204,-0.45068 0.81462,-0.17991 0.58463,-0.57738 0.61989,-0.53934 0.66445,-0.47642 0.76257,-0.29489 0.69124,-0.43162 0.59457,-0.55732 -0.39781,-0.76082 -0.24297,-0.82345 0.19512,-0.84081 -0.0481,-0.86181 0.44046,-0.71121 0.28392,-0.7869 0.35071,-0.75785 0.21704,-0.80635 0.27335,-0.81656 0.42569,-0.74852 0.47442,-0.76719 -0.0725,-0.89911 -0.41599,-0.8406 0.2053,-0.91515 -0.58708,-0.6645 -0.48064,-0.74512 0.27336,-0.79728 0.61995,-0.57099 0.65036,-0.49463 0.63892,-0.50933 0.74596,-0.43852 0.59829,-0.62514 0.12122,-0.85031 0.23041,-0.82741 0.90518,0.18948 0.8558,-0.35052 0.59354,-0.68486 0.82969,-0.36461 0.53742,-0.67328 0.31248,-0.80279 0.29284,-0.81436 0.55916,-0.66051 0.27447,-0.75135 0.4358,-0.67078 0.479,-0.64989 0.22496,-0.77537 0.834,-0.0628 0.82857,-0.11379 0.77724,-0.38713 0.46198,-0.73522 0.007,-0.85213 -0.45215,-0.72232 0.41498,-0.71323 0.21597,-0.7964 0.51091,-0.59325 0.52901,-0.57718 0.18029,-0.77367 0.42903,-0.66857 0.36042,-0.70462 0.15708,-0.7757 0.17196,-0.8212 0.67462,-0.49882 0.54233,-0.56354 0.6182,-0.4791 0.48928,-0.65928 0.78482,-0.24107 0.8175,0.0677 0.71718,-0.39818 0.79541,-0.15618 0.77178,0.24786 0.76693,-0.26665 0.51533,-0.62747 0.77579,-0.17609 0.65757,-0.44771 0.86737,-10e-4 0.70308,-0.50797 0.74027,0.38968 0.82602,0.1324 0.81116,0.16647 0.75321,0.34402 0.77904,-0.26577 0.79326,-0.21974 0.69051,-0.47043 0.82197,-0.14994 0.47135,-0.66782 0.48307,-0.6594 0.82694,-0.20974 0.68591,-0.50729 0.13876,-0.85582 0.55026,-0.67 -0.0112,-0.80805 0.54089,-0.60042 0.43873,-0.62513 0.62434,-0.43986 0.78639,-0.18581 0.4849,-0.64638 0.57518,-0.55577 0.13261,-0.78875 0.56569,-0.46851 0.52562,-0.51307 0.43893,-0.60667 0.64039,-0.38808 0.74184,-0.28117 0.34818,-0.71285 0.31373,-0.68423 0.55619,-0.50719 -0.15148,0.50056 0.12518,0.50779 0.31589,0.42928 -0.0129,0.53283 0.37911,0.38006 0.45956,0.27744 0.13727,0.51693 0.046,0.53287 0.16662,0.51737 0.32878,0.43284 0.15866,0.54228 -0.19974,0.52852 0.41241,0.31523 0.43835,0.27802 0.45857,0.26281 0.32476,0.41699 0.40479,0.36174 0.23887,0.48749 0.0165,0.53259 5.8e-4,0.53285 0.005,0.5084 -0.0587,0.50502 -0.17673,0.48341 -0.007,0.51465 0.42765,0.32901 0.11398,0.52739 -0.0734,0.52817 0.25386,0.46894 0.28089,0.467 0.51008,0.19187 0.1561,0.49106 0.20128,0.47434 0.5032,0.12674 0.51887,-0.008 0.51906,0.17458 0.50956,-0.20064 0.53488,-10e-4 0.53406,0.0297 0.51251,0.19663 0.37308,0.40268 0.49209,0.24307 0.51446,0.19121 0.52865,-0.16385 0.55332,-0.0125 0.54613,0.0987 0.44484,0.33182 0.50829,0.27744 0.19,0.54702 0.59039,0.14962 0.34243,0.50367 0.0899,0.57937 0.34792,0.47193 0.0989,0.57241 0.33773,0.47263 -0.25031,0.53835 0.10324,0.58466 0.38807,0.36532 0.37675,0.37699 0.24876,0.51701 0.5363,0.20386 0.2351,0.56203 0.55762,0.24536 0.54995,0.17494 0.57479,-0.0515 0.36171,-0.41228 0.51032,-0.20093 0.52986,-0.061 0.53285,-0.0233 0.54857,0.0415 0.55005,0.0102 0.35881,0.41977 0.42909,0.3476 0.3349,-0.40267 0.4568,-0.2562 0.48167,-0.20335 0.38393,-0.3549 0.47221,0.24341 0.52156,0.10101 0.52962,0.0168 0.51776,-0.11271 0.51435,0.0576 0.35427,0.37733 0.47948,0.11672 0.49013,-0.0574 0.39971,0.31724 0.51026,0.008 0.48348,0.0865 0.48276,-0.0904 0.29072,0.40619 0.3846,0.31875 0.52947,0.0419 0.36348,0.38728 0.53203,0.0763 0.36609,0.39352 0.49735,-0.13599 0.51286,0.0531 0.49173,-0.29853 0.56957,0.0806 0.4284,-0.33249 0.3958,-0.37077 0.5293,-0.0835 0.4604,-0.27404 0.3919,-0.38013 0.5317,-0.12431 0.3653,0.45632 0.5658,0.1465 0.5476,-0.10508 0.5575,0.009 0.5338,0.22407 0.5442,-0.1971 0.5165,0.17775 0.4342,0.3314 0.082,0.55984 0.4121,0.38754 0.4476,0.30459 0.5219,0.14407 0.4049,0.35249 0.5365,0.0172 0.4872,0.13783 0.4715,0.18444 0.2265,0.48199 0.2438,0.47352 0.5209,0.12777 0.4751,0.24921 0.2649,0.44991 0.329,0.4055 0.511,0.11621 0.4719,0.22784 -0.1746,0.48931 -0.4487,0.26176 -0.098,0.51209 -0.4113,0.32047 -0.2605,0.44494 0.062,0.51189 -0.014,0.52081 -0.3491,0.38671 -0.3095,0.42169 -0.109,0.51158 -0.085,0.53397 0.2608,0.47362 -0.01,0.52794 -0.1377,0.50971 -0.3494,0.39811 -0.4514,0.27713 0.042,0.57647 0.3329,0.47245 -0.1761,0.52864 -0.2073,0.5172 0.5072,0.23525 0.2657,0.49194 0.088,0.55466 0.4131,0.38057 0.1111,0.52729 0.2323,0.4862 -0.1708,0.53152 0.148,0.53832 -0.3346,0.43147 -0.1004,0.53665 -0.226,0.49629 -0.4242,0.3426 0.2018,0.4912 0.3964,0.35335 0.1591,0.49738 0.021,0.5218 0.3883,0.35366 0.5152,0.10237 0.4726,0.20528 0.363,0.36579 0.2659,0.45842 0.068,0.52561 0.4296,0.29838 0.3506,0.38809 -0.04,0.56667 -0.3708,0.43036 0.1113,0.53385 0.2647,0.47675 0.4774,0.27404 0.5428,-0.0911 0.5189,0.13368 0.3862,0.37134 0.3352,0.39569 0.2411,0.45909 0.4025,0.32269 0.3734,0.35603 -0.045,0.57362 0.3243,0.47525 -0.035,0.55555 -0.2722,0.48555 0.1357,0.53384 0.2176,0.506 0.4155,0.36311 0.4791,0.27379 -0.3236,0.44222 -0.062,0.54443 -0.4331,0.30681 -0.3887,0.36152 0.1569,0.51322 -0.157,0.51318 0.1468,0.49864 -0.017,0.51954 0.3516,0.43271 0.1013,0.54831 0.3835,0.4169 0.5533,0.12151 0.2478,0.4824 0.01,0.54227 -0.016,0.53623 -0.2,0.49778 0.067,0.50499 -0.03,0.50845 0.159,0.52104 0.471,0.27363 0.3253,0.38268 0.2567,0.43168 0.4458,0.23069 0.4756,0.16032 -0.2397,0.44874 0.042,0.50705 0.062,0.48423 0.089,0.48008 0.256,0.41917 0.3486,0.34604 0.1822,0.45338 0.1232,0.47284 0.038,0.48345 0.1173,0.47055 0,0.4957 0.2169,0.44576 0.4415,0.26511 0.2396,0.45592 4e-4,0.51895 0.2924,0.42878 0.4878,0.0558 0.479,0.10783 0.4443,0.20931 0.4177,0.25833 0.458,0.20587 0.2858,0.41275 0.4608,0.19709 0.2984,0.4026 0.3704,0.32141 0.3308,0.362 0.5045,-0.0268 0.456,0.21742 0.3327,0.37706 0.031,0.50195 0.4005,0.28215 0.2227,0.43634 0.4896,0.13037 0.3612,0.35542 0.2625,0.41455 0.3102,0.3803 -0.054,0.49776 -0.066,0.49634 0.2776,0.42025 0.18,0.47038 0.9513,-0.27188 0.9477,-0.28412 0.945,0.30337 0.8842,0.45109 0.3592,-0.93287 0.6928,-0.72061 0.8687,-0.46544 0.9474,-0.27121 0.8506,-0.25332 0.857,-0.23032 0.8377,-0.29328 0.8308,-0.31183 0.8449,-0.43758 0.9227,-0.23244 0.1542,-0.99364 0.7559,-0.66314 0.7638,-0.5778 0.9567,0.045 0.8552,0.41224 0.9314,-0.18416 0.899,-0.39893 0.9595,0.21577 0.6775,0.66877 0.8812,0.35987 0.8913,0.1716 0.8798,-0.22262 0.9163,0.0189 0.7869,0.46952 0.9398,-0.0721 0.9374,0.0974 0.6399,0.69004 0.7313,0.59236 0.8686,0.20631 0.8368,0.31101 0.7576,0.48163 0.8516,0.28416 0.9056,-0.0294 0.8729,0.24304 0.8601,-0.32714 0.9156,0.0909 0.9453,0.20522 0.9067,-0.33699 0.8639,0.35285 0.7749,0.51978 0.9515,-0.10348 0.7171,-0.63378 0.913,-0.31333 0.9111,0.31881 0.8959,0.39249 0.9712,-0.11546 0.9073,-0.27137 0.8492,-0.41944 0.9508,-0.281 0.9765,0.17243 0.544,-0.84153 0.9012,-0.43814 0.7178,-0.66328 0.9015,-0.37754 1.0328,0.0174 0.7726,-0.68552 0.2715,-0.98411 0.8071,-0.6252 0.5372,-0.85413 -0.01,-1.00898 0.9158,-0.18244 0.6715,-0.64901 0.9235,0.24916 0.8604,-0.41823 0.893,0.19656 0.864,-0.29963 0.8883,-0.2468 0.8709,0.30226 0.8876,0.047 0.8632,-0.21207 0.7471,-0.50589 0.8932,-0.12795 0.9174,-0.15947 0.8842,0.29208 0.8619,-0.29554 0.7548,-0.51048 0.6107,0.78371 0.9826,0.1468 0.8753,0.43077 0.4255,0.87787 0.9173,-0.0429 0.91688,-0.0512 0.9163,0.074 0.9062,0.15422 0.8977,0.25765 0.7665,0.53379 0.9195,-0.0584 0.9204,-0.0446 0.9762,0.0471 0.7268,0.65344 0.2989,0.94537 0.868,0.47925 0.7294,-0.6646 0.9701,-0.18078 0.7142,-0.68011 0.253,-0.95319 0.8402,-0.54275 0.5233,-0.85248 0.9658,-0.18781 0.9815,0.0685 0.4957,0.91119 0.9116,0.49491 1.0447,-0.073 0.8837,0.56199 0.9872,-0.0868 0.9805,0.14365 0.9245,-0.34431 0.8694,-0.46621 0.8641,-0.49852 0.6689,-0.73997 0.9744,0.23533 0.9937,-0.13225 0.884,-0.36454 0.7847,-0.54667 0.4856,-0.81765 0.529,-0.79029 0.9422,0.0718 0.891,0.31483 0.8849,-0.3507 0.9517,-0.0201 0.8637,0.31957 0.7974,0.4608 0.7651,0.54908 0.928,0.15942 0.5451,-0.79347 0.7961,-0.5413 0.5823,-0.75265 0.407,-0.86023 -0.1396,-0.99393 -0.4107,-0.91585 0.467,-0.88312 0.2773,-0.95974 -0.1715,-0.9585 0.4379,-0.86971 0.3716,-0.84609 0.3273,-0.86414 -0.3648,-0.88944 0.1923,-0.94192 -0.066,-0.93229 -0.3886,-0.85002 0.874,-0.50933 0.5483,-0.8502 0.611,-0.84071 -0.029,-1.03888 -0.5613,-0.83056 -0.2236,-0.97718 -0.1031,-1.00291 0.3206,-0.95584 0.2873,-0.90268 0.4235,-0.84734 -0.1318,-0.95177 0.2217,-0.93493 0.5463,-0.79721 0.8705,-0.41971 0.7141,-0.61868 0.495,-0.80476 0.2273,-0.94891 0.5099,-0.83196 0.8647,-0.5621 0.2712,-0.99507 0.9201,-0.5494 1.0489,0.21965 0.7213,-0.69039 0.7485,-0.6608 0.5785,-0.76406 0.6886,-0.66662 0.5562,-0.82629 0.02,-0.99585 0.7775,-0.52118 0.7912,-0.50013 0.9002,-0.37502 0.556,-0.80115 0.3392,-1.00414 -0.1803,-1.04444 -0.8693,-0.65876 -0.2567,-1.06003 0.053,-1.03984 0.7053,-0.76596 0.1404,-0.96932 0.1706,-0.96445 0.4502,-0.84586 0.6224,-0.72856 0.3438,-0.955 0.8809,-0.50417 0.4371,-0.93899 0.8018,-0.65565 -0.022,-1.00944 -0.024,-1.00939 0.2397,-1.06869 0.3437,-1.03993 0.7823,-0.77911 0.9627,-0.54054 0.5375,-0.95339 0.6917,-0.84816 0.9724,-0.52239 1.0856,-0.19971 1.0904,-0.11715 0.99,0.47154 0.9147,-0.58812 1.0836,-0.0906 0.8084,-0.86431 1.1811,-0.0733 0.9206,0.72897 1.173,-0.0549 1.0943,0.21145 0.6808,0.88242 1.0274,0.33965 1.0552,-0.23988 0.8467,-0.65029 0.8217,-0.68151 1.0704,0.24365 1.0642,-0.26973 1.0436,0.30494 1.0655,-0.21687 1.1335,-0.0574 0.7877,-0.81703 0.581,0.91734 0.8752,0.64277 1.0446,0.22559 1.0138,0.33787 0.2052,-1.014 -0.063,-1.03262 0.3325,-1.05029 -0.4694,-0.99668 0.311,-1.04392 0.4723,-0.9815 0.9084,-0.59862 0.9757,-0.48126 0.4612,-0.88849 0.378,-0.92696 0.8359,-0.62042 0.3759,-0.97068 0.6667,-0.83731 1.0598,-0.14918 0.7487,-0.71128 1.0096,-0.21736 0.5593,-0.9021 1.0063,-0.3373 0.8663,-0.60205 0.3175,-1.00597 0.4703,-0.87928 0.6184,-0.78216 0.5637,-0.83821 0.226,-0.98447 1.0443,-0.0722 0.8454,-0.61747 1.0058,-0.008 1.0056,-0.0208 0.6599,-0.79313 0.8782,-0.54179 0.9768,-0.28945 0.993,-0.22779 0.407,0.6427 0.5382,0.53778 0.6152,0.4468 0.6949,0.3085 0.4728,0.60338 0.3459,0.68412 0.2387,0.74128 -0.072,0.7754 0.048,0.79304 0.38,0.69774 0.6833,0.3846 0.541,0.56762 -0.2276,0.74211 0,0.77621 0.5143,0.61245 0.1051,0.79283 -0.041,0.80184 0.5157,0.61537 -0.3908,0.69832 0.1755,0.78074 -0.1063,0.7261 -0.026,0.73339 -0.3721,0.64545 -0.1182,0.73556 -0.4921,0.55899 -0.4324,0.60636 -0.147,0.72911 -0.1575,0.72691 -0.056,0.76837 0.2158,0.73961 -0.4777,0.60307 -0.2486,0.72805 -0.1044,0.73043 -0.018,0.73764 0.4676,0.56917 0.4554,0.57899 -0.1126,0.7476 0.4184,0.62969 -0.1594,0.688 -0.2246,0.66955 -0.058,0.72137 0.3317,0.64318 -0.1229,0.68662 -0.2163,0.66314 0.1607,0.69963 0.4389,0.5681 0.1875,0.71498 -0.2791,0.68442 0.4951,0.49907 0.2652,0.65102 0.4421,0.56041 0.1015,0.70655 0.013,0.68996 0.053,0.68802 0.3424,0.62627 -0.014,0.71362 0.01,0.76731 0.2055,0.73931 -0.2758,0.71451 -0.4323,0.63221 0.4135,0.5949 0.3734,0.62081 0.5153,0.53419 0.2365,0.70357 0.6134,0.46992 0.2532,0.73009 0.2428,0.75253 0.6785,0.40609 0.085,0.77203 0.2551,0.73364 0.4461,0.64843 0.6609,0.42741 -0.189,0.77779 0.3579,0.71594 -0.1183,0.74297 -0.1824,0.72989 0.3028,0.69304 0.2163,0.72467 -0.1489,0.75294 0.1285,0.75669 0.7619,0.32183 0.5635,0.60536 0.5281,0.63107 0.721,0.39673 0.8084,0.3096 0.8209,-0.27451 0.8685,0.12689 0.7163,-0.507 0.7188,0.33638 0.4902,0.62416 0.4997,0.61179 0.7081,0.35008 0.3305,0.72425 0.065,0.79342 0.2084,0.81033 0.6873,0.47718 0.5483,0.51764 0.2677,0.70491 0.6097,0.41322 0.5504,0.48944 -0.017,0.77576 0.5014,0.59218 0.049,0.7458 0.3902,0.63745 -0.1417,0.79785 0.3608,0.72559 -0.5157,0.59341 -0.2351,0.75017 -0.031,0.76664 0.4292,0.63604 0.1865,0.70514 0.2331,0.69117 0.5064,0.4776 0.4741,0.50976 0.5658,0.47929 0.1195,0.73184 0.3712,0.65077 0.6917,0.2878 0.2738,0.65413 0.2499,0.66364 0.7145,0.18634 0.5421,0.50122 0.4908,0.5421 0.2366,0.69196 0.5423,0.44933 0.5517,0.43776 0.4696,0.54697 0.1981,0.69318 0.1958,0.7017 0.325,0.652 -0.1086,0.7177 -0.047,0.72435 0.4994,0.58499 0.7455,0.18948 0.5031,0.56936 0.1447,0.74592 0.4253,0.55308 0.1333,0.68485 0.3253,0.59677 0.3749,0.56694 0.1339,0.6769 0.3304,0.60576 0.3012,0.6494 -0.1301,0.70394 0.1653,0.68061 0.2653,0.64818 0.01,0.71118 0.2705,0.65776 0.6351,0.36833 0.3744,0.63151 0.4116,0.59651 0.1481,0.70945 0.436,0.61559 0.083,0.74981 0.4142,0.61197 0.5797,0.45832 0.6981,0.21647 0.568,0.46015 0.7411,0.0828 0.5888,0.45758 0.5525,0.49396 0.474,0.56978 0.6745,0.33183 0.7486,0.0683 0.5344,0.48978 0.6473,0.32641 0.3834,0.62188 0.5829,0.44049 0.7745,0.15289 0.6176,0.49171 0.328,0.703 0.522,0.57395 0.6076,0.521 0.8,0.0256 0.7696,0.26081 0.7383,-0.33952 0.4829,0.54919 0.275,0.67756 0.033,0.75778 0.4742,0.592 0.7181,0.31278 0.3406,0.70525 0.1782,0.71925 0.3622,0.64646 0.3704,0.64024 0.027,0.73916 0.01,0.74417 0.3879,0.63512 -0.047,0.73621 -0.09,0.73216 0.2017,0.71257 0.3297,0.6631 0.5096,0.54787 0.3617,0.65503 0.2023,0.72812 -0.077,0.75181 0.6182,0.43141 0.2486,0.7117 0.6419,0.37133 0.3771,0.63849 0.7436,0.12862 0.4646,0.59468 0.6742,0.24032 0.5457,0.46306 0.3544,0.65881 0.5977,0.44974 0.764,0.0171 0.6234,0.44181 0.598,-0.54108 0.7596,-0.27096 0.7909,-0.0212 0.791,0.02 0.8292,0.24851 0.4886,0.71466 0.8432,0.23327 0.7812,-0.39364 0.2999,0.73256 0.1916,0.76799 0.8152,0.20307 0.4941,0.67953 0.6963,0.47755 0.2543,0.80513 0.8339,-0.0826 0.7274,0.41628 0.7914,-0.19011 0.7061,0.40507 0.4307,0.62659 0.5481,0.52696 0.5389,0.51626 0.7316,0.14762 0.7436,-0.11343 0.6723,0.33743 0.7854,0.27421 0.4342,0.70971 0.774,-0.2541 0.7918,0.19219 0.4962,0.61603 0.7457,0.26386 0.1074,0.78429 0.5063,0.60854 0.2688,0.68053 0.3772,0.62704 0.4105,0.60397 0.4736,0.55593 0.5148,0.59921 0.7756,0.14962 0.6279,0.48056 0.1892,0.76775 -0.1139,0.79456 -0.4228,0.68226 0.096,0.80024 0.4346,0.67878 0.113,0.77252 0.082,0.77639 0.444,0.6591 0.6558,0.4489"
       id="path9039-0"
       inkscape:connector-curvature="0"
       transform="matrix(0.58208333,0,0,1.7722257,-441.75279,-576.62166)" />
  </g>
</svg>
