<?xml version="1.0" encoding="UTF-8" standalone="no"?>
<!-- Created with Inkscape (http://www.inkscape.org/) -->

<svg
   xmlns:dc="http://purl.org/dc/elements/1.1/"
   xmlns:cc="http://creativecommons.org/ns#"
   xmlns:rdf="http://www.w3.org/1999/02/22-rdf-syntax-ns#"
   xmlns:svg="http://www.w3.org/2000/svg"
   xmlns="http://www.w3.org/2000/svg"
   xmlns:sodipodi="http://sodipodi.sourceforge.net/DTD/sodipodi-0.dtd"
   xmlns:inkscape="http://www.inkscape.org/namespaces/inkscape"
   width="256"
   height="256"
   id="svg3385"
   version="1.1"
   inkscape:version="0.48.2 r9819"
   sodipodi:docname="Bush1.svg"
   inkscape:export-filename="E:\Proyectos\2dDevelopment\FakeMario\FakeMario-android\assets\data\layers\Layer32.png"
   inkscape:export-xdpi="90"
   inkscape:export-ydpi="90">
  <defs
     id="defs3387">
    <filter
       inkscape:collect="always"
       id="filter3837"
       x="-0.078713827"
       width="1.1574275"
       y="-0.12301508"
       height="1.2460302"
       color-interpolation-filters="sRGB">
      <feGaussianBlur
         inkscape:collect="always"
         stdDeviation="16.527173"
         id="feGaussianBlur3839" />
    </filter>
    <filter
       color-interpolation-filters="sRGB"
       inkscape:collect="always"
       id="filter3827-7"
       x="-0.069977529"
       width="1.139955"
       y="-0.15283434"
       height="1.3056687">
      <feGaussianBlur
         inkscape:collect="always"
         stdDeviation="14.373014"
         id="feGaussianBlur3829-7" />
    </filter>
    <filter
       id="filter6287"
       inkscape:collect="always"
       color-interpolation-filters="sRGB">
      <feGaussianBlur
         id="feGaussianBlur6289"
         stdDeviation="4.0395568"
         inkscape:collect="always" />
    </filter>
    <filter
       id="filter6275"
       inkscape:collect="always"
       color-interpolation-filters="sRGB">
      <feGaussianBlur
         id="feGaussianBlur6277"
         stdDeviation="2.3805537"
         inkscape:collect="always" />
    </filter>
    <filter
       id="filter6251"
       inkscape:collect="always"
       color-interpolation-filters="sRGB">
      <feGaussianBlur
         id="feGaussianBlur6253"
         stdDeviation="2.4059922"
         inkscape:collect="always" />
    </filter>
    <filter
       id="filter6263"
       inkscape:collect="always"
       color-interpolation-filters="sRGB">
      <feGaussianBlur
         id="feGaussianBlur6265"
         stdDeviation="3.3545394"
         inkscape:collect="always" />
    </filter>
    <filter
       id="filter6271"
       inkscape:collect="always"
       color-interpolation-filters="sRGB">
      <feGaussianBlur
         id="feGaussianBlur6273"
         stdDeviation="1.6149656"
         inkscape:collect="always" />
    </filter>
    <filter
       inkscape:collect="always"
       id="filter4434">
      <feGaussianBlur
         inkscape:collect="always"
         stdDeviation="1.5553083"
         id="feGaussianBlur4436" />
    </filter>
    <filter
       color-interpolation-filters="sRGB"
       inkscape:collect="always"
       id="filter9035-9">
      <feGaussianBlur
         inkscape:collect="always"
         stdDeviation="1.5045144"
         id="feGaussianBlur9037-23" />
    </filter>
  </defs>
  <sodipodi:namedview
     id="base"
     pagecolor="#ffffff"
     bordercolor="#666666"
     borderopacity="1.0"
     inkscape:pageopacity="0.0"
     inkscape:pageshadow="2"
     inkscape:zoom="2.8"
     inkscape:cx="136.55932"
     inkscape:cy="121.00499"
     inkscape:document-units="px"
     inkscape:current-layer="layer1"
     showgrid="false"
     inkscape:window-width="1920"
     inkscape:window-height="1018"
     inkscape:window-x="-8"
     inkscape:window-y="-8"
     inkscape:window-maximized="1" />
  <metadata
     id="metadata3390">
    <rdf:RDF>
      <cc:Work
         rdf:about="">
        <dc:format>image/svg+xml</dc:format>
        <dc:type
           rdf:resource="http://purl.org/dc/dcmitype/StillImage" />
        <dc:title></dc:title>
      </cc:Work>
    </rdf:RDF>
  </metadata>
  <g
     inkscape:label="Capa 1"
     inkscape:groupmode="layer"
     id="layer1"
     transform="translate(0,-796.36218)">
    <rect
       style="fill:#4169e1;fill-opacity:0;stroke:none;display:inline"
       id="rect3005"
       width="256.45547"
       height="256.18481"
       x="0.43269372"
       y="796.79376" />
    <path
       inkscape:connector-curvature="0"
       id="path6877-73"
       d="m 1179.1334,919.98954 0.2178,-3.4432 -0.4662,-3.4184 1.473,-3.1289 0.6801,-3.3908 2.4739,-2.468 3.2246,-1.3464 2.9037,-2.1123 1.1932,-3.3866 1.5096,-2.9998 0.027,-3.3581 1.3529,-3.0739 -0.1485,-3.3551 2.6012,-2.0982 2.4309,-2.2932 1.8718,-2.8082 0.9904,-3.2262 0.5745,-3.4616 -1.108,-3.3294 1.1279,-3.377 2.8187,-2.1751 -0.1934,-3.37408 1.097,-3.19663 1.7306,-2.85683 2.3582,-2.36554 -0.3826,-3.56418 -1.9202,-3.02696 -0.2345,-3.52554 0.853,-3.42882 2.4168,-2.67566 3.1083,-1.82707 0.4142,-3.60375 1.7069,-3.20081 3.2834,-1.25431 3.3349,-1.11024 3.5609,1.16796 3.4622,-1.43411 3.2268,-1.60599 2.1257,-2.91081 3.0359,-1.76917 3.2855,-1.24594 1.6638,-3.11116 2.7606,-2.19703 1.3043,-3.29503 2.6035,-2.40412 0.8975,-3.75859 -1.2146,-3.66843 2.0778,-3.12027 2.8123,-2.47868 2.4345,-2.52025 1.3378,-3.23859 2.0264,-3.1044 3.6083,-0.85087 1.6462,-3.27172 2.7775,-2.38733 3.6621,-0.076 3.35,-1.48135 2.6881,-2.47373 1.2124,-3.44602 -1.5475,-3.4458 1.057,-3.62645 1.6456,-3.13969 2.4059,-2.60334 -0.4195,-3.52129 0.5316,-3.50611 1.9135,0.36857 1.9288,-0.27846 1.8949,0.44124 1.9385,-0.1657 1.9057,0.80344 1.026,1.7957 1.6957,1.09223 2.0088,0.18316 2.081,-0.71477 2.0411,0.82173 1.8875,0.87828 1.574,1.36262 2.0259,0.81559 1.1394,1.86318 0.6683,1.96508 0.4834,2.0185 1.5758,-1.06962 1.7649,-0.71567 1.5454,-1.15615 1.868,-0.48579 1.5923,-1.09684 1.8945,-0.3868 1.5917,-1.2 1.9932,-0.0281 2.0215,-0.20283 1.8536,0.83167 1.8787,-0.56939 1.8639,-0.61589 1.6179,1.27583 1.8114,0.98194 2.1455,0.36595 1.9013,-1.05917 1.7039,1.02704 1.596,1.18777 1.9909,0.52403 1.9833,-0.55175 1.8903,-0.29669 1.7791,-0.7043 2.0089,-0.0876 1.531,-1.3035 1.8814,0.38092 1.4165,1.29553 1.7975,0.44003 1.7685,0.54519 2.0054,-0.22876 1.6673,1.13745 1.9845,0.19406 1.7043,-1.03499 1.9637,-0.34364 1.3135,-1.49954 1.7895,-0.61693 1.5981,-1.01432 1.9012,-0.16987 1.8428,-0.49718 1.7964,0.9206 1.9738,-0.42255 1.9847,-0.83721 1.0048,-1.90535 2.0388,-0.70508 2.0178,0.76324 1.441,-1.23573 1.3806,-1.30295 1.3073,-1.40292 0.8549,-1.71655 0.4898,3.76195 2.438,2.90658 1.2475,3.50792 -0.29,3.71181 3.5944,1.6299 2.4906,3.0617 0.6425,3.79094 0.949,3.72607 -1.0122,3.64041 -2.4937,2.8388 -0.8072,3.64781 0.4408,3.70996 1.7943,3.41098 -0.3615,3.83715 -2.0846,3.24906 0.071,3.85964 1.3025,3.38868 0.8509,3.52925 -0.8862,3.53209 -0.1529,3.63836 3.4512,1.63324 1.9455,3.28525 0.3514,3.73175 1.9617,3.19387 0.4347,3.80539 -1.4854,3.53038 1.7736,3.25717 2.0456,3.09355 2.2467,2.89367 0.5822,3.61691 2.7975,2.22938 2.1606,2.85085 3.5802,0.78728 3.4534,1.22941 2.4863,2.81511 3.4724,1.43134 2.3656,2.75484 2.4771,2.6549 2.9658,2.5204 0.4994,3.86 2.4834,2.5264 2.197,2.779 2.9615,2.0393 2.0516,2.953 1.7716,3.378 3.167,2.1259 0.9651,3.5991 0.048,3.726 2.8868,2.2771 2.0953,3.0213 2.5637,2.6583 3.3212,1.6152 3.6259,-1.1893 3.714,0.8763 3.866,-0.079 3.1583,2.231 1.7144,3.3007 2.3793,2.8588 3.5791,0.9505 3.4579,1.3253 3.0696,1.9053 2.7338,2.3619 3.7239,-0.631 3.411,1.6219"
       style="fill:#008000;fill-opacity:1;stroke:none;display:inline;filter:url(#filter9035-9)"
       transform="matrix(0.77490583,0,0,1.46474,-912.43068,-293.56147)" />
  </g>
</svg>
