<?xml version="1.0" encoding="UTF-8" standalone="no"?>
<!-- Created with Inkscape (http://www.inkscape.org/) -->

<svg
   xmlns:dc="http://purl.org/dc/elements/1.1/"
   xmlns:cc="http://creativecommons.org/ns#"
   xmlns:rdf="http://www.w3.org/1999/02/22-rdf-syntax-ns#"
   xmlns:svg="http://www.w3.org/2000/svg"
   xmlns="http://www.w3.org/2000/svg"
   xmlns:sodipodi="http://sodipodi.sourceforge.net/DTD/sodipodi-0.dtd"
   xmlns:inkscape="http://www.inkscape.org/namespaces/inkscape"
   width="256"
   height="256"
   id="svg3385"
   version="1.1"
   inkscape:version="0.48.2 r9819"
   sodipodi:docname="Cloud2.svg"
   inkscape:export-filename="E:\Proyectos\2dDevelopment\FakeMario\FakeMario-android\assets\data\layers\Layer22.png"
   inkscape:export-xdpi="90"
   inkscape:export-ydpi="90">
  <defs
     id="defs3387">
    <filter
       inkscape:collect="always"
       id="filter3837"
       x="-0.078713827"
       width="1.1574275"
       y="-0.12301508"
       height="1.2460302"
       color-interpolation-filters="sRGB">
      <feGaussianBlur
         inkscape:collect="always"
         stdDeviation="16.527173"
         id="feGaussianBlur3839" />
    </filter>
  </defs>
  <sodipodi:namedview
     id="base"
     pagecolor="#ffffff"
     bordercolor="#666666"
     borderopacity="1.0"
     inkscape:pageopacity="0.0"
     inkscape:pageshadow="2"
     inkscape:zoom="2.8"
     inkscape:cx="136.55932"
     inkscape:cy="137.15729"
     inkscape:document-units="px"
     inkscape:current-layer="layer1"
     showgrid="false"
     inkscape:window-width="1920"
     inkscape:window-height="1018"
     inkscape:window-x="-8"
     inkscape:window-y="-8"
     inkscape:window-maximized="1" />
  <metadata
     id="metadata3390">
    <rdf:RDF>
      <cc:Work
         rdf:about="">
        <dc:format>image/svg+xml</dc:format>
        <dc:type
           rdf:resource="http://purl.org/dc/dcmitype/StillImage" />
        <dc:title></dc:title>
      </cc:Work>
    </rdf:RDF>
  </metadata>
  <g
     inkscape:label="Capa 1"
     inkscape:groupmode="layer"
     id="layer1"
     transform="translate(0,-796.36218)">
    <rect
       style="fill:#4169e1;fill-opacity:1;stroke:none;display:inline"
       id="rect3005"
       width="256.45547"
       height="256.18481"
       x="0.43269372"
       y="796.79376" />
    <path
       style="fill:#ffffff;fill-opacity:1;stroke:none;display:inline;filter:url(#filter3837)"
       d="m 2258.7052,634.79948 c 1.342,-2.23679 3.7026,-4.12198 4.0262,-6.71036 0.2001,-1.60051 -1.9628,-2.58353 -2.6842,-4.02621 -0.6326,-1.26532 -0.8166,-2.71273 -1.342,-4.02621 -0.3715,-0.92878 -1.0995,-1.71369 -1.3421,-2.68414 -0.217,-0.868 0.1471,-1.8016 0,-2.68414 -0.3032,-1.81941 -1.0812,-3.54233 -1.3421,-5.36829 -0.1898,-1.32858 0.4244,-2.75301 0,-4.02621 -0.51,-1.5302 -2.241,-2.4753 -2.6841,-4.02621 -0.4916,-1.72058 0,-3.57886 0,-5.36829 0,-3.13149 0,-6.26299 0,-9.39449 0,-3.62664 -0.6457,-7.4236 1.3421,-10.73657 0.651,-1.085 1.9822,-1.63133 2.6841,-2.68414 0.2482,-0.37222 -0.2481,-0.96985 0,-1.34207 1.0004,-1.50057 3.9075,-3.90753 5.3683,-5.36828 1.3421,-1.34207 2.3286,-3.17741 4.0262,-4.02621 1.6005,-0.80026 3.7678,0.80025 5.3683,0 1.1317,-0.56587 1.5093,-2.21422 2.6841,-2.68415 1.2461,-0.49843 2.7242,0.3255 4.0262,0 0.6138,-0.15344 0.7419,-1.142 1.3421,-1.34207 0.8488,-0.28293 1.8162,0.217 2.6842,0 0.9704,-0.24261 1.7136,-1.09945 2.6841,-1.34207 0.868,-0.217 1.8353,0.28294 2.6841,0 0.6002,-0.20006 0.7283,-1.18863 1.3421,-1.34207 1.8175,-0.45437 9.0794,0.2762 10.7366,0 0.9867,-0.16445 1.7351,-1.02574 2.6841,-1.34207 0.7264,-0.24211 4.9111,0 5.3683,0 6.7104,0 13.4207,0 20.1311,0 1.5098,0 3.2696,0.54947 4.0262,-1.34207 2.0346,-5.08645 1.342,-10.76469 1.342,-16.10485 0,-12.52599 0,-25.05199 0,-37.57798 0,-3.57886 0,-7.15771 0,-10.73657 0,-0.89471 0,-1.78943 0,-2.68414 0,-0.89471 -0.217,-1.81614 0,-2.68414 0.2427,-0.97045 0.8948,-1.78943 1.3421,-2.68414 0.4474,-0.89472 0.6347,-1.97681 1.3421,-2.68414 0.3163,-0.31633 1.0257,0.31633 1.3421,0 3.2596,-3.25963 -0.3991,-1.97073 2.6841,-4.02622 0.8323,-0.55487 1.9768,-0.63473 2.6841,-1.34207 0.3164,-0.31633 -0.3163,-1.02574 0,-1.34207 0.3164,-0.31633 0.9699,0.24815 1.3421,0 2.1056,-1.40374 3.3438,-3.8499 5.3683,-5.36828 0.8002,-0.60019 1.8264,-0.82741 2.6841,-1.34207 1.3831,-0.82987 2.6431,-1.85428 4.0262,-2.68414 1.7156,-1.02932 3.7678,-1.48376 5.3683,-2.68414 1.0123,-0.75919 1.6719,-1.92496 2.6842,-2.68415 1.7985,-1.34888 4.777,-1.91082 6.7103,-2.68414 0.9288,-0.37151 1.7895,-0.89471 2.6842,-1.34207 0.8947,-0.44736 1.8518,-0.78719 2.6841,-1.34207 0.5264,-0.35093 0.7762,-1.05914 1.3421,-1.34207 0.4001,-0.20006 0.8947,0 1.342,0 0.8948,0 1.8354,0.28293 2.6842,0 0.6002,-0.20006 0.7762,-1.05914 1.3421,-1.34207 0.4001,-0.20006 0.8947,0 1.342,0 0.8947,0 1.7895,0 2.6842,0 2.2368,0 4.4735,0 6.7103,0 2.2368,0 4.4736,0 6.7104,0 0.8947,0 1.8353,-0.28293 2.6841,0 5.4075,1.80249 0.5388,2.28251 4.0262,4.02621 1.3421,0.44736 2.6842,0.89472 4.0262,1.34207 0,0.44736 -0.3163,1.02574 0,1.34207 0.3164,0.31633 0.942,-0.20006 1.3421,0 1.4427,0.72134 2.6431,1.85428 4.0262,2.68414 0.8578,0.51467 1.9768,0.63474 2.6842,1.34208 0.3163,0.31632 -0.3164,1.02574 0,1.34207 0.3163,0.31633 0.9419,-0.20007 1.342,0 0.5659,0.28293 1.0592,1.90793 1.3421,1.34207 0.6002,-1.20039 0,-2.68414 0,-4.02622 0,-1.78942 -0.7049,-3.72353 0,-5.36828 0.7477,-1.74451 2.8112,-2.56815 4.0262,-4.02621 1.0326,-1.23912 1.7466,-2.71369 2.6842,-4.02621 1.3001,-1.82015 2.7261,-3.54814 4.0262,-5.36829 0.9375,-1.31252 1.6515,-2.78709 2.6841,-4.02621 1.2151,-1.45806 2.9231,-2.48177 4.0262,-4.02621 1.1629,-1.62799 1.5744,-3.70365 2.6842,-5.36828 1.4037,-2.10562 4.0663,-3.19829 5.3683,-5.36829 3.1153,-9.34595 -0.8864,0.65857 4.0262,-6.71035 0.2481,-0.37222 0,-0.89471 0,-1.34207 0.8947,-1.34207 1.5436,-2.88567 2.6841,-4.02621 0.7073,-0.70734 1.9768,-0.63474 2.6842,-1.34207 0.3163,-0.31633 -0.1415,-0.91768 0,-1.34208 0.3163,-0.94898 0.6347,-1.9768 1.342,-2.68414 0.3164,-0.31633 1.0258,0.31633 1.3421,0 0.7073,-0.70733 0.6347,-1.97681 1.3421,-2.68414 1.1405,-1.14054 2.7667,-1.67653 4.0262,-2.68414 0.988,-0.79044 1.6719,-1.92495 2.6841,-2.68414 1.6005,-1.20039 3.9536,-1.26948 5.3683,-2.68414 1.5816,-1.58165 2.0256,-4.36797 4.0262,-5.36829 0.4001,-0.20006 0.942,0.20007 1.3421,0 0.5659,-0.28293 0.7419,-1.142 1.3421,-1.34207 0.8488,-0.28293 1.8838,0.40013 2.6841,0 1.1317,-0.56586 1.7894,-1.78942 2.6841,-2.68414 0.4474,-0.44736 0.7283,-1.18863 1.3421,-1.34207 1.302,-0.3255 2.7102,0.2632 4.0262,0 0.9809,-0.19618 1.7352,-1.02574 2.6842,-1.34207 0.8876,-0.29588 6.734,0 8.0524,0 2.2368,0 4.4736,0 6.7103,0 1.3421,0 2.6977,-0.1898 4.0263,0 5.0664,0.72378 8.9209,3.11842 13.4207,5.36828 0.8947,0.44736 1.8263,0.82741 2.6841,1.34207 1.3831,0.82987 2.5835,1.9628 4.0262,2.68415 0.4001,0.20006 0.9699,-0.24815 1.3421,0 1.326,0.884 5.2138,5.21386 6.7103,6.71035 0.4474,0.44736 0.8157,0.99113 1.3421,1.34207 0.25,0.16666 5.2823,2.59814 5.3683,2.68414 0.7073,0.70733 0.6347,1.97681 1.3421,2.68414 0.3163,0.31633 0.8947,0 1.342,0 0.4474,0.89472 1.0258,1.73516 1.3421,2.68414 0.2829,0.8488 0,1.78943 0,2.68415 0,1.34207 0,2.68414 0,4.02621 0,0.44736 -0.2001,0.94194 0,1.34207 0.7213,1.44268 1.9628,2.58353 2.6841,4.02621 0.2001,0.40013 0,0.89472 0,1.34207 0,0.89472 0,1.78943 0,2.68414 0,1.78943 0,3.57886 0,5.36829 0,6.26299 0,12.52599 0,18.78899 0,6.26299 0,12.52599 0,18.78899 0,0.32549 -0.043,3.98305 0,4.02621 0.3164,0.31633 0.8948,0 1.3421,0 4.0262,0 8.0524,0 12.0787,0 4.9209,0 9.8418,0 14.7627,0 1.3421,0 2.7242,0.3255 4.0262,0 2.3372,-0.58429 4.4547,-1.83825 6.7104,-2.68414 1.3246,-0.49672 2.7016,-0.84535 4.0262,-1.34207 2.2557,-0.84589 4.4547,-1.83825 6.7104,-2.68414 6.1355,-2.30085 2.7271,-0.68179 10.7365,-2.68414 4.1173,-1.02933 8.0137,-2.80671 12.0787,-4.02622 1.7667,-0.53001 3.6015,-0.81205 5.3683,-1.34207 2.71,-0.813 5.2904,-2.07037 8.0524,-2.68414 1.3101,-0.29114 2.6976,0.1898 4.0262,0 5.6283,-0.80404 6.3687,-2.1229 12.0786,-4.02621 0.4244,-0.14147 0.9177,0.14147 1.3421,0 2.2855,-0.76182 4.4249,-1.92232 6.7104,-2.68414 0.8423,-0.28079 4.2878,0 5.3682,0 1.139,0 7.3126,-0.24662 8.0525,0 1.8979,0.63266 3.495,1.98167 5.3682,2.68414 1.7271,0.64765 3.7186,0.51718 5.3683,1.34207 5.509,2.75447 8.8282,8.25151 13.4207,12.07864 3.7136,3.09467 5.1118,2.29936 8.0525,6.71035 0.7847,1.17707 0.7848,2.72593 1.342,4.02621 0.7881,1.83888 1.5744,3.70365 2.6842,5.36829 2.2368,3.35517 4.4735,2.79598 6.7103,6.71035 0.9152,1.60147 0.7588,3.61844 1.3421,5.36828 0.3163,0.94899 1.0995,1.71369 1.3421,2.68414 0.3255,1.302 0,2.68415 0,4.02622 0,3.13149 0,6.26299 0,9.39449 0,0.79904 0.2517,7.54896 0,8.05243 -1.6437,3.28728 -2.9342,2.20064 -5.3683,4.02621 -1.0123,0.75919 -1.5524,2.11827 -2.6842,2.68414 -0.8002,0.40013 -1.8353,-0.28293 -2.6841,0 -0.6002,0.20006 -0.7762,1.05914 -1.3421,1.34207 -1.2653,0.63266 -2.7259,0.78481 -4.0262,1.34207 -6.3045,2.70194 -3.5873,2.68414 -8.0524,2.68414 -2.6841,0 -5.3683,0 -8.0524,0 -0.4474,0 -1.3421,0.44736 -1.3421,0 0,-0.44735 0.9081,-0.1085 1.3421,0 1.3724,0.34311 2.6659,0.95344 4.0262,1.34207 4.7992,1.37122 7.4514,1.38212 12.0786,4.02622 11.4387,6.53641 -12.6463,-2.10599 9.3945,6.71035 16.6646,6.66583 -3.7037,-5.33448 13.4207,5.36828 1.3678,0.85487 2.6842,1.78943 4.0262,2.68415 1.3421,0.89471 2.8857,1.5436 4.0262,2.68414 1.5817,1.58164 2.4446,3.78663 4.0263,5.36828 7.1577,3.57886 -1.3421,-1.34207 4.0262,4.02621 0.7073,0.70734 2.2901,0.42263 2.6841,1.34207 1.0719,2.50115 0.5945,5.43596 1.3421,8.05243 0.1738,0.60831 0.8947,0.89471 1.3421,1.34207 0.8947,0.89471 2.284,1.48376 2.6841,2.68414 0.5659,1.6976 0,3.57886 0,5.36828 0,1.78943 0,3.57886 0,5.36829 0,5.36828 0,10.73656 0,16.10485 0,4.02621 0,8.05242 0,12.07863 0,0.89472 0,1.78943 0,2.68414 0,0.89472 0.2829,1.83535 0,2.68415 -0.2001,0.60019 -1.0591,0.7762 -1.3421,1.34207 -0.2,0.40012 0.3164,1.02574 0,1.34207 -0.3163,0.31633 -1.0257,-0.31633 -1.342,0 -0.3164,0.31633 0.3163,1.02574 0,1.34207 -0.3164,0.31633 -0.942,-0.20007 -1.3421,0 -5.5854,2.79269 1.4347,-0.0926 -1.3421,2.68414 -0.3163,0.31633 -1.0257,-0.31633 -1.3421,0 -0.3163,0.31633 0,0.89471 0,1.34207 0,0.89471 -0.4001,1.88389 0,2.68414 0.4002,0.80026 1.8839,-0.40013 2.6842,0 0.358,0.17902 2.3261,2.50512 2.6841,2.68414 0.4002,0.20007 0.942,-0.20006 1.3421,0 0.5659,0.28294 0.8947,0.89472 1.3421,1.34207 0.4473,0.44736 1.0591,0.77621 1.342,1.34207 0.2139,0.42769 0,5.51092 0,6.71036 0,1.34207 0.949,3.07722 0,4.02621 -0.949,0.94899 -2.6841,0 -4.0262,0 -3.1315,0 -6.263,0 -9.3945,0 -6.7103,0 -13.4207,0 -20.131,0 -2.6842,0 -5.3683,0 -8.0525,0 -1.7894,0 -3.5926,0.22195 -5.3682,0 -1.8303,-0.22878 -3.5489,-1.03884 -5.3683,-1.34207 -0.8826,-0.14709 -1.8162,0.217 -2.6842,0 -0.9704,-0.24261 -1.7137,-1.09946 -2.6841,-1.34207 -0.868,-0.217 -1.8161,0.217 -2.6841,0 -0.9705,-0.24261 -1.7137,-1.09946 -2.6842,-1.34207 -0.868,-0.217 -1.9397,0.4963 -2.6841,0 -0.8323,-0.55488 -0.5098,-2.12927 -1.3421,-2.68414 -0.243,-0.16199 -4.6356,0.14653 -5.3683,0 -3.7286,2.61061 -3.4274,-2.19892 -5.3683,-2.68414 -1.302,-0.3255 -2.6841,0 -4.0262,0 -0.4473,0 -0.9419,0.20006 -1.3421,0 -0.5658,-0.28294 -1.7894,-0.89472 -1.342,-1.34208 1.3602,-1.3602 4.4825,1.12063 5.3683,1.34208 1.736,0.434 3.7677,-0.80026 5.3682,0 1.1318,0.56586 1.5525,2.11827 2.6842,2.68414 4.7515,2.37576 0.9172,-3.99249 5.3683,2.68414 0.2481,0.37222 -0.2001,0.94194 0,1.34207 0.2829,0.56587 1.0591,0.7762 1.342,1.34207 0.2001,0.40013 0,0.89471 0,1.34207 0,0.44736 0,0.89471 0,1.34207 0,2.68414 0,5.36828 0,8.05243 0,4.47357 0,8.94713 0,13.4207 0,1.03288 0.2219,6.26657 0,6.71036 -0.5658,1.13173 -1.8937,1.69609 -2.6841,2.68414 -1.0076,1.25952 -1.8543,2.6431 -2.6841,4.02621 -0.5147,0.85777 -0.6348,1.97681 -1.3421,2.68414 -0.7073,0.70734 -1.9768,0.63474 -2.6842,1.34207 -5.2825,5.28251 -0.056,2.72605 -5.3682,6.71036 -0.8003,0.60019 -1.9768,0.63474 -2.6842,1.34207 -0.7073,0.70733 -0.6347,1.97681 -1.3421,2.68414 -0.7073,0.70733 -1.9768,0.63474 -2.6841,1.34207 -1.1405,1.14054 -1.3938,3.05843 -2.6841,4.02621 -0.7158,0.53683 -1.8839,-0.40012 -2.6842,0 -1.1317,0.56587 -1.7894,1.78943 -2.6841,2.68414 -0.4474,0.44736 -0.7419,1.14201 -1.3421,1.34208 -0.8488,0.28293 -1.7894,0 -2.6841,0 -10.2892,0 -20.5784,0 -30.8677,0 -2.2367,0 -4.4735,0 -6.7103,0 -2.6842,0 -5.4116,0.48015 -8.0524,0 -0.1359,-0.0247 -13.1279,-5.28043 -13.4207,-5.36829 -2.1849,-0.65546 -4.5097,-0.74188 -6.7104,-1.34207 -2.7296,-0.74445 -5.3076,-1.99793 -8.0524,-2.68414 -10.8654,-2.71635 -5.9142,0.40948 -17.4469,-4.02621 -2.801,-1.07728 -5.3102,-2.80741 -8.0525,-4.02621 -1.2927,-0.57455 -2.6841,-0.89472 -4.0262,-1.34208 -2.6841,-0.89471 -5.4767,-1.51335 -8.0524,-2.68414 -2.3747,-1.07941 -4.3772,-2.85964 -6.7104,-4.02621 -1.2653,-0.63266 -2.7609,-0.70941 -4.0262,-1.34207 -1.4427,-0.72134 -2.5835,-1.9628 -4.0262,-2.68414 -15.0777,-7.53886 -0.2827,0.61995 -10.7366,-4.02621 -2.7423,-1.21881 -5.2661,-2.91169 -8.0524,-4.02622 -0.022,-0.009 -10.6463,-2.65834 -10.7365,-2.68414 -1.3603,-0.38864 -2.6258,-1.142 -4.0263,-1.34207 -1.7714,-0.25306 -3.5926,0.22195 -5.3682,0 -1.8303,-0.22878 -3.5424,-1.08122 -5.3683,-1.34207 -2.6572,-0.37959 -5.4204,0.5264 -8.0524,0 -0.9809,-0.19618 -1.7137,-1.09946 -2.6842,-1.34207 -0.756,-0.18901 -5.0574,0.20722 -5.3683,0 -0.8323,-0.55488 -0.6347,-1.97681 -1.342,-2.68414 -0.3164,-0.31633 -0.8948,0 -1.3421,0 -0.8947,0 -1.8534,0.33229 -2.6842,0 -1.4976,-0.59904 -2.5835,-1.9628 -4.0262,-2.68414 -0.4001,-0.20007 -0.8947,0 -1.342,0 -0.8947,0 -1.7895,0 -2.6842,0 -2.2223,0 -7.5765,0.30299 -9.3945,0 -2.7908,-0.46514 -5.2616,-2.219 -8.0524,-2.68414 -1.3238,-0.22064 -2.6841,0 -4.0262,0 -1.7894,0 -3.5789,0 -5.3683,0 -7.1577,0 -14.3154,0 -21.4731,0 -0.6278,0 -8.1417,0 -9.3945,0 -1.1239,0 -5.6898,-0.25515 -6.7104,0 -0.9704,0.24261 -1.8518,0.78719 -2.6841,1.34207 -0.7336,0.48907 -6.4031,6.24945 -6.7104,6.71035 -0.2481,0.37222 0.3164,1.02574 0,1.34207 -0.3163,0.31633 -1.142,-0.40013 -1.342,0 -0.4002,0.80026 0.2829,1.83534 0,2.68414 -0.4002,1.20039 -2.1183,1.55241 -2.6842,2.68414 -0.2,0.40013 0.2001,0.94195 0,1.34207 -0.2829,0.56587 -1.0591,0.77621 -1.3421,1.34208 -0.2,0.40012 0.3164,1.02574 0,1.34207 -0.3163,0.31633 -0.9176,-0.14147 -1.342,0 -0.949,0.31633 -1.7352,1.02574 -2.6842,1.34207 -0.7263,0.24211 -4.911,0 -5.3682,0 -1.071,0 -5.9052,0.26839 -6.7104,0 -1.898,-0.63266 -3.4274,-2.19892 -5.3683,-2.68414 -6.1095,0 -0.077,0.63265 -4.0262,-1.34208 -0.8003,-0.40012 -1.8839,0.40013 -2.6841,0 -0.5659,-0.28293 -0.7762,-1.05913 -1.3421,-1.34207 -0.4001,-0.20006 -0.8947,0 -1.3421,0 -0.8947,-0.44735 -1.8518,-0.78719 -2.6841,-1.34207 -0.5264,-0.35093 -0.7283,-1.18863 -1.3421,-1.34207 -1.302,-0.3255 -2.7801,0.49844 -4.0262,0 -1.1748,-0.46992 -1.6719,-1.92495 -2.6841,-2.68414 -3.8019,-2.85141 -1.3999,-0.34996 -5.3683,-1.34207 -2.0088,-0.50219 -5.2671,-3.30459 -6.7104,-4.02621 -0.4853,-0.24267 -5.7769,0 -6.7103,0 -4.921,0 -9.8419,0 -14.7628,0 -2.2368,0 -4.4736,0 -6.7104,0 -0.4473,0 -0.908,0.1085 -1.342,0 -13.5598,-3.38994 0.9692,0.48461 -5.3683,-2.68414 -0.4002,-0.20007 -0.8947,0 -1.3421,0 -0.8947,0 -1.7894,0 -2.6841,0 -2.6842,0 -5.3683,0 -8.0525,0 -0.8947,0 -1.8838,0.40012 -2.6841,0 -0.4001,-0.20007 0.2001,-0.94195 0,-1.34207 -0.2829,-0.56587 -0.7762,-1.05914 -1.3421,-1.34208 -0.8518,-0.4259 -6.2752,0.4351 -6.7103,0 -0.3164,-0.31632 0.3163,-1.02574 0,-1.34207 -0.3164,-0.31633 -1.0258,0.31633 -1.3421,0 -0.3163,-0.31633 0.3163,-1.02574 0,-1.34207 -2.7768,-2.77679 0.1085,4.24331 -2.6841,-1.34207 -0.2001,-0.40013 0.4001,-1.142 0,-1.34207 -0.8003,-0.40013 -1.7895,0 -2.6842,0 -0.4473,0 -1.0257,0.31633 -1.3421,0 -0.3163,-0.31633 0.074,-0.9008 0,-1.34207 -0.375,-2.25004 -0.8947,-4.47357 -1.342,-6.71035 z"
       id="path3831"
       inkscape:connector-curvature="0"
       transform="matrix(0.41625878,0,0,0.6049958,-913.54891,596.89672)" />
  </g>
</svg>
