<?xml version="1.0" encoding="UTF-8" standalone="no"?>
<!-- Created with Inkscape (http://www.inkscape.org/) -->

<svg
   xmlns:dc="http://purl.org/dc/elements/1.1/"
   xmlns:cc="http://creativecommons.org/ns#"
   xmlns:rdf="http://www.w3.org/1999/02/22-rdf-syntax-ns#"
   xmlns:svg="http://www.w3.org/2000/svg"
   xmlns="http://www.w3.org/2000/svg"
   xmlns:sodipodi="http://sodipodi.sourceforge.net/DTD/sodipodi-0.dtd"
   xmlns:inkscape="http://www.inkscape.org/namespaces/inkscape"
   width="256"
   height="256"
   id="svg3385"
   version="1.1"
   inkscape:version="0.48.2 r9819"
   sodipodi:docname="Sky1.svg"
   inkscape:export-filename="E:\Proyectos\2dDevelopment\FakeMario\FakeMario-android\assets\data\layers\Layer11.png"
   inkscape:export-xdpi="90"
   inkscape:export-ydpi="90">
  <defs
     id="defs3387">
    <filter
       inkscape:collect="always"
       id="filter3809"
       x="-0.070703126"
       width="1.1414063"
       y="-0.15136942"
       height="1.3027389"
       color-interpolation-filters="sRGB">
      <feGaussianBlur
         inkscape:collect="always"
         stdDeviation="11.949924"
         id="feGaussianBlur3811" />
    </filter>
    <filter
       inkscape:collect="always"
       id="filter3809-3"
       x="-0.070703126"
       width="1.1414063"
       y="-0.15136942"
       height="1.3027389"
       color-interpolation-filters="sRGB">
      <feGaussianBlur
         inkscape:collect="always"
         stdDeviation="11.949924"
         id="feGaussianBlur3811-9" />
    </filter>
  </defs>
  <sodipodi:namedview
     id="base"
     pagecolor="#ffffff"
     bordercolor="#666666"
     borderopacity="1.0"
     inkscape:pageopacity="0.0"
     inkscape:pageshadow="2"
     inkscape:zoom="2.8"
     inkscape:cx="103.17944"
     inkscape:cy="108.58586"
     inkscape:document-units="px"
     inkscape:current-layer="layer1"
     showgrid="false"
     inkscape:window-width="1920"
     inkscape:window-height="1018"
     inkscape:window-x="-8"
     inkscape:window-y="-8"
     inkscape:window-maximized="1" />
  <metadata
     id="metadata3390">
    <rdf:RDF>
      <cc:Work
         rdf:about="">
        <dc:format>image/svg+xml</dc:format>
        <dc:type
           rdf:resource="http://purl.org/dc/dcmitype/StillImage" />
        <dc:title></dc:title>
      </cc:Work>
    </rdf:RDF>
  </metadata>
  <g
     inkscape:label="Capa 1"
     inkscape:groupmode="layer"
     id="layer1"
     transform="translate(0,-796.36218)">
    <rect
       style="fill:#4169e1;fill-opacity:0;stroke:none;display:inline"
       id="rect3005"
       width="256.45547"
       height="256.18481"
       x="0.43269372"
       y="796.79376" />
    <path
       style="fill:#ffffff;fill-opacity:1;stroke:none;display:inline;filter:url(#filter3809-3)"
       d="m 210.70511,547.56487 c -1.78943,-0.44736 -3.65571,-0.65704 -5.36828,-1.34207 -1.3987,-0.55948 -2.08799,-3.13198 -2.68414,-4.02621 -2.56024,-3.84036 -0.25145,2.05553 -2.68414,-4.02622 -0.5254,-1.31348 -0.70942,-2.76089 -1.34207,-4.02621 -2.34114,-4.68226 -2.51965,-2.69284 -4.02622,-6.71035 -0.99344,-2.64919 -1.87114,-5.34242 -2.68414,-8.05243 -0.53001,-1.76671 -0.69442,-3.64122 -1.34207,-5.36828 -0.70247,-1.87326 -2.19891,-3.42738 -2.68414,-5.36828 -0.434,-1.736 0.25306,-3.59684 0,-5.36829 -0.20007,-1.40044 -0.89471,-2.68414 -1.34207,-4.02621 -0.89472,-2.68414 -2.12927,-5.27803 -2.68414,-8.05242 -0.35094,-1.75468 0,-3.57886 0,-5.36829 0,-1.34207 0,-2.68414 0,-4.02621 0,-5.81564 0,-11.63128 0,-17.44692 0,-0.41699 0,-10.93964 0,-12.07864 0,-1.34207 -0.49844,-2.78013 0,-4.02621 0.46992,-1.17481 1.78942,-1.78943 2.68414,-2.68414 1.34207,-3.1315 2.82994,-6.20445 4.02621,-9.39449 0.15708,-0.41888 -0.14147,-0.91768 0,-1.34208 1.27567,-3.82699 5.05293,-13.10535 8.05243,-16.10484 1.58164,-1.58165 3.78663,-2.44457 5.36828,-4.02622 9.13704,-9.13704 -6.37818,1.82931 8.05242,-9.39449 2.05904,-1.60148 4.49834,-2.6437 6.71036,-4.02621 1.36779,-0.85488 2.55226,-2.02906 4.02621,-2.68415 2.58548,-1.1491 5.52179,-1.41882 8.05242,-2.68414 1.13174,-0.56586 1.55241,-2.11827 2.68415,-2.68414 1.64977,-0.82488 3.59475,-0.83535 5.36828,-1.34207 1.36023,-0.38864 2.62247,-1.1666 4.02621,-1.34207 2.21951,-0.27744 4.48725,0.24701 6.71035,0 3.66644,-0.40738 7.07606,-2.22658 10.73657,-2.68414 1.77561,-0.22195 3.57886,0 5.36828,0 2.68415,0 5.36829,0 8.05243,0 1.08392,0 10.00475,-0.20909 10.73656,0 1.92367,0.54962 3.47031,2.05148 5.36829,2.68414 0.8488,0.28293 1.83534,-0.28293 2.68414,0 1.89797,0.63266 3.47031,2.05148 5.36828,2.68414 0.8488,0.28293 1.80681,-0.17547 2.68414,0 1.3872,0.27744 2.65379,0.99896 4.02622,1.34207 0.434,0.1085 0.94194,-0.20006 1.34207,0 0.56586,0.28293 0.7762,1.05914 1.34207,1.34207 0.80025,0.40013 1.88388,-0.40013 2.68414,0 0.56587,0.28294 0.7762,1.05914 1.34207,1.34207 0.40013,0.20007 0.94194,-0.20006 1.34207,0 0.35634,0.17817 3.84805,3.66988 4.02621,4.02622 0.20007,0.40012 -0.31633,1.02574 0,1.34207 0.31633,0.31633 0.91767,-0.14147 1.34207,0 0.94899,0.31633 1.97681,0.63473 2.68415,1.34207 0.20827,0.20827 -0.17408,3.50398 0,4.02621 0.31632,0.94899 1.09945,1.71369 1.34207,2.68414 0.217,0.868 0,1.78943 0,2.68414 0,0.44736 -0.20007,0.94194 0,1.34207 0.28293,0.56587 1.142,0.74188 1.34207,1.34207 0.28293,0.8488 -0.217,1.81615 0,2.68415 1.62019,6.48078 0.63778,-0.0665 2.68414,4.02621 0.53683,1.07365 -0.53683,2.95255 0,4.02621 0.20006,0.40013 0.89471,0 1.34207,0 0.44736,0 1.02574,0.31633 1.34207,0 0.63266,-0.63266 -0.4963,-1.93969 0,-2.68414 6.68787,-6.68787 1.38045,-0.11513 2.68414,-4.02621 1.97283,-5.91849 0.14914,-1.41664 2.68414,-2.68415 1.44269,-0.72134 2.58353,-1.9628 4.02622,-2.68414 1.26531,-0.63266 2.71272,-0.81667 4.02621,-1.34207 0.92877,-0.37151 1.78943,-0.89471 2.68414,-1.34207 2.68414,-1.34207 5.2661,-2.91168 8.05242,-4.02621 0.41536,-0.16614 0.90808,0.1085 1.34208,0 1.37242,-0.34311 2.62246,-1.1666 4.02621,-1.34207 15.41098,0 -1.11336,0.5425 12.07863,-1.34207 1.32859,-0.1898 2.72422,0.3255 4.02622,0 2.33716,-0.58429 4.34012,-2.25319 6.71035,-2.68414 2.64085,-0.48016 5.37756,0.2229 8.05243,0 2.71176,-0.22598 5.33817,-1.1482 8.05242,-1.34207 3.56976,-0.25499 7.19368,0.50612 10.73657,0 2.80089,-0.40013 5.36828,-1.78943 8.05242,-2.68415 3.1315,-0.44735 6.24213,-1.07937 9.3945,-1.34207 2.22905,-0.18575 4.47357,0 6.71035,0 2.23678,0 4.47357,0 6.71035,0 6.71036,0 13.42071,0 20.13107,0 3.13149,0 6.26299,0 9.39449,0 1.39343,0 4.23208,0.28405 5.36828,0 1.37243,-0.3431 2.65379,-0.99896 4.02622,-1.34207 1.65526,-0.41381 4.9795,0.34617 6.71035,0 1.3872,-0.27744 2.63902,-1.06463 4.02621,-1.34207 0.87734,-0.17547 1.85342,0.33229 2.68414,0 1.49761,-0.59904 2.58353,-1.9628 4.02622,-2.68414 0.40012,-0.20006 0.90807,0.1085 1.34207,0 1.37243,-0.34311 2.65378,-0.99896 4.02621,-1.34207 0.434,-0.1085 0.91767,0.14147 1.34207,0 1.89798,-0.63266 3.47031,-2.05148 5.36828,-2.68414 0.4244,-0.14147 0.92671,0.16614 1.34207,0 1.85755,-0.74302 3.51074,-1.94112 5.36829,-2.68414 0.41536,-0.16615 0.94194,0.20006 1.34207,0 1.44268,-0.72135 2.52861,-2.0851 4.02621,-2.68415 9.49512,-3.79804 -4.61262,4.64648 5.36828,-1.34207 1.34207,-0.89471 2.68415,-1.78942 4.02622,-2.68414 0.44735,0 0.94194,0.20007 1.34207,0 0.56586,-0.28293 0.7283,-1.18863 1.34207,-1.34207 1.302,-0.3255 2.75301,0.4244 4.02621,0 0.4244,-0.14147 -0.31633,-1.02574 0,-1.34207 0.31633,-0.31633 0.89471,0 1.34207,0 0.44736,0 0.91767,-0.14147 1.34207,0 0.94899,0.31633 1.71369,1.09946 2.68414,1.34207 0.868,0.217 1.83534,-0.28293 2.68414,0 2.92372,-0.50163 0.44736,2.23679 1.34208,2.68414 0.80025,0.40013 1.88388,-0.40013 2.68414,0 0.40013,0.20007 -0.31633,1.02574 0,1.34207 0.31633,0.31633 0.91767,-0.14146 1.34207,0 0.94899,0.31633 1.97681,0.63474 2.68414,1.34207 0.31633,0.31633 -0.31633,1.02575 0,1.34208 1.33852,1.33852 6.7139,2.68768 8.05242,4.02621 5.0348,5.03479 0.84911,2.47421 4.02622,6.71035 0.75919,1.01225 1.92495,1.67189 2.68414,2.68414 1.20037,1.6005 3.39729,7.21386 4.02621,8.05243 0.26841,0.35788 1.14201,-0.40013 1.34207,0 0.40013,0.80025 -0.217,1.81614 0,2.68414 0.6663,2.6652 3.35991,5.38722 4.02621,8.05242 0.217,0.868 0,1.78943 0,2.68415 0,0.44735 -0.20006,0.94194 0,1.34207 0.72134,1.44268 1.9628,2.58353 2.68414,4.02621 0.2986,0.59719 -0.20461,4.75444 0,5.36828 0.40013,1.20039 2.28402,1.48376 2.68415,2.68414 0.41346,1.24041 -0.4173,5.45848 0,6.71036 -1.94561,6.58427 1.90151,1.11889 2.68414,2.68414 0.60019,1.20038 0,2.68414 0,4.02621 0,3.1315 0,6.263 0,9.3945 0,0.89471 -0.40013,1.88388 0,2.68414 0.56586,1.13173 1.98227,1.63133 2.68414,2.68414 0.45403,0.68105 -0.43649,5.83737 0,6.71035 0.56587,1.13174 1.98227,1.63134 2.68414,2.68414 0.24815,0.37223 0,0.89472 0,1.34208 0,0.44735 0,0.89471 0,1.34207 0,3.13149 0,6.26299 0,9.39449 0,0.71695 0.19205,6.32625 0,6.71036 -1.4837,2.96739 -0.83295,0.41647 -2.68414,1.34207 -0.56587,0.28293 -0.7762,1.05913 -1.34207,1.34207 -0.78629,0.39314 -5.72139,-0.24725 -6.71036,0 -0.97045,0.24261 -1.71368,1.09945 -2.68414,1.34207 -1.19818,0.29954 -5.15687,0 -6.71035,0 -0.44736,0 -0.90807,-0.1085 -1.34207,0 -1.37243,0.34311 -2.65379,0.99896 -4.02621,1.34207 -0.91334,0.22833 -3.29226,-0.36698 -4.02622,0 -0.56586,0.28293 -0.7762,1.05914 -1.34207,1.34207 -0.73854,0.36927 -7.0032,-0.34974 -8.05242,0 -0.60019,0.20006 -0.77621,1.05914 -1.34207,1.34207 -0.40844,0.20422 -3.4218,0 -4.02621,0 -3.1315,0 -6.263,0 -9.3945,0 -0.89471,0 -1.81614,-0.217 -2.68414,0 -0.97046,0.24261 -1.73516,1.02574 -2.68414,1.34207 -0.4244,0.14147 -0.96985,-0.24815 -1.34207,0 -1.05281,0.70187 -1.63134,1.98227 -2.68415,2.68414 -0.37222,0.24815 -0.89471,0 -1.34207,0 -0.89471,0 -1.88388,-0.40013 -2.68414,0 -6.10949,6.10949 0.55591,0.70942 -5.36828,2.68414 -1.54162,0.51388 -1.86202,3.2041 -2.68414,4.02622 -0.31633,0.31633 -1.02574,-0.31633 -1.34207,0 -0.70734,0.70733 -0.63474,1.9768 -1.34207,2.68414 -3.25963,3.25962 -1.97073,-0.39909 -4.02622,2.68414 -0.55487,0.83232 -0.63473,1.97681 -1.34207,2.68414 -0.70733,0.70733 -2.12926,0.50976 -2.68414,1.34207 -0.4963,0.74445 0,1.78943 0,2.68414 -0.89471,1.34207 -1.67653,2.7667 -2.68414,4.02622 3.31171,4.06309 -3.65052,2.30844 -4.02621,2.68414 -0.70734,0.70733 -0.63474,1.97681 -1.34207,2.68414 -0.31633,0.31633 -0.96985,-0.24815 -1.34207,0 -1.05281,0.70187 -1.67189,1.92495 -2.68415,2.68414 -5.4239,4.06793 -0.6375,0.2125 -4.02621,1.34207 -0.94899,0.31633 -1.78943,0.89472 -2.68414,1.34207 -0.89471,0.44736 -1.85182,0.78719 -2.68414,1.34207 -0.5264,0.35094 -0.75466,1.10711 -1.34207,1.34207 -1.71258,0.68503 -3.64123,0.69443 -5.36828,1.34207 -2.80989,1.05371 -5.20547,3.07723 -8.05243,4.02622 -0.4244,0.14146 -0.91767,-0.14147 -1.34207,0 -0.94899,0.31633 -1.70325,1.14589 -2.68414,1.34207 -1.31601,0.2632 -2.72421,-0.3255 -4.02621,0 -0.61377,0.15344 -0.72831,1.18863 -1.34208,1.34207 -1.30199,0.3255 -2.7024,-0.22064 -4.02621,0 -1.39542,0.23257 -2.65378,0.99896 -4.02621,1.34207 -2.68414,0.67103 0,-1.34207 -4.02621,0 -0.60019,0.20006 -0.77621,1.05914 -1.34207,1.34207 -0.40013,0.20006 -0.89472,0 -1.34207,0 -0.89472,0 -1.78943,0 -2.68415,0 -1.78942,0 -3.57885,0 -5.36828,0 -4.02621,0 -8.05242,0 -12.07864,0 -1.78942,0 -3.59684,-0.25306 -5.36828,0 -1.40045,0.20006 -2.63902,1.06463 -4.02621,1.34207 -0.87734,0.17547 -1.83534,-0.28293 -2.68414,0 -0.60019,0.20006 -0.77621,1.05914 -1.34207,1.34207 -0.40013,0.20007 -0.89472,0 -1.34207,0 -2.23679,0 -4.47357,0 -6.71036,0 -0.44735,0 -0.94194,-0.20006 -1.34207,0 -0.56587,0.28293 -0.7762,1.05914 -1.34207,1.34207 -0.40013,0.20007 -0.91767,-0.14146 -1.34207,0 -0.94899,0.31633 -1.71369,1.09946 -2.68414,1.34207 -0.868,0.217 -1.81614,-0.217 -2.68414,0 -0.97046,0.24262 -1.85183,0.7872 -2.68414,1.34207 -0.52641,0.35094 -0.72831,1.18863 -1.34208,1.34207 -1.302,0.3255 -2.68414,0 -4.02621,0 -2.68414,0 -5.36828,0 -8.05242,0 -1.34207,0 -2.73578,-0.36869 -4.02621,0 -1.92367,0.54962 -3.44462,2.13453 -5.36829,2.68415 -1.11839,0.31954 -5.21916,-0.21303 -6.71035,0 -2.25816,0.32259 -4.44689,1.05913 -6.71036,1.34207 -1.3317,0.16646 -2.7024,-0.22064 -4.02621,0 -1.39542,0.23257 -2.65378,0.99896 -4.02621,1.34207 -1.24148,0.31037 -7.02034,0 -8.05242,0 -0.44736,0 -0.91768,-0.14147 -1.34208,0 -0.94898,0.31633 -1.70324,1.14589 -2.68414,1.34207 -2.19334,0.43867 -4.47357,0 -6.71035,0 -0.89471,0 -1.83534,-0.28293 -2.68414,0 -0.60019,0.20006 -0.89472,0.89471 -1.34207,1.34207 -0.89472,0.44736 -1.71369,1.09946 -2.68414,1.34207 -0.868,0.217 -1.78943,0 -2.68415,0 -2.68414,0 -5.36828,0 -8.05242,0 -8.49978,0 -16.99956,0 -25.49935,0 -12.07863,0 -24.15727,0 -36.23591,0 -0.49285,0 -5.31427,0.054 -5.36828,0 -0.31633,-0.31633 0.31633,-1.02574 0,-1.34207 -0.31633,-0.31633 -0.89471,0 -1.34207,0 -0.89471,0 -1.88389,0.40013 -2.68414,0 -0.40013,-0.20006 0.31633,-1.02574 0,-1.34207 -0.31633,-0.31633 -0.90807,0.1085 -1.34207,0 -1.37243,-0.34311 -2.71273,-0.81668 -4.02622,-1.34207 -1.00669,1.11685 -3.3956,-2.36884 -4.02621,-2.68414 -0.53212,-0.26606 -3.75184,0.27436 -4.02621,0 -0.31633,-0.31633 0.31633,-1.02575 0,-1.34207 -0.9117,-0.91171 -2.66906,1.37224 -4.02621,-1.34208 -0.20007,-0.40012 0.40013,-1.142 0,-1.34207 -0.80026,-0.40012 -1.78943,0 -2.68414,0 -0.44736,0 -1.02575,0.31633 -1.34207,0 -2.0255,-2.02549 -3.57886,-4.47357 -5.36829,-6.71035 z"
       id="path3775"
       inkscape:connector-curvature="0"
       transform="matrix(0.54196993,0,0,0.54458029,-77.510122,646.33188)" />
  </g>
</svg>
