<?xml version="1.0" encoding="UTF-8" standalone="no"?>
<!-- Created with Inkscape (http://www.inkscape.org/) -->

<svg
   xmlns:dc="http://purl.org/dc/elements/1.1/"
   xmlns:cc="http://creativecommons.org/ns#"
   xmlns:rdf="http://www.w3.org/1999/02/22-rdf-syntax-ns#"
   xmlns:svg="http://www.w3.org/2000/svg"
   xmlns="http://www.w3.org/2000/svg"
   xmlns:sodipodi="http://sodipodi.sourceforge.net/DTD/sodipodi-0.dtd"
   xmlns:inkscape="http://www.inkscape.org/namespaces/inkscape"
   width="256"
   height="256"
   id="svg3385"
   version="1.1"
   inkscape:version="0.48.2 r9819"
   sodipodi:docname="Cloud3.svg"
   inkscape:export-filename="E:\Proyectos\2dDevelopment\FakeMario\FakeMario-android\assets\data\layers\Layer23.png"
   inkscape:export-xdpi="90"
   inkscape:export-ydpi="90">
  <defs
     id="defs3387">
    <filter
       inkscape:collect="always"
       id="filter3837"
       x="-0.078713827"
       width="1.1574275"
       y="-0.12301508"
       height="1.2460302"
       color-interpolation-filters="sRGB">
      <feGaussianBlur
         inkscape:collect="always"
         stdDeviation="16.527173"
         id="feGaussianBlur3839" />
    </filter>
    <filter
       color-interpolation-filters="sRGB"
       inkscape:collect="always"
       id="filter3827-7"
       x="-0.069977529"
       width="1.139955"
       y="-0.15283434"
       height="1.3056687">
      <feGaussianBlur
         inkscape:collect="always"
         stdDeviation="14.373014"
         id="feGaussianBlur3829-7" />
    </filter>
  </defs>
  <sodipodi:namedview
     id="base"
     pagecolor="#ffffff"
     bordercolor="#666666"
     borderopacity="1.0"
     inkscape:pageopacity="0.0"
     inkscape:pageshadow="2"
     inkscape:zoom="2.8"
     inkscape:cx="136.55932"
     inkscape:cy="137.15729"
     inkscape:document-units="px"
     inkscape:current-layer="layer1"
     showgrid="false"
     inkscape:window-width="1920"
     inkscape:window-height="1018"
     inkscape:window-x="-8"
     inkscape:window-y="-8"
     inkscape:window-maximized="1" />
  <metadata
     id="metadata3390">
    <rdf:RDF>
      <cc:Work
         rdf:about="">
        <dc:format>image/svg+xml</dc:format>
        <dc:type
           rdf:resource="http://purl.org/dc/dcmitype/StillImage" />
        <dc:title></dc:title>
      </cc:Work>
    </rdf:RDF>
  </metadata>
  <g
     inkscape:label="Capa 1"
     inkscape:groupmode="layer"
     id="layer1"
     transform="translate(0,-796.36218)">
    <rect
       style="fill:#4169e1;fill-opacity:1;stroke:none;display:inline"
       id="rect3005"
       width="256.45547"
       height="256.18481"
       x="0.43269372"
       y="796.79376" />
    <path
       style="fill:#ffffff;fill-opacity:1;stroke:none;display:inline;filter:url(#filter3827-7)"
       d="m 3015.025,587.81902 c -0.6553,5.37839 6.2572,1.78648 8.0525,2.68414 0.5658,0.28293 0.8156,0.99113 1.342,1.34207 3.518,2.34533 2.3454,0.50163 6.7104,2.68414 0.5659,0.28293 0.7419,1.14201 1.3421,1.34207 0.8488,0.28293 1.7894,0 2.6841,0 1.3421,0.44736 2.7127,0.81668 4.0262,1.34207 0.9288,0.37151 1.7894,0.89472 2.6842,1.34207 0.8947,0.89472 1.5524,2.11828 2.6841,2.68414 0.8003,0.40013 1.8239,-0.24579 2.6841,0 2.3164,0.66183 4.4249,1.92232 6.7104,2.68415 0.4244,0.14146 0.9034,-0.0877 1.3421,0 1.8087,0.36173 3.5489,1.03883 5.3683,1.34207 0.8825,0.14709 1.8161,-0.217 2.6841,0 2.7449,0.68621 5.3076,1.99792 8.0524,2.68414 0.868,0.217 1.7894,0 2.6842,0 2.2367,0 4.4735,0 6.7103,0 1.7894,0 3.6215,-0.38818 5.3683,0 2.3517,0.5226 4.394,2.02231 6.7104,2.68414 0.8602,0.2458 1.7894,0 2.6841,0 2.6841,0 5.3683,0 8.0524,0 1.7267,0 9.5809,0.23114 10.7366,0 1.2407,-0.24815 1.5524,-2.11828 2.6841,-2.68414 1.2653,-0.63266 2.639,-1.06463 4.0262,-1.34207 3.6532,-0.73063 2.5401,1.43815 6.7104,-1.34207 0.3722,-0.24815 -0.3163,-1.02575 0,-1.34207 0.3163,-0.31633 0.8947,0 1.3421,0 3.5788,0 7.1577,0 10.7365,0 12.526,0 25.052,0 37.578,0 3.5789,0 7.1577,0 10.7366,0 1.342,0 2.6841,0 4.0262,0 1.3421,0 2.753,-0.4244 4.0262,0 1.5302,0.51006 2.5835,1.9628 4.0262,2.68414 1.2653,0.63266 2.6842,0.89471 4.0262,1.34207 13.3533,4.45109 -3.1633,-1.26532 6.7104,2.68414 1.3135,0.52539 2.7127,0.81668 4.0262,1.34207 0.9288,0.37151 1.7137,1.09946 2.6841,1.34207 0.868,0.217 1.7895,0 2.6842,0 1.7894,0 3.5788,0 5.3683,0 0.4473,0 1.0257,-0.31633 1.342,0 0.7074,0.70733 0.4133,2.31263 1.3421,2.68414 1.6614,0.66458 3.6032,-0.29418 5.3683,0 0.9867,0.16445 1.6974,1.17762 2.6841,1.34207 1.7651,0.29418 3.5789,0 5.3683,0 2.6842,0.89472 5.2905,2.07038 8.0524,2.68414 1.3101,0.29114 2.6842,0 4.0262,0 5.8157,0 11.6313,0 17.447,0 13.4207,0 26.8414,0 40.2621,0 5.3683,0 10.7366,0 16.1048,0 0.7018,0 5.0154,0.17645 5.3683,0 0.5659,-0.28293 0.8157,-0.99113 1.3421,-1.34207 0.8323,-0.55487 1.8518,-0.78719 2.6841,-1.34207 1.0528,-0.70187 1.4838,-2.28401 2.6842,-2.68414 0.8488,-0.28293 1.7894,0 2.6841,0 0.8947,0 1.8839,-0.40013 2.6842,0 1.1317,0.56587 1.7894,1.78943 2.6841,2.68414 1.3421,1.34207 2.6841,2.68414 4.0262,4.02622 0.8947,0.89471 1.6545,1.94869 2.6842,2.68414 2.1226,1.51617 4.5733,2.53032 6.7103,4.02621 2.3467,1.64267 4.327,3.77935 6.7104,5.36828 3.4417,2.29448 8.4253,3.70768 12.0786,5.36829 2.732,1.2418 5.3101,2.8074 8.0524,4.02621 1.2928,0.57455 2.7016,0.84535 4.0262,1.34207 2.2557,0.84589 4.4249,1.92232 6.7104,2.68414 0.8488,0.28293 1.7894,0 2.6841,0 3.1315,0 6.263,0 9.3945,0 1.7895,0 3.5789,0 5.3683,0 1.3421,0 2.7102,0.2632 4.0262,0 0.063,-0.0127 5.1828,-2.60993 5.3683,-2.68414 1.6154,-0.64615 5.1367,-1.42519 6.7104,-2.68414 1.482,-1.18566 2.4817,-2.92304 4.0262,-4.02622 1.628,-1.16284 3.7036,-1.57438 5.3683,-2.68414 1.0528,-0.70187 1.7894,-1.78942 2.6841,-2.68414 0.8947,-0.89471 1.9823,-1.63133 2.6841,-2.68414 1.1098,-1.66463 1.5213,-3.74029 2.6842,-5.36828 1.1032,-1.54445 2.9734,-2.447 4.0262,-4.02622 0.7847,-1.17707 0.7848,-2.72592 1.3421,-4.02621 0.7881,-1.83888 1.5743,-3.70365 2.6841,-5.36828 0.7019,-1.05281 2.0331,-1.59914 2.6841,-2.68414 0.7279,-1.21307 0.5199,-2.87505 1.3421,-4.02621 1.4709,-2.05927 3.5789,-3.57886 5.3683,-5.36829 0.4474,-0.44735 1.1071,-0.75466 1.3421,-1.34207 0.685,-1.71257 0.657,-3.65571 1.342,-5.36828 0.235,-0.58741 0.8948,-0.89472 1.3421,-1.34207 0.4474,-0.89472 1.0258,-1.73516 1.3421,-2.68414 0.5833,-1.74985 0.6155,-3.67292 1.3421,-5.36829 0.6353,-1.48255 1.7163,-2.73583 2.6841,-4.02621 0.3796,-0.50613 1.142,-0.74188 1.3421,-1.34207 0.2829,-0.8488 -0.283,-1.83534 0,-2.68414 0.2,-0.60019 1.0591,-0.77621 1.342,-1.34207 0.2001,-0.40013 0,-0.89472 0,-1.34207 0,-0.89472 0,-1.78943 0,-2.68414 0,-0.44736 0.3164,-1.02575 0,-1.34208 -0.3163,-0.31632 -0.9419,0.20007 -1.342,0 -1.1318,-0.56586 -1.5524,-2.11827 -2.6842,-2.68414 -0.4001,-0.20006 -0.8947,0 -1.342,0 -0.8948,0 -1.7895,0 -2.6842,0 -2.6841,0 -5.3683,0 -8.0524,0 -1.3421,0 -2.7242,0.3255 -4.0262,0 -0.6138,-0.15344 -0.8947,-0.89471 -1.3421,-1.34207 -0.8947,-0.89471 -1.7894,-1.78943 -2.6841,-2.68414 -1.3421,-1.34207 -2.3783,-3.08455 -4.0263,-4.02621 -1.6014,-0.91513 -3.7866,-0.39309 -5.3682,-1.34207 -0.8578,-0.51466 -0.5736,-2.04375 -1.3421,-2.68414 -2.0039,-1.66994 -4.7298,-2.32862 -6.7104,-4.02622 -1.2246,-1.0497 -1.7894,-2.68414 -2.6841,-4.02621 -2.2368,-2.23678 -4.2402,-4.73426 -6.7104,-6.71035 -2.0369,-1.62953 -4.6734,-2.39669 -6.7103,-4.02621 -2.4701,-1.9761 -4.3591,-4.59423 -6.7104,-6.71036 -2.1291,-1.91624 -4.5354,-3.5041 -6.7103,-5.36828 -0.9607,-0.82346 -1.6961,-1.89371 -2.6842,-2.68414 -1.2595,-1.00762 -3.0584,-1.39377 -4.0262,-2.68415 -0.5368,-0.71577 0.4963,-1.93969 0,-2.68414 -0.5548,-0.83231 -1.9768,-0.63473 -2.6841,-1.34207 -0.3163,-0.31633 -0.3163,-1.02574 0,-1.34207 0.3163,-0.31633 0.8947,0 1.3421,0 0.6044,0 3.6177,-0.20422 4.0262,0 0.5658,0.28294 0.8947,0.89472 1.342,1.34207 0.4474,0.44736 1.0592,0.77621 1.3421,1.34207 0.2001,0.40013 0.4474,1.34207 0,1.34207 -0.4473,0 0,-0.89471 0,-1.34207 0,-0.89471 -0.2829,-1.83534 0,-2.68414 1.6584,-4.9752 1.3421,1.63592 1.3421,-2.68414 0,-11.18392 0,-22.36785 0,-33.55177 0,-4.92094 0,-9.84186 0,-14.76279 0,-0.89471 0,-1.78943 0,-2.68414 0,-0.44736 0.3163,-1.02574 0,-1.34207 -0.7073,-0.70733 -1.8518,-0.78719 -2.6842,-1.34207 -0.5264,-0.35094 -0.7762,-1.05914 -1.342,-1.34207 -0.4002,-0.20007 -0.8947,0 -1.3421,0 -0.4474,0 -0.8947,0 -1.3421,0 -2.2368,0 -4.4735,0 -6.7103,0 -7.6051,0 -15.2102,0 -22.8152,0 -3.1315,0 -6.263,0 -9.3945,0 -1.3421,0 -2.7102,0.2632 -4.0262,0 -3.1936,-0.63871 -6.201,-2.04543 -9.3945,-2.68414 -1.316,-0.2632 -2.7024,0.22063 -4.0262,0 -1.3955,-0.23257 -2.6391,-1.06463 -4.0263,-1.34207 -0.8773,-0.17547 -1.8161,0.217 -2.6841,0 -0.9704,-0.24262 -1.7032,-1.1459 -2.6841,-1.34207 -1.316,-0.26321 -2.7242,0.3255 -4.0262,0 -0.6138,-0.15345 -0.7419,-1.14201 -1.3421,-1.34208 -0.8488,-0.28293 -1.8839,0.40013 -2.6842,0 -1.1317,-0.56586 -1.6313,-1.98227 -2.6841,-2.68414 -0.3722,-0.24815 -0.8947,0 -1.3421,0 -0.8947,0 -1.7894,0 -2.6841,0 -3.5789,0 -7.1577,0 -10.7366,0 -0.6044,0 -3.6178,0.20422 -4.0262,0 -2.0555,-1.02774 -1.0495,-2.39159 -2.6841,-4.02621 -0.3164,-0.31633 -1.0258,0.31633 -1.3421,0 -0.086,-0.086 -2.5175,-5.11829 -2.6841,-5.36828 -0.7721,-1.15808 -2.978,-2.97794 -4.0263,-4.02621 -0.4473,-0.44736 -0.8947,-0.89472 -1.342,-1.34208 -0.4474,-0.44735 -0.7762,-1.05913 -1.3421,-1.34207 -0.4001,-0.20006 -0.8947,0 -1.3421,0 -0.8947,-0.44735 -1.8518,-0.78719 -2.6841,-1.34207 -0.8817,-0.5878 -3.2998,-3.78408 -4.0262,-4.02621 -0.8488,-0.28293 -1.8068,0.17547 -2.6842,0 -1.3872,-0.27744 -2.6538,-0.99896 -4.0262,-1.34207 -0.868,-0.217 -1.7894,0 -2.6841,0 -2.2368,0 -4.4736,0 -6.7104,0 -3.1315,0 -6.263,0 -9.3945,0 -2.2368,0 -4.4872,-0.24701 -6.7103,0 -1.8332,0.20369 -3.5423,1.08122 -5.3683,1.34207 -2.6572,0.3796 -5.4048,-0.44127 -8.0524,0 -1.3955,0.23257 -2.639,1.06463 -4.0262,1.34207 -0.8774,0.17547 -1.8839,-0.40013 -2.6842,0 -1.1317,0.56587 -1.6313,1.98227 -2.6841,2.68414 -0.5071,0.33802 -4.8613,-0.33801 -5.3683,0 -0.8323,0.55488 -0.4474,2.23679 -1.3421,2.68414 -1.6005,0.80026 -3.5788,0 -5.3683,0 -0.4473,0 -1.0257,-0.31632 -1.342,0 -0.6327,0.63266 0.4963,1.9397 0,2.68415 3.3117,4.06309 -3.6506,2.30844 -4.0262,2.68414 -0.7074,0.70733 -0.6348,1.97681 -1.3421,2.68414 -0.3163,0.31633 -0.942,-0.20006 -1.3421,0 -0.5659,0.28293 -0.8947,0.89471 -1.3421,1.34207 -0.4473,0.44736 -1.0591,0.7762 -1.342,1.34207 -0.2001,0.40013 0.2,0.94194 0,1.34207 -0.283,0.56587 -0.9912,0.81567 -1.3421,1.34207 -0.5549,0.83232 -0.6347,1.97681 -1.3421,2.68414 -0.3163,0.31633 -1.0257,-0.31633 -1.342,0 -0.6711,0.67104 0.671,3.35518 0,4.02622 -0.7074,0.70733 -1.9769,0.63473 -2.6842,1.34207 -0.3163,0.31633 0.2001,0.94194 0,1.34207 -0.2829,0.56586 -0.8947,0.89471 -1.3421,1.34207 -0.4473,0.44736 -0.7762,1.05914 -1.342,1.34207 -0.4002,0.20006 -1.0258,-0.31633 -1.3421,0 -0.3163,0.31633 0,0.89471 0,1.34207 0,0.89471 0.4001,1.88389 0,2.68414 -0.2001,0.40013 -0.8947,0 -1.3421,0 0,0.89472 0.283,1.83534 0,2.68414 -0.4001,1.20039 -2.1182,1.55241 -2.6841,2.68414 -0.2001,0.40013 0.3163,1.02575 0,1.34208 -0.7073,0.70733 -1.8518,0.78719 -2.6842,1.34207 -1.5485,1.03236 -2.4776,2.99385 -4.0262,4.02621 -0.3722,0.24815 -1.0257,-0.31633 -1.342,0 -5.4429,5.44285 5.9647,0.29824 -6.7104,5.36829 -0.602,0.2408 -3.2678,0 -4.0262,0 -3.5789,0 -7.1577,0 -10.7366,0 -4.0262,0 -8.0524,0 -12.0786,0 -1.3421,0 -2.753,0.4244 -4.0262,0 -9.2746,-3.09153 1.0747,-2.50503 -8.0524,-4.02622 -1.3239,-0.22064 -2.6842,0 -4.0263,0 -0.8947,0 -1.8353,0.28293 -2.6841,0 -0.6002,-0.20006 -0.7762,-1.05914 -1.3421,-1.34207 -0.4001,-0.20007 -0.8947,0 -1.342,0 -1.3957,0 -6.9968,0.26392 -8.0525,0 -0.9704,-0.24261 -1.7032,-1.14589 -2.6841,-1.34207 -1.316,-0.2632 -2.6841,0 -4.0262,0 -0.4474,0 -0.942,0.20006 -1.3421,0 -0.5659,-0.28294 -0.7762,-1.05914 -1.3421,-1.34207 -0.4001,-0.20007 -0.8947,0 -1.342,0 -0.8947,0 -1.7895,0 -2.6842,0 -2.6841,0 -5.3683,0 -8.0524,0 -0.7018,0 -5.0154,-0.17645 -5.3683,0 -2.88,1.44002 -0.062,1.4656 -1.342,4.02621 -0.2001,0.40013 -1.0258,-0.31633 -1.3421,0 -0.3163,0.31633 0,0.89471 0,1.34207 0,0.89472 0.4963,1.9397 0,2.68415 -0.5549,0.83232 -1.9768,0.63474 -2.6842,1.34207 -0.3163,0.31633 0,0.89472 0,1.34207 -0.4473,0.89472 -0.5097,2.12927 -1.342,2.68414 -0.7445,0.4963 -1.7895,0 -2.6842,0 -3.1315,0 -6.263,0 -9.3945,0 -7.605,0 -15.2101,0 -22.8152,0 -1.3702,0 -8.7425,-0.21733 -9.3945,0 -0.6002,0.20007 -0.7762,1.05914 -1.342,1.34208 -0.4002,0.20006 -0.942,-0.20007 -1.3421,0 -1.3206,0.66031 -4.0477,4.70796 -5.3683,5.36828 -0.8002,0.40013 -2.0515,-0.63266 -2.6841,0 -0.7074,0.70733 -0.5418,2.08395 -1.3421,2.68414 -1.1317,0.8488 -2.7127,0.81668 -4.0262,1.34207 -0.9288,0.37151 -1.7137,1.09946 -2.6842,1.34207 -0.868,0.217 -1.9397,-0.4963 -2.6841,0 -0.8323,0.55488 -0.5098,2.12927 -1.3421,2.68414 -0.9291,0.61942 -3.0971,-0.61941 -4.0262,0 -1.0528,0.70187 -1.6313,1.98227 -2.6841,2.68414 -0.3722,0.24815 -0.8947,0 -1.3421,0 -0.8947,0.44736 -1.9768,0.63474 -2.6841,1.34208 -0.3164,0.31632 0.3163,1.02574 0,1.34207 -0.3164,0.31633 -0.942,-0.20007 -1.3421,0 -0.8729,0.43644 -4.853,4.93884 -5.3683,5.36828 -1.7183,1.43195 -3.5072,2.78547 -5.3683,4.02621 -0.8323,0.55488 -1.9768,0.63474 -2.6841,1.34207 -0.3163,0.31633 0.3163,1.02574 0,1.34207 -0.7073,0.70734 -1.9768,0.63474 -2.6842,1.34207 -0.4259,0.42596 -3.7705,7.28547 -4.0262,8.05243 -0.1414,0.4244 0.1415,0.91767 0,1.34207 -0.3163,0.94899 -1.0257,1.73515 -1.342,2.68414 -0.292,0.87592 0,6.44783 0,8.05243 0,1.34207 -0.6002,2.82582 0,4.02621 0.5658,1.13173 2.1182,1.55241 2.6841,2.68414 0.4001,0.80026 -0.217,1.81614 0,2.68414 0.2426,0.97045 0.8947,1.78943 1.3421,2.68414 0.4473,0.89472 0.7419,1.88389 1.342,2.68414 1.1388,1.51838 2.6842,2.68415 4.0263,4.02622 0.8947,0.89471 1.7894,1.78942 2.6841,2.68414 0.4474,0.44736 0.8157,0.99113 1.3421,1.34207 0.8323,0.55488 1.9768,0.63474 2.6841,1.34207 0.3163,0.31633 -0.2481,0.96985 0,1.34207 0.7019,1.05281 2.1183,1.55241 2.6842,2.68414 0.4001,0.80026 0,1.78943 0,2.68414 0,0.44736 -0.3164,1.02575 0,1.34207 0.3163,0.31633 1.0257,-0.31632 1.342,0 0.6327,0.63266 -0.4001,1.88389 0,2.68415 0.283,0.56586 1.0592,0.7762 1.3421,1.34207 0.2001,0.40012 0,0.89471 0,1.34207 0,0.44735 0,0.89471 0,1.34207 0,2.23678 0,4.47357 0,6.71035 0,0.89472 -0.6327,2.05149 0,2.68414 1.8445,1.8445 4.4736,2.68415 6.7103,4.02622 z"
       id="path3825-9"
       inkscape:connector-curvature="0"
       transform="matrix(0.45133656,0,0,0.67210351,-1328.4726,555.14772)" />
  </g>
</svg>
