<?xml version="1.0" encoding="UTF-8" standalone="no"?>
<!-- Created with Inkscape (http://www.inkscape.org/) -->

<svg
   xmlns:dc="http://purl.org/dc/elements/1.1/"
   xmlns:cc="http://creativecommons.org/ns#"
   xmlns:rdf="http://www.w3.org/1999/02/22-rdf-syntax-ns#"
   xmlns:svg="http://www.w3.org/2000/svg"
   xmlns="http://www.w3.org/2000/svg"
   xmlns:sodipodi="http://sodipodi.sourceforge.net/DTD/sodipodi-0.dtd"
   xmlns:inkscape="http://www.inkscape.org/namespaces/inkscape"
   width="256"
   height="256"
   id="svg3385"
   version="1.1"
   inkscape:version="0.48.2 r9819"
   sodipodi:docname="Cloud4.svg"
   inkscape:export-filename="E:\Proyectos\2dDevelopment\FakeMario\FakeMario-android\assets\data\layers\Layer24.png"
   inkscape:export-xdpi="90"
   inkscape:export-ydpi="90">
  <defs
     id="defs3387">
    <filter
       inkscape:collect="always"
       id="filter3837"
       x="-0.078713827"
       width="1.1574275"
       y="-0.12301508"
       height="1.2460302"
       color-interpolation-filters="sRGB">
      <feGaussianBlur
         inkscape:collect="always"
         stdDeviation="16.527173"
         id="feGaussianBlur3839" />
    </filter>
    <filter
       color-interpolation-filters="sRGB"
       inkscape:collect="always"
       id="filter3827-7"
       x="-0.069977529"
       width="1.139955"
       y="-0.15283434"
       height="1.3056687">
      <feGaussianBlur
         inkscape:collect="always"
         stdDeviation="14.373014"
         id="feGaussianBlur3829-7" />
    </filter>
    <filter
       id="filter6287"
       inkscape:collect="always"
       color-interpolation-filters="sRGB">
      <feGaussianBlur
         id="feGaussianBlur6289"
         stdDeviation="4.0395568"
         inkscape:collect="always" />
    </filter>
    <filter
       id="filter6275"
       inkscape:collect="always"
       color-interpolation-filters="sRGB">
      <feGaussianBlur
         id="feGaussianBlur6277"
         stdDeviation="2.3805537"
         inkscape:collect="always" />
    </filter>
    <filter
       id="filter6251"
       inkscape:collect="always"
       color-interpolation-filters="sRGB">
      <feGaussianBlur
         id="feGaussianBlur6253"
         stdDeviation="2.4059922"
         inkscape:collect="always" />
    </filter>
    <filter
       id="filter6263"
       inkscape:collect="always"
       color-interpolation-filters="sRGB">
      <feGaussianBlur
         id="feGaussianBlur6265"
         stdDeviation="3.3545394"
         inkscape:collect="always" />
    </filter>
    <filter
       id="filter6271"
       inkscape:collect="always"
       color-interpolation-filters="sRGB">
      <feGaussianBlur
         id="feGaussianBlur6273"
         stdDeviation="1.6149656"
         inkscape:collect="always" />
    </filter>
  </defs>
  <sodipodi:namedview
     id="base"
     pagecolor="#ffffff"
     bordercolor="#666666"
     borderopacity="1.0"
     inkscape:pageopacity="0.0"
     inkscape:pageshadow="2"
     inkscape:zoom="2.8"
     inkscape:cx="136.55932"
     inkscape:cy="142.01593"
     inkscape:document-units="px"
     inkscape:current-layer="layer1"
     showgrid="false"
     inkscape:window-width="1920"
     inkscape:window-height="1018"
     inkscape:window-x="-8"
     inkscape:window-y="-8"
     inkscape:window-maximized="1" />
  <metadata
     id="metadata3390">
    <rdf:RDF>
      <cc:Work
         rdf:about="">
        <dc:format>image/svg+xml</dc:format>
        <dc:type
           rdf:resource="http://purl.org/dc/dcmitype/StillImage" />
        <dc:title></dc:title>
      </cc:Work>
    </rdf:RDF>
  </metadata>
  <g
     inkscape:label="Capa 1"
     inkscape:groupmode="layer"
     id="layer1"
     transform="translate(0,-796.36218)">
    <rect
       style="fill:#4169e1;fill-opacity:0;stroke:none;display:inline"
       id="rect3005"
       width="256.45547"
       height="256.18481"
       x="0.43269372"
       y="796.79376" />
    <g
       style="display:inline"
       id="g6291"
       transform="matrix(0.56009163,0,0,0.4754992,-214.56277,607.42369)">
      <g
         id="g5563"
         style="fill:#006400;fill-opacity:1;stroke:none;filter:url(#filter6287)"
         transform="translate(1134.0498,88.57667)">
        <path
           inkscape:connector-curvature="0"
           id="path5167"
           d="m -641.50983,476.43513 2.57639,-1.59722 2.13239,-2.15449 2.58359,-1.54946 2.69631,-1.34374 -0.22564,-3.07016 1.03933,-2.89769 1.34194,-2.72958 0.53086,-2.99493 0.1555,-2.93753 -0.0368,-2.94141 1.54402,-2.5165 1.97615,-2.19353 1.58338,-2.4223 2.23247,-1.84139 1.09842,-2.65136 0.6676,-2.79115 -1.21478,-2.87521 -2.67372,-1.61049 0.62857,-3.12126 -1.64142,-2.7282 -1.15652,-2.74627 -1.73715,-2.42112 -0.0128,-2.96174 0.10128,-2.96004 1.12759,-2.84673 1.88243,-2.41491 1.19296,-2.78824 0.99591,-2.86454 -0.67784,-2.98977 -1.41423,-2.71995 -0.9178,-2.9449 0.11294,-3.08253 0.89869,-2.72932 2.18934,-1.86108 2.62236,-1.0405 2.01866,-1.9709 2.60984,-1.40569 1.36383,-2.63197 0.48442,-2.79114 0.57198,-2.77453 -0.26869,-3.08402 -1.82656,-2.49942 0.16167,-3.02344 1.18539,-2.78606 2.77404,-1.29018 2.22554,-2.09924 0.0792,-3.14532 1.7599,-2.60807 1.62656,-2.26139 1.57411,-2.29821 2.57197,-1.09549 2.34891,-1.51586 1.29857,-2.37932 1.42043,-2.30866 2.33108,-1.70809 0.65442,-2.81483 1.09223,-2.61488 2.00927,-1.99836 -0.24788,-2.79746 0.55571,-2.75289 0.97055,-2.51912 0.51261,-2.6505 1.48273,-2.27274 0.82477,-2.58526 0.0208,-0.009 0.0218,-0.007 0.0215,-0.008 0.0206,-0.01 0.0181,-0.0167 0.0241,-0.005 0.0135,-0.0196 0.0112,-0.021 0.0168,-0.0186 0.008,-0.0238 0.0249,-0.004 0.0203,-0.015 0.0238,0.005 0.0234,-0.007 0.0216,-0.01 0.0217,-0.009 0.0216,0.0111 0.023,0.008 0.0158,0.0195 0.0236,0.009 0.0231,0.0123 0.0256,-0.006 0.0234,-0.008 0.0239,-0.006 0.0234,0.009 0.0244,0.006 0.0216,-0.0129 0.0239,-0.008 0.0244,-0.007 0.025,0.003 0.0121,-0.0235 0.0245,-0.01 0.0221,0.009 0.023,-0.006 0.0227,-0.001 0.0222,0.005 0.0214,0.01 0.0233,-0.004 0.0221,0.005 0.0226,10e-4 0.0104,0.0214 0.0122,0.0205 0.0205,0.0122 0.0197,0.0134 0.0206,0.0138 0.0247,-0.002 0.0203,0.0116 0.0193,0.0131 0.0214,0.007 0.0225,0.002 0.0164,0.0161 0.0216,0.008 0.0215,0.0103 0.02,0.0129 0.0215,-0.012 0.0246,4.3e-4 0.0225,-0.006 0.0223,0.007 0.0227,0.003 0.0191,0.0127 0.0211,-0.01 0.0228,0.004 0.0226,-0.005 0.0216,0.008 1.40835,-0.0953 1.40611,0.12394 1.20972,0.79082 1.43496,0.17234 1.46202,0.46511 1.09256,1.0771 1.43081,-0.44355 1.48688,-0.18206 0.91462,1.22453 1.45751,0.46011 0.3296,1.42726 0.65272,1.31136 0.5225,1.36659 0.59927,1.3347 1.08532,1.03686 1.43018,0.45564 1.50362,0.008 1.26234,0.81696 1.24882,-0.73202 1.34694,-0.53025 1.36752,-0.35213 1.40491,0.14259 1.31286,0.47401 1.20681,0.70136 1.29084,-0.81166 1.52457,0.0274 1.5046,-0.10632 1.37084,0.62922 0.79594,-1.24425 1.31809,-0.66658 0.79803,-1.21377 1.20112,-0.81694 1.32585,0.0692 1.2755,0.36847 1.26757,-0.4102 1.3317,-0.0396 1.18567,0.7313 1.37308,-0.23505 1.22577,0.44323 1.24125,0.39777 0.66691,-1.18663 0.82444,-1.08312 1.38123,-0.30785 0.99618,-1.00509 1.34794,-0.31552 1.37676,0.14508 1.04169,-0.89837 1.23031,-0.61525 0.89036,-0.97928 1.13968,-0.67296 1.28336,-0.45079 1.3291,0.28934 1.03792,-0.84099 1.33586,0.007 1.11031,-0.60875 0.94485,-0.84299 1.3959,0.17353 1.36468,-0.34106 0.83161,-1.18565 1.35753,-0.50447 1.05882,0.91777 1.14645,0.80565 1.39618,-0.52174 1.40259,0.50424 2.86996,2.19599 2.58704,2.52314 1.69266,3.33083 3.13837,2.02736 3.78297,0.38237 3.66143,1.02519 2.3871,2.954 2.7853,2.58194 -0.79044,3.61634 -0.0168,3.70168 -0.53628,3.90884 2.22709,3.25679 1.40143,3.44595 0.41972,3.69627 2.6078,2.67805 1.57913,3.38805 3.1557,1.38907 3.09289,1.52383 2.90861,2.30291 3.69568,-0.32476 3.03174,1.68438 2.49241,2.41175 3.15084,1.5642 2.22506,2.72464 3.10152,1.86053 2.5919,2.52251 3.62976,0.13693 3.43166,1.19061 3.52401,0.69001 3.52394,0.69038 3.20977,-1.85446 3.70608,-0.082 3.71294,0.75075 2.53272,2.81689 0.17821,3.84993 2.7151,2.7353 -0.68328,3.5868 -0.84921,3.55117 1.24828,3.48467 2.31874,2.88522 2.71871,2.12334 1.47459,3.11858 2.06908,2.88949 -0.17227,3.54972 -1.27984,3.40056 1.34803,3.3741 2.48753,2.52088 0.65727,3.48003 1.88664,2.93272 2.17727,2.72392 1.85894,2.94509 1.80507,2.97841 1.25766,3.24672 1.41402,3.18173 2.49566,2.69888 0.33657,3.66047 3.49462,1.86639 1.51965,3.65874 3.83805,-1.0665 3.59485,1.71611 2.79407,2.23897 3.37828,1.1862 3.68621,-0.76877 3.29319,1.82592"
           style="fill:#006400;fill-opacity:1;stroke:none" />
        <path
           style="fill:#006400;fill-opacity:1;stroke:none"
           d="m -374.43708,450.57151 -2.57639,1.59722 -2.1324,2.15448 -2.58358,1.54947 -2.69631,1.34373 0.22564,3.07017 -1.03933,2.89769 -1.34194,2.72958 -0.53087,2.99492 -0.1555,2.93753 0.0368,2.94141 -1.54402,2.51651 -1.97615,2.19353 -1.58339,2.42229 -2.23247,1.84139 -1.09841,2.65136 -0.6676,2.79115 1.21477,2.87521 2.67373,1.6105 -0.62857,3.12125 1.64142,2.72821 1.15652,2.74626 1.73715,2.42112 0.0128,2.96175 -0.10127,2.96003 -1.12759,2.84673 -1.88243,2.41491 -1.19296,2.78824 -0.99591,2.86454 0.67784,2.98977 1.41423,2.71995 0.9178,2.9449 -0.11295,3.08254 -0.89868,2.72932 -2.18934,1.86107 -2.62236,1.04051 -2.01866,1.9709 -2.60985,1.40569 -1.36382,2.63196 -0.48442,2.79115 -0.57199,2.77452 0.2687,3.08403 1.82656,2.49942 -0.16167,3.02343 -1.18539,2.78607 -2.77404,1.29018 -2.22554,2.09924 -0.0792,3.14531 -1.7599,2.60808 -1.62656,2.26139 -1.57411,2.29821 -2.57198,1.09549 -2.34891,1.51585 -1.29856,2.37933 -1.42043,2.30865 -2.33108,1.7081 -0.65442,2.81483 -1.09223,2.61488 -2.00927,1.99835 0.24788,2.79747 -0.55571,2.75289 -0.97055,2.51912 -0.51262,2.6505 -1.48273,2.27273 -0.82476,2.58527 -0.0208,0.009 -0.0218,0.007 -0.0215,0.008 -0.0206,0.01 -0.0181,0.0167 -0.0241,0.005 -0.0135,0.0196 -0.0112,0.021 -0.0168,0.0186 -0.008,0.0238 -0.0249,0.004 -0.0202,0.015 -0.0238,-0.005 -0.0234,0.007 -0.0216,0.01 -0.0217,0.009 -0.0216,-0.0111 -0.023,-0.008 -0.0158,-0.0195 -0.0236,-0.009 -0.0231,-0.0123 -0.0256,0.006 -0.0234,0.008 -0.0239,0.006 -0.0234,-0.009 -0.0244,-0.006 -0.0216,0.0129 -0.0239,0.008 -0.0244,0.007 -0.025,-0.003 -0.0121,0.0235 -0.0245,0.01 -0.0221,-0.009 -0.023,0.006 -0.0227,10e-4 -0.0222,-0.005 -0.0214,-0.01 -0.0233,0.004 -0.0221,-0.005 -0.0226,-10e-4 -0.0104,-0.0215 -0.0122,-0.0204 -0.0205,-0.0122 -0.0197,-0.0134 -0.0206,-0.0138 -0.0247,0.002 -0.0202,-0.0116 -0.0194,-0.0131 -0.0214,-0.007 -0.0226,-0.002 -0.0164,-0.0161 -0.0216,-0.008 -0.0215,-0.0103 -0.02,-0.0129 -0.0215,0.012 -0.0246,-4.3e-4 -0.0225,0.006 -0.0223,-0.007 -0.0227,-0.003 -0.0191,-0.0127 -0.0211,0.01 -0.0228,-0.004 -0.0226,0.005 -0.0216,-0.008 -1.40835,0.0953 -1.40611,-0.12394 -1.20972,-0.79082 -1.43496,-0.17233 -1.46202,-0.46512 -1.09256,-1.07709 -1.43081,0.44354 -1.48688,0.18207 -0.91463,-1.22454 -1.4575,-0.4601 -0.3296,-1.42727 -0.65272,-1.31136 -0.5225,-1.36658 -0.59927,-1.3347 -1.08533,-1.03686 -1.43017,-0.45565 -1.50362,-0.008 -1.26235,-0.81696 -1.24881,0.73203 -1.34694,0.53025 -1.36752,0.35212 -1.40491,-0.14258 -1.31287,-0.47401 -1.20681,-0.70137 -1.29083,0.81167 -1.52457,-0.0274 -1.5046,0.10632 -1.37084,-0.62922 -0.79595,1.24425 -1.31808,0.66659 -0.79803,1.21377 -1.20113,0.81694 -1.32585,-0.0692 -1.27549,-0.36847 -1.26757,0.4102 -1.33171,0.0396 -1.18566,-0.73131 -1.37309,0.23506 -1.22576,-0.44323 -1.24125,-0.39778 -0.66691,1.18663 -0.82444,1.08313 -1.38124,0.30784 -0.99618,1.00509 -1.34794,0.31553 -1.37675,-0.14508 -1.04169,0.89836 -1.23031,0.61525 -0.89036,0.97929 -1.13969,0.67296 -1.28335,0.45078 -1.3291,-0.28934 -1.03793,0.841 -1.33585,-0.007 -1.11031,0.60875 -0.94485,0.84298 -1.39591,-0.17353 -1.36467,0.34107 -0.83162,1.18565 -1.35752,0.50446 -1.05883,-0.91776 -1.14645,-0.80565 -1.39617,0.52174 -1.40259,-0.50424 -2.86996,-2.19599 -2.58704,-2.52314 -1.69266,-3.33084 -3.13837,-2.02736 -3.78297,-0.38237 -3.66143,-1.02518 -2.3871,-2.954 -2.7853,-2.58195 0.79044,-3.61634 0.0168,-3.70168 0.53628,-3.90884 -2.22709,-3.25679 -1.40143,-3.44595 -0.41972,-3.69627 -2.6078,-2.67805 -1.57913,-3.38805 -3.15571,-1.38907 -3.09288,-1.52382 -2.90862,-2.30292 -3.69567,0.32476 -3.03175,-1.68437 -2.4924,-2.41175 -3.15084,-1.56421 -2.22506,-2.72464 -3.10152,-1.86053 -2.5919,-2.5225 -3.62976,-0.13694 -3.43167,-1.19061 -3.524,-0.69001 -3.52394,-0.69038 -3.20978,1.85447 -3.70607,0.082 -3.71294,-0.75075 -2.53272,-2.8169 -0.17821,-3.84992 -2.71511,-2.7353 0.68329,-3.5868 0.84921,-3.55117 -1.24828,-3.48467 -2.31874,-2.88523 -2.71871,-2.12334 -1.47459,-3.11857 -2.06908,-2.88949 0.17227,-3.54973 1.27984,-3.40055 -1.34803,-3.37411 -2.48753,-2.52087 -0.65727,-3.48003 -1.88664,-2.93272 -2.17727,-2.72392 -1.85895,-2.94509 -1.80506,-2.97842 -1.25766,-3.24671 -1.41402,-3.18174 -2.49567,-2.69888 -0.33656,-3.66046 -3.49462,-1.86639 -1.51965,-3.65875 -3.83805,1.06651 -3.59485,-1.71612 -2.79407,-2.23897 -3.37828,-1.18619 -3.68621,0.76877 -3.29319,-1.82592"
           id="path5561"
           inkscape:connector-curvature="0" />
      </g>
      <g
         id="g5163"
         style="fill:#008000;fill-opacity:1;stroke:none;filter:url(#filter6275)"
         transform="translate(1262.8886,-20.131062)">
        <path
           inkscape:connector-curvature="0"
           id="path4779"
           d="m -618.69462,560.98558 1.35879,-1.40407 0.23384,-1.93985 -0.27282,-1.83272 -0.15215,-1.84665 -1.38296,-1.18677 -0.81382,-1.63055 -0.21696,-1.91159 -1.47541,-1.23468 1.09248,-1.44896 0.429,-1.76322 0.93714,-1.54108 1.40112,-1.13579 -0.11397,-1.79339 0.3238,-1.7676 -0.89321,-1.60584 -0.04,-1.8371 0.11468,-1.95796 -1.24886,-1.5123 1.14625,-1.57703 -0.1734,-1.94187 -0.38437,-1.7086 -0.56641,-1.65719 -0.18093,-1.79215 -0.99428,-1.50198 0.94684,-1.5102 0.53953,-1.69886 1.43801,-1.04895 1.16239,-1.34797 1.3043,-1.22016 0.96031,-1.50593 0.47652,-1.70679 0.50377,-1.69894 1.1904,-1.53932 1.90049,-0.41802 1.74111,-0.58846 1.8218,-0.24245 1.53746,-1.09308 0.9145,-1.64993 1.06094,-1.57945 0.14241,-1.89736 0.33398,-1.78184 1.35878,-1.2001 0.96454,-1.4248 0.71147,-1.56659 0.73497,-1.71464 1.53771,-1.05625 0.30127,-1.771 0.0456,-1.79586 -0.14292,-1.92601 1.2213,-1.49611 -0.9935,-1.53018 -0.38074,-1.78423 0.93886,-1.51794 0.6477,-1.66315 0.22836,-1.84948 -0.87306,-1.64635 0.24646,-1.82706 -0.82399,-1.64922 -0.67193,-1.6649 0.005,-1.79537 0.19371,-1.80119 0.73867,-1.65414 1.59647,-1.0627 0.47007,-1.85931 1.64799,0.19305 1.08905,1.25184 1.52109,-0.38261 1.56333,0.12679 1.27426,0.78903 1.41607,0.49096 1.25815,0.79877 1.20922,0.87107 1.57831,0.27827 1.45883,-0.66358 1.53578,-0.0184 1.51824,0.23216 1.10902,-1.0879 1.11524,-1.08154 1.21777,-1.14214 1.66956,-0.006 0.81895,-1.36423 1.51025,-0.50093 1.54608,0.0665 1.36218,-0.73435 1.16618,-0.9687 1.50029,-0.21789 1.30841,-0.76424 1.51504,0.0252 1.58297,0.54058 1.54103,-0.65057 1.46657,-0.55983 1.54497,-0.27806 1.58388,0.41678 1.00948,1.2897 1.20268,1.00604 1.4362,0.62919 1.44685,-0.58439 1.40451,-0.67988 1.55044,0.60767 1.56827,-0.56003 1.02891,-1.26659 1.59127,-0.36162 1.25711,-0.95845 0.72687,-1.4038 1.51691,-0.25314 1.48469,-0.40101 1.4141,0.6711 1.5628,0.0876 1.28804,0.8697 1.21851,0.9647 1.5448,0.16377 1.55071,0.0924 1.23445,-0.9595 1.34169,-0.80273 1.55411,0.14579 1.55873,0.0827 1.26758,0.7791 1.37917,0.55824 1.44704,0.32444 1.43397,0.37805 1.52246,0.29362 1.36904,-0.72791 1.43321,0.35433 1.47535,-0.0549 1.20422,0.96084 0.91244,1.24129 1.59676,-0.28092 1.41459,0.79216 1.37879,1.80624 1.82005,1.36053 1.3299,1.82297 1.57893,1.6121 2.44035,-0.10755 2.05814,1.31566 1.04213,2.24627 2.2371,1.06169 1.38474,2.16356 2.46403,0.72598 0.78858,2.41339 2.08721,1.44565 -0.0409,2.38722 0.29169,2.36967 0.38308,2.36603 -0.15337,2.39193 0.50094,2.26423 -0.46792,2.27128 0.34833,2.24949 0.72984,2.15613 -0.59604,2.20004 -0.66539,2.18006 -1.63938,1.64717 -0.88205,2.15005 1.19449,1.94776 0.50836,2.22759 0.19762,2.2511 -0.10664,2.25723 -1.38023,1.89376 0.0231,2.34326 0.0799,2.25886 -0.71255,2.14501 1.71425,1.1642 1.43213,1.49769 1.53003,1.59886 2.20887,0.13493 1.02818,1.84216 1.79331,1.11118 1.9403,0.95766 0.91934,1.95875 1.39394,1.7483 1.89076,1.19359 1.23138,1.92271 0.1,2.28103 2.27271,0.64315 1.2398,2.01041 2.16876,0.3943 2.19869,0.1575 1.86068,1.06202 1.60274,1.42172 1.60007,1.47406 2.0519,0.72305 2.24647,0.44369 1.9598,1.18433 2.39465,0.10399 1.91129,-1.4464 2.15961,0.3381 2.1813,0.14185 1.2555,1.88928 2.05625,0.95785 0.86683,2.06763 0.92694,2.0414 2.23544,0.48023 1.87708,1.30551"
           style="fill:#008000;fill-opacity:1;stroke:none" />
        <path
           style="fill:#008000;fill-opacity:1;stroke:none"
           d="m -434.86843,553.70922 -1.35879,1.40407 -0.23384,1.93986 0.27282,1.83271 0.15215,1.84665 1.38295,1.18677 0.81383,1.63055 0.21696,1.91159 1.47541,1.23468 -1.09248,1.44897 -0.429,1.76322 -0.93714,1.54107 -1.40112,1.13579 0.11397,1.79339 -0.3238,1.7676 0.89321,1.60584 0.04,1.8371 -0.11468,1.95796 1.24886,1.51231 -1.14625,1.57702 0.1734,1.94187 0.38437,1.70861 0.5664,1.65718 0.18094,1.79215 0.99428,1.50199 -0.94684,1.51019 -0.53953,1.69886 -1.43801,1.04895 -1.16239,1.34797 -1.3043,1.22016 -0.96031,1.50593 -0.47652,1.70679 -0.50377,1.69895 -1.19041,1.53931 -1.90048,0.41803 -1.74111,0.58845 -1.8218,0.24245 -1.53746,1.09308 -0.9145,1.64994 -1.06094,1.57944 -0.14241,1.89736 -0.33398,1.78185 -1.35879,1.20009 -0.96453,1.42481 -0.71148,1.56658 -0.73496,1.71465 -1.53771,1.05624 -0.30127,1.771 -0.0456,1.79586 0.14292,1.92601 -1.2213,1.49612 0.9935,1.53017 0.38074,1.78423 -0.93886,1.51794 -0.6477,1.66315 -0.22836,1.84948 0.87306,1.64636 -0.24646,1.82706 0.82399,1.64922 0.67193,1.66489 -0.005,1.79537 -0.19371,1.80119 -0.73868,1.65415 -1.59646,1.06269 -0.47007,1.85931 -1.64799,-0.19304 -1.08905,-1.25185 -1.52109,0.38261 -1.56333,-0.12679 -1.27426,-0.78903 -1.41607,-0.49096 -1.25815,-0.79877 -1.20922,-0.87107 -1.57831,-0.27827 -1.45883,0.66359 -1.53578,0.0184 -1.51824,-0.23216 -1.10903,1.0879 -1.11523,1.08154 -1.21777,1.14214 -1.66956,0.006 -0.81895,1.36423 -1.51025,0.50093 -1.54608,-0.0664 -1.36218,0.73434 -1.16618,0.9687 -1.50029,0.21789 -1.30841,0.76424 -1.51504,-0.0252 -1.58297,-0.54059 -1.54103,0.65057 -1.46657,0.55984 -1.54497,0.27805 -1.58388,-0.41678 -1.00948,-1.2897 -1.20268,-1.00603 -1.4362,-0.62919 -1.44685,0.58438 -1.40451,0.67989 -1.55044,-0.60768 -1.56827,0.56003 -1.02891,1.26659 -1.59127,0.36162 -1.25711,0.95845 -0.72687,1.4038 -1.51691,0.25314 -1.48469,0.40101 -1.4141,-0.6711 -1.56281,-0.0876 -1.28803,-0.8697 -1.21851,-0.96469 -1.5448,-0.16378 -1.55071,-0.0924 -1.23445,0.95951 -1.34169,0.80272 -1.55411,-0.14579 -1.55873,-0.0827 -1.26758,-0.7791 -1.37917,-0.55824 -1.44704,-0.32443 -1.43397,-0.37805 -1.52246,-0.29362 -1.36904,0.7279 -1.43322,-0.35432 -1.47534,0.0549 -1.20422,-0.96084 -0.91244,-1.2413 -1.59676,0.28092 -1.41459,-0.79216 -1.37879,-1.80624 -1.82005,-1.36053 -1.3299,-1.82297 -1.57893,-1.6121 -2.44035,0.10755 -2.05814,-1.31565 -1.04213,-2.24628 -2.2371,-1.06169 -1.38474,-2.16356 -2.46403,-0.72598 -0.78858,-2.41339 -2.08721,-1.44565 0.0409,-2.38721 -0.29169,-2.36968 -0.38308,-2.36603 0.15337,-2.39193 -0.50094,-2.26422 0.46792,-2.27129 -0.34833,-2.24949 -0.72984,-2.15613 0.59604,-2.20003 0.66539,-2.18007 1.63938,-1.64716 0.88205,-2.15006 -1.19449,-1.94776 -0.50836,-2.22759 -0.19762,-2.25109 0.10664,-2.25724 1.38023,-1.89376 -0.0231,-2.34326 -0.0799,-2.25885 0.71255,-2.14501 -1.71426,-1.16421 -1.43212,-1.49769 -1.53003,-1.59885 -2.20887,-0.13494 -1.02818,-1.84216 -1.79331,-1.11118 -1.9403,-0.95766 -0.91934,-1.95875 -1.39394,-1.74829 -1.89076,-1.1936 -1.23138,-1.9227 -0.1,-2.28103 -2.27271,-0.64316 -1.2398,-2.01041 -2.16876,-0.39429 -2.19869,-0.15751 -1.86068,-1.06202 -1.60274,-1.42171 -1.60008,-1.47407 -2.0519,-0.72305 -2.24646,-0.44369 -1.95981,-1.18433 -2.39464,-0.10399 -1.91129,1.4464 -2.15961,-0.3381 -2.1813,-0.14185 -1.2555,-1.88927 -2.05625,-0.95786 -0.86683,-2.06763 -0.92694,-2.04139 -2.23544,-0.48023 -1.87708,-1.30552"
           id="path5161"
           inkscape:connector-curvature="0" />
      </g>
      <g
         id="g5975"
         style="fill:#228b22;fill-opacity:1;stroke:none;filter:url(#filter6251)"
         transform="translate(1121.9711,123.47051)">
        <path
           inkscape:connector-curvature="0"
           id="path5567"
           d="m -603.93185,536.82831 -1.6613,-0.66989 -0.98557,-1.49577 -0.77791,-1.56787 -0.0537,-1.74943 1.08638,-1.42327 -0.17413,-1.78202 -0.26142,-1.64602 -0.32848,-1.63395 0.90639,-1.50964 -0.20534,-1.74884 0.20028,-1.67275 -0.2932,-1.65899 0.65959,-1.64496 1.57866,-0.80546 0.98681,-1.42034 1.59818,-0.66104 -0.36961,-1.62559 0.68999,-1.51758 -0.95886,-1.30766 -0.28637,-1.59606 -1.23051,-1.00383 -1.42394,-0.70302 -0.76491,-1.38015 -0.75233,-1.38706 -1.19588,-1.04201 -1.19298,-1.04535 -0.33573,-1.55323 -0.14506,-1.58246 -1.32684,-0.7756 -1.43987,-0.53746 -1.13952,-1.05337 -0.74219,-1.36282 -1.17962,-1.02234 -0.26456,-1.5384 -1.28141,-0.77118 -0.91502,-1.18299 -1.06188,-1.07454 -0.3156,-1.47737 -1.00644,-1.10113 -0.39203,-1.43935 -0.43058,-1.46107 -0.17514,-1.51309 -0.85972,-1.253 -0.72786,-1.33391 -1.07349,-1.08636 -1.40375,-0.60169 -0.85274,-1.28317 -1.33921,-0.76172 1.0731,-1.19516 0.67971,-1.45532 -0.11245,-1.61212 0.47436,-1.54484 0.5579,-1.59325 1.44154,-0.87844 0.041,-1.61535 0.60939,-1.49656 0.0974,-1.66619 -0.3994,-1.62056 0.72538,-1.56997 -0.30048,-1.70316 -0.57809,-1.62583 -0.62638,-1.60785 -1.47657,-0.895 -1.40326,-1.00606 2.60127,0.85936 2.67654,-0.58416 2.25755,-1.40458 1.89317,-1.86688 2.83263,-0.0601 2.19282,1.79415 2.12844,-1.75637 2.7302,-0.40133 2.42972,0.86559 2.36158,1.03715 0.9169,2.50085 2.02035,1.73584 2.52707,0.52354 1.81744,1.83222 2.1015,1.38605 2.46796,0.49661 2.46963,-0.85134 2.4619,0.87339 2.45236,0.52446 2.10135,1.36875 2.49358,0.70067 1.92824,1.7294 1.63931,1.98304 0.74902,2.46146 2.33585,-0.70031 2.34087,0.68333 2.46063,-0.27361 2.09928,1.31246 1.58749,2.02513 2.53984,0.41294 2.36662,0.86598 2.42379,-0.68998 2.4525,0.4267 2.35664,-0.80192 2.5848,-0.14719 1.80201,-1.85893 2.42157,0.10798 2.40342,0.31499 2.338,-0.63881 2.27916,-0.82446 2.15708,-1.35993 1.02945,-2.33295 0.79901,-2.4063 1.94552,-1.62593 2.50324,-0.28279 2.40603,-0.74646 2.03867,-1.47021 1.82688,-1.72632 2.57607,-0.55265 2.09978,-1.59137 2.68358,0.21468 2.33631,-1.33767 2.4309,0.91359 2.05049,1.59356 2.50228,0.62247 2.34509,1.07213 2.29178,-1.31147 2.60288,0.44404 1.89338,-1.61482 1.72544,-1.79315 2.24794,-0.85277 1.93594,-1.42566 2.0634,-1.19034 2.04122,-1.22796 0.05,1.77785 0.59924,1.67456 -0.37072,1.72638 -0.71466,1.61465 -1.81649,0.61039 -0.97821,1.64782 -1.05114,1.59293 0.20041,1.89794 -1.49317,1.22572 -1.87433,0.46783 -0.25946,1.92628 -1.14186,1.57292 0.009,1.94445 -1.16328,1.55812 0.62072,1.74039 0.39123,1.80588 -1.75474,0.7406 -0.99342,1.62504 -1.28987,1.32937 -0.64886,1.73492 -1.67091,0.80553 -1.85363,0.0696 -1.35863,1.25201 -1.72031,0.67372 -1.43735,1.19423 -0.67882,1.74107 -0.22353,1.85417 -1.08667,1.51889 -0.0464,1.82325 -0.51522,1.74956 -0.47329,1.85831 0.79786,1.74378 0.86772,1.66509 0.66378,1.75638 0.32076,1.84853 0.15504,1.86974 0.53579,1.9426 -0.33543,1.98702 -0.81673,1.83975 -1.50425,1.33753 -1.2492,1.64577 -0.17621,2.05864 0.8089,1.82103 0.47096,1.93614 -0.65348,1.78767 -1.01232,1.61184 -1.14068,1.53994 -1.56036,1.11259 -1.61851,0.78336 -1.6969,0.59478 -1.91078,0.0258 -1.44526,1.2502 -1.35033,1.21932 -1.67038,0.72107 -1.56627,0.87958 -1.49706,0.9928 -1.68572,0.87338 -1.25914,1.42092 -0.47459,1.81666 -0.8553,1.67151 -1.28761,1.38733 -1.8181,0.52641 -1.60599,1.04793 -0.68459,1.79128"
           style="fill:#228b22;fill-opacity:1;stroke:none" />
        <path
           style="fill:#228b22;fill-opacity:1;stroke:none"
           d="m -532.95614,538.17033 1.6613,0.66989 0.98557,1.49577 0.77791,1.56787 0.0537,1.74943 -1.08639,1.42327 0.17414,1.78202 0.26142,1.64601 0.32848,1.63395 -0.90639,1.50965 0.20534,1.74883 -0.20028,1.67276 0.2932,1.65899 -0.65959,1.64496 -1.57866,0.80546 -0.98681,1.42034 -1.59818,0.66104 0.36961,1.62558 -0.68999,1.51759 0.95886,1.30766 0.28637,1.59606 1.23051,1.00383 1.42394,0.70302 0.76491,1.38015 0.75232,1.38706 1.19589,1.04201 1.19297,1.04535 0.33574,1.55323 0.14505,1.58246 1.32685,0.7756 1.43987,0.53745 1.13952,1.05338 0.74219,1.36282 1.17961,1.02234 0.26456,1.5384 1.28141,0.77118 0.91502,1.18298 1.06189,1.07455 0.31559,1.47737 1.00645,1.10113 0.39203,1.43934 0.43058,1.46107 0.17514,1.5131 0.85972,1.253 0.72786,1.33391 1.07349,1.08635 1.40375,0.6017 0.85274,1.28317 1.33921,0.76172 -1.0731,1.19516 -0.67971,1.45532 0.11245,1.61212 -0.47436,1.54484 -0.5579,1.59325 -1.44154,0.87844 -0.041,1.61535 -0.60939,1.49655 -0.0974,1.6662 0.3994,1.62055 -0.72538,1.56998 0.30047,1.70315 0.5781,1.62584 0.62638,1.60785 1.47657,0.895 1.40326,1.00606 -2.60127,-0.85936 -2.67654,0.58416 -2.25755,1.40458 -1.89317,1.86688 -2.83263,0.0601 -2.19282,-1.79415 -2.12844,1.75637 -2.73021,0.40133 -2.42971,-0.86559 -2.36159,-1.03715 -0.91691,-2.50085 -2.02035,-1.73584 -2.52706,-0.52354 -1.81744,-1.83223 -2.10151,-1.38604 -2.46795,-0.49661 -2.46962,0.85133 -2.46191,-0.87338 -2.45236,-0.52446 -2.10134,-1.36875 -2.4936,-0.70067 -1.92823,-1.7294 -1.63932,-1.98304 -0.74901,-2.46146 -2.33584,0.70031 -2.34087,-0.68333 -2.46063,0.27361 -2.09928,-1.31246 -1.58749,-2.02513 -2.53984,-0.41294 -2.36662,-0.86598 -2.42379,0.68997 -2.4525,-0.4267 -2.35665,0.80193 -2.58479,0.14719 -1.80202,1.85892 -2.42156,-0.10797 -2.40342,-0.31499 -2.33801,0.63881 -2.27917,0.82446 -2.15708,1.35993 -1.02944,2.33295 -0.79901,2.40629 -1.94551,1.62594 -2.50324,0.28279 -2.40604,0.74646 -2.03867,1.47021 -1.82688,1.72632 -2.57607,0.55265 -2.09978,1.59137 -2.68358,-0.21468 -2.33631,1.33767 -2.4309,-0.91359 -2.05049,-1.59356 -2.50229,-0.62247 -2.34509,-1.07213 -2.29177,1.31146 -2.60289,-0.44403 -1.89338,1.61482 -1.72544,1.79315 -2.24793,0.85276 -1.93595,1.42567 -2.06339,1.19033 -2.04122,1.22797 -0.05,-1.77785 -0.59924,-1.67456 0.37072,-1.72638 0.71465,-1.61465 1.8165,-0.61039 0.97821,-1.64782 1.05114,-1.59294 -0.20041,-1.89793 1.49317,-1.22572 1.87432,-0.46783 0.25947,-1.92629 1.14186,-1.57291 -0.009,-1.94445 1.16329,-1.55812 -0.62072,-1.74039 -0.39123,-1.80588 1.75474,-0.7406 0.99341,-1.62504 1.28987,-1.32937 0.64886,-1.73493 1.67091,-0.80552 1.85364,-0.0696 1.35863,-1.25201 1.72031,-0.67373 1.43735,-1.19422 0.67882,-1.74108 0.22353,-1.85416 1.08667,-1.51889 0.0464,-1.82326 0.51521,-1.74955 0.47329,-1.85833 -0.79786,-1.74377 -0.86771,-1.6651 -0.66379,-1.75637 -0.32075,-1.84853 -0.15504,-1.86974 -0.53579,-1.9426 0.33542,-1.98702 0.81674,-1.83975 1.50425,-1.33753 1.2492,-1.64576 0.1762,-2.05864 -0.80889,-1.82103 -0.47096,-1.93615 0.65348,-1.78766 1.01232,-1.61184 1.14067,-1.53995 1.56036,-1.11258 1.61852,-0.78336 1.6969,-0.59479 1.91078,-0.0258 1.44526,-1.2502 1.35033,-1.21932 1.67038,-0.72107 1.56627,-0.87959 1.49706,-0.99279 1.68572,-0.87338 1.25914,-1.42092 0.47458,-1.81666 0.85531,-1.67151 1.28761,-1.38733 1.8181,-0.52641 1.60599,-1.04793 0.68459,-1.79128"
           id="path5973"
           inkscape:connector-curvature="0" />
      </g>
      <path
         inkscape:connector-curvature="0"
         style="fill:#8b4513;fill-opacity:0;stroke:#894627;stroke-width:15.08199978;stroke-linecap:butt;stroke-linejoin:miter;stroke-miterlimit:4;stroke-opacity:1;stroke-dasharray:none"
         d="m 596.89413,937.16732 0,-197.39208 64.32212,-134.82116 76.42995,-59.17862 82.38661,-5.58631 -82.38661,5.58631 20.16747,-79.25008 -20.16747,79.25008 -76.42995,59.17862 3.66769,-81.01308 -3.66769,81.01308 -64.32212,134.82116 -62.86603,-132.70879 11.90468,-80.25787 -11.90468,80.25787 -78.76234,-43.66012 78.76234,43.66012 62.86603,132.70879 0,197.39208"
         id="path4626" />
      <g
         id="g4399"
         transform="translate(979.71166,44.288335)"
         style="fill:#008000;fill-opacity:1;filter:url(#filter6263)">
        <path
           style="fill:#008000;fill-opacity:1;stroke:none"
           d="m -583.80078,531.46002 0.0864,-0.18807 0.0131,-0.20655 0.14811,-0.14217 0.18027,-0.0982 0.10464,-0.18767 -0.018,-0.21411 0.21374,-0.0535 0.12224,-0.1833 -0.11055,-0.19002 -0.17434,-0.13394 -0.0739,-0.21839 0.0889,-0.21276 0.12564,-0.16681 0.0302,-0.20664 0.0114,-0.20248 0.0388,-0.19906 0.0632,-0.19871 -0.038,-0.20501 0.0477,-0.2115 0.17751,-0.1245 0.0872,-0.17772 0.11895,-0.15826 0.18959,-0.0852 0.10013,-0.18214 0.21867,0.021 0.19845,0.0942 0.20314,-0.0748 0.19877,-0.0857 0.0899,-0.19203 0.15911,-0.14017 0.12556,-0.18197 0.21341,-0.0578 -0.051,-0.17578 8e-4,-0.18302 -0.0229,-0.19071 -0.13749,-0.13414 0.0562,-0.1793 -0.0115,-0.18754 -0.10704,-0.15589 -0.0325,-0.1863 -0.0325,-0.18992 -0.14573,-0.12605 -0.0729,-0.16613 -0.0687,-0.1679 -0.0649,-0.17238 -0.0167,-0.18342 -0.0628,-0.18414 0.0719,-0.1808 -0.0223,-0.19436 0.0621,-0.18553 0.17174,-0.10921 0.0599,-0.19452 -0.0139,-0.1855 -0.0608,-0.17582 0.008,-0.185 -0.024,-0.18362 -0.0146,-0.19266 0.09,-0.17096 -0.0911,-0.16777 -0.006,-0.19081 0.0581,-0.17169 0.034,-0.17803 0.0957,-0.15758 0.028,-0.18222 -0.10546,-0.16276 -0.0191,-0.193 0.002,-0.19361 0.088,-0.17247 0.0681,-0.18128 0.15055,-0.12179 -0.0516,-0.1936 0.0921,-0.17792 0.18061,-0.0772 0.10809,-0.16399 0.18465,-0.0659 0.11956,-0.15538 -0.0186,-0.19179 0.0337,-0.18973 0.0947,-0.16744 0.0507,-0.18558 0.0892,-0.16812 0.15972,-0.10347 0.0346,-0.18095 0.0287,-0.18197 0.12074,-0.12985 0.13015,-0.12043 0.1025,-0.15822 0.18014,-0.0556 0.0299,-0.17962 0.0485,-0.17553 0.0885,-0.16028 0.0493,-0.17632 0.12201,-0.13666 0.12693,-0.1321 0.13348,-0.13468 0.1829,-0.05 0.13191,-0.13166 0.12768,-0.13577 0.13344,-0.1464 0.19617,-0.0276 0.14513,-0.12933 0.0976,-0.1681 0.005,-0.19252 0.0362,-0.18915 0.043,-0.18825 0.0342,-0.19004 0.10038,-0.16852 0.15287,-0.12291 0.20245,0.0124 0.16147,-0.12275 0.17399,-0.087 0.12269,-0.15095 0.14912,-0.14421 0.19402,-0.0734 0.19868,-0.0733 0.20672,0.0458 0.20313,-0.003 0.18156,0.0911 0.18951,0.0568 0.17992,0.0822 0.0712,-0.18608 0.13617,-0.14544 0.18244,-0.0721 0.1682,-0.10097 0.13793,-0.13616 0.18391,-0.0611 0.12138,-0.14799 0.16309,-0.10018 0.0895,-0.17994 -0.007,-0.20087 0.0353,-0.19257 0.0722,-0.18197 -0.045,-0.18972 -0.0625,-0.18472 -0.0454,-0.19026 -0.0795,-0.17873 -0.0244,-0.20842 0.0572,-0.20192 0.0435,-0.21175 0.15866,-0.14683 0.20024,-0.0609 0.2045,-0.0446 0.17286,-0.12447 0.11401,-0.17992 -0.0327,-0.17985 0.0286,-0.18053 0.10774,-0.16041 -0.0283,-0.19114 -0.10538,-0.15613 -0.0861,-0.16753 -0.0413,-0.19246 0.0747,-0.18211 -0.15833,-0.1156 -0.10978,-0.16243 -0.0612,-0.18849 0.0274,-0.19627 0.0133,-0.2073 -0.12612,-0.16505 0.0472,-0.19219 0.11336,-0.1622 0.15668,-0.13642 0.20363,-0.0411 0.16522,-0.12878 0.20871,-0.0179 0.16526,-0.13161 0.11626,-0.1764 0.0887,-0.19563 -0.0116,-0.21448 0.18545,0.10364 0.20808,-0.0428 0.15791,-0.12677 0.19285,-0.0617 0.19071,0.0735 0.2016,-0.0336 0.20878,-0.0265 0.14032,-0.15686 0.16547,-0.0996 0.1664,-0.0981 0.14236,-0.14351 0.0368,-0.19876 -0.0469,-0.19572 0.0852,-0.1823 0.0688,-0.17949 0.11945,-0.15058 0.0841,-0.1796 0.0931,-0.17511 0.002,-0.20202 -0.0743,-0.18788 0.18063,-0.0828 0.13536,-0.14544 0.055,-0.18865 0.10112,-0.16849 0.14125,-0.13159 0.11642,-0.15401 -0.0479,-0.19539 0.0699,-0.18863 0.14476,-0.11754 0.098,-0.15865 0.15771,-0.0945 0.16062,-0.0895 0.0261,-0.18055 0.0396,-0.17808 -0.0501,-0.1777 0.008,-0.18445 0.004,-0.19186 0.12119,-0.14881 0.1183,-0.1394 0.0813,-0.16376 -0.11797,-0.14421 -0.0562,-0.17764 0.0368,-0.18515 -0.0559,-0.1803 -0.0141,-0.1876 0.10113,-0.15864 -0.0226,-0.18825 0.10207,-0.15977 -0.0368,-0.17377 -0.0587,-0.16764 0.0379,-0.17327 0.0256,-0.1755 -0.0375,-0.17248 0.0345,-0.17311 -0.0648,-0.16885 0.0417,-0.17598 0.15423,-0.0761 0.13024,-0.11232 0.16012,-0.0652 0.13069,-0.11322 0.11858,-0.13444 0.17328,-0.0459 0.16037,-0.0806 0.0871,-0.15695 0.11082,-0.14045 0.1533,-0.0922 -0.005,-0.18908 0.12503,-0.14194 0.17412,-0.0624 0.10586,-0.15167 0.11091,-0.1441 0.0285,-0.17958 0.16615,-0.076 0.13226,-0.12607 0.0566,-0.18475 0.1661,-0.0987 0.0613,-0.18863 0.15156,-0.12792 0.0298,-0.19687 -0.0835,-0.18078 0.18296,-0.033 0.14365,-0.11802 0.0223,-0.19129 0.14412,-0.12774 0.14938,-0.0867 0.11272,-0.13086 0.0922,-0.1534 0.16448,-0.0705 -0.01,-0.21823 0.0529,-0.21192 0.20756,-0.0981 0.0982,-0.20755 0.18633,-0.0832 0.17628,-0.10276 0.15903,-0.13066 0.1893,-0.0808 0.18077,-0.1327 0.0668,-0.21408 0.0288,-0.21448 -0.0472,-0.2112 0.0115,-0.20619 -0.0467,-0.20117 -0.0704,-0.19262 -0.0999,-0.17912 0.17517,-0.10883 0.20591,-0.0113 0.1955,-0.0812 0.20342,0.0586 0.18796,-0.0907 0.18399,-0.0985 0.14628,-0.15999 0.0412,-0.21284 0.11752,-0.16635 0.0647,-0.19311 0.0156,-0.20159 -0.0176,-0.20143 0.15437,-0.15068 0.21143,-0.0428 0.0673,-0.19671 0.10462,-0.17967 -0.0693,-0.19058 0.0146,-0.20229 -0.18377,-0.104 -0.0734,-0.19798 0.068,-0.19058 -0.0521,-0.19552 0.12371,-0.15855 0.0202,-0.20009 -0.0814,-0.1748 0.0199,-0.1918 -0.16285,-0.11193 -0.0538,-0.19015 0.024,-0.19694 -0.0615,-0.18861 -0.13495,-0.13933 -0.14918,-0.12397 0.0959,-0.16381 0.019,-0.18884 0.042,-0.18171 0.0794,-0.16875 0.0784,-0.18212 0.11412,-0.16214 -0.0526,-0.19079 -0.02,-0.1969 0.002,-0.19369 0.0456,-0.18825 -0.0272,-0.19247 -0.0795,-0.17738 -0.0864,-0.18576 0.0196,-0.20391 -0.10281,-0.17638 -0.17535,-0.10454 0.19253,-0.0699 0.20258,-0.0302 0.1282,-0.15848 0.13501,-0.15273 0.0454,-0.1918 0.0969,-0.17161 0.0405,-0.19109 0.0231,-0.19396 0.0264,-0.17914 0.0323,-0.17815 0.0132,-0.18158 0.051,-0.17475 0.0227,-0.19468 0.14201,-0.13508 0.0571,-0.18008 -0.0256,-0.18718 0.0823,-0.19467 0.19126,-0.0899 0.19824,0.007 0.19556,-0.0332 0.15832,-0.1134 0.17429,-0.0869 0.0897,-0.17317 0.055,-0.1871 0.16041,-0.1232 0.201,-0.0226 0.0854,-0.1851 0.17468,-0.10511 0.18681,0.0425 0.19073,0.0179 0.18514,-0.0831 0.19598,0.0527 -0.17361,-0.11906 -0.0951,-0.18781 -0.0347,-0.20202 0.006,-0.20489 0.0683,-0.18328 0.0913,-0.17297 0.0171,-0.19474 0.0381,-0.19173 0.1212,-0.1544 0.14094,-0.13662 -0.0413,-0.20394 0.0978,-0.18364 0.10671,-0.1605 0.13926,-0.13324 0.1831,-0.0618 0.16065,-0.10739 9.4e-4,-0.21337 -0.12347,-0.17402 0.13085,-0.16718 0.0159,-0.2117 0.0725,-0.19193 0.18041,-0.0977 0.11368,-0.1557 0.0899,-0.17055 0.15044,-0.12807 0.1709,-0.0991 0.14178,-0.14348 0.0665,-0.19042 0.17779,-0.0859 0.1972,-0.0102 0.18872,-0.0646 0.19698,0.0315 0.21134,-0.0331 0.15724,-0.14504 0.21036,0.008 0.18352,0.10317 0.1826,-0.0678 0.14546,-0.12956 0.15487,-0.11701 0.18459,-0.06 0.10629,-0.17106 0.11815,-0.1631 0.15852,-0.12831 0.19114,-0.0711 0.0308,-0.21832 0.17167,-0.13834 -0.0925,-0.19813 0.0588,-0.21061 0.19931,-0.0516 0.19597,0.0631 0.14943,-0.1298 0.16072,-0.11553 0.12195,-0.14695 0.0462,-0.18528 0.0574,-0.18629 0.1527,-0.12117 0.17804,-0.0413 0.1605,-0.0874 0.15463,-0.10958 0.066,-0.17765 0.1179,-0.14312 0.17882,-0.0491 0.15484,-0.10384 0.061,-0.17619 0.15368,-0.13 0.0243,-0.19983 0.006,-0.18742 0.0204,-0.18642 0.12691,-0.13579 0.11183,-0.14847 0.15287,-0.10577 0.16356,-0.0883 0.11691,-0.14461 0.11996,-0.14208 0.12921,-0.13521 0.15505,-0.10459 -0.0592,-0.18791 -0.017,-0.19627 0.075,-0.18152 0.10118,-0.1683 0.008,-0.1998 0.0193,-0.19903 0.0877,-0.17996 0.1064,-0.16953 0.21166,-0.019 0.17959,-0.1136 0.0978,-0.18275 0.12667,-0.16405 -0.0716,-0.18745 -0.12271,-0.15874 -0.12067,-0.1682 -0.01,-0.20679 -2.7e-4,-0.20381 0.0949,-0.18038 0.0125,-0.20384 0.10897,-0.17271 -0.011,-0.17979 0.0503,-0.17297 0.0287,-0.18286 0.12365,-0.13772 -0.0814,-0.16602 0.0153,-0.18425 0.10043,-0.16193 -0.0318,-0.18787 0.0283,-0.19129 0.0222,-0.19211 -0.16439,-0.12396 -0.0456,-0.20078 0.15545,-0.11871 0.0614,-0.1857 -0.003,-0.18899 0.0534,-0.18128 -0.0522,-0.18703 0.0692,-0.18145 0.0207,-0.19572 0.14371,-0.13447 0.11893,-0.1577 0.009,-0.19731 -0.0953,-0.17056 0.003,-0.19538 0.12506,-0.13027 0.13587,-0.11895 0.0823,-0.16894 0.16027,-0.0981 0.15832,-0.10242 0.0884,-0.16659 0.1168,-0.1471 0.036,-0.18435 -0.13469,-0.13612 -0.14079,-0.12981 -0.13502,-0.13635 -0.15239,-0.11663 -0.16522,-0.10834 -0.12932,-0.14937 -0.10948,-0.16499 -0.0546,-0.19035 -0.0591,-0.19232 0.005,-0.20115 -0.038,-0.19806 -0.10357,-0.17305 0.10375,-0.18117 0.13033,-0.16309 0.0713,-0.21204 -0.0924,-0.20373 0.0516,-0.20033 0.13092,-0.16018 0.21107,-0.0431 0.13228,-0.17002 0.11208,-0.16508 0.03,-0.19726 0.0883,-0.17548 0.0376,-0.19282 -0.026,-0.20495 0.006,-0.20651 -0.12017,-0.16885 -0.15447,-0.13816 0.0375,-0.20828 0.1058,-0.18327 -0.0261,-0.21503 -0.13472,-0.16963 -8.3e-4,-0.003 10e-4,-0.003 10e-4,-0.003 0.002,-0.002 0.003,-0.002 0.001,-0.003 7.7e-4,-0.003 7.4e-4,-0.003 -0.002,-0.003 -7.8e-4,-0.003 0.002,-0.003 2.6e-4,-0.003 0.002,-0.003 5e-5,-0.003 -10e-5,-0.003 10e-4,-0.003 -9.2e-4,-0.003 -5.9e-4,-0.003 -9.9e-4,-0.003 -0.003,-0.002 -0.003,-0.002 -0.002,-0.003 -0.002,-0.002 -3.3e-4,-0.003 1.4e-4,-0.003 0.001,-0.003 -6.6e-4,-0.003 -9e-4,-0.003 0.002,-0.003 -4.2e-4,-0.003 10e-4,-0.003 0.002,-0.002 0.003,-10e-4 0.002,-0.003 0.002,-0.003 8.5e-4,-0.003 0.002,-0.003 0.002,-0.003 0.002,-0.003 0.003,-10e-4 0.003,-2.7e-4 0.003,10e-4 0.004,-5.5e-4 0.003,-0.002 0.003,-8.1e-4 0.003,-9.7e-4 10e-4,-0.003 0.003,-0.002 -0.002,-0.003 -7.2e-4,-0.003 -9e-5,-0.003 3.1e-4,-0.003 6e-4,-0.003 -8.1e-4,-0.003 0.001,-0.003 -6.5e-4,-0.003 7.7e-4,-0.003 0.002,-0.003 0.002,-0.003 -3.8e-4,-0.004 0.003,-0.002 0.002,-0.002 0.003,-0.002 0.002,-0.003 -0.003,-10e-4 -0.002,-0.003 -0.002,-0.002 -0.002,-0.002 -0.002,-0.002 -0.002,-0.003 -5.6e-4,-0.003 -0.001,-0.003 -0.003,-0.002 -0.002,-0.003 -8e-4,-0.003 -0.003,-0.002 -10e-4,-0.003 -0.002,-0.002 -10e-4,-0.003 -0.002,-0.002 -7.2e-4,-0.004 10e-4,-0.003 -10e-4,-0.003 -0.002,-0.002 4.6e-4,-0.003 -0.002,-0.003 -9.5e-4,-0.003 -10e-4,-0.003 -0.004,-2.2e-4 -0.003,-0.002 -0.003,-6.9e-4 -0.003,-4.8e-4 -0.002,-0.003 -0.001,-0.003 -0.003,-0.002 -0.003,-0.002 -8.9e-4,-0.003 -10e-4,-0.003 -2.6e-4,-0.003 9e-4,-0.003 0.002,-0.003 0.003,-0.002 -3.6e-4,-0.003 0.002,-0.003 -3.6e-4,-0.003 0.002,-0.003 7e-4,-0.003 5.6e-4,-0.003 -10e-4,-0.003 3e-5,-0.003 -4.3e-4,-0.003 10e-4,-0.003 -0.002,-0.003 -0.002,-0.002 -0.001,-0.003 -3.4e-4,-0.003 -8.6e-4,-0.003 8.4e-4,-0.003 -0.002,-0.003 -10e-4,-0.003 -5.8e-4,-0.003 0.002,-0.003 0.002,-0.002 10e-4,-0.003 1.5e-4,-0.004 -0.002,-0.003 0.002,-0.003 10e-4,-0.003 -0.003,-0.002 -10e-4,-0.003 -9e-5,-0.003 -0.002,-0.003 -0.002,-0.002 -0.003,-0.002 -10e-4,-0.003 -1.3e-4,-0.003 -5.5e-4,-0.003 -0.002,-0.002 -0.002,-0.002 -4e-4,-0.003 -0.002,-0.003 -4e-4,-0.003 -0.002,-0.003 -0.003,-0.002 -9.7e-4,-0.003 -2.5e-4,-0.003 -4.8e-4,-0.003 -7.2e-4,-0.003 -10e-4,-0.003 -0.003,-0.002 5.9e-4,-0.003 -10e-4,-0.003 5.6e-4,-0.003 -0.001,-0.003 0.002,-0.003 0.002,-0.003 10e-4,-0.003 -10e-4,-0.003 -10e-4,-0.003 -10e-4,-0.003 1.9e-4,-0.004 -0.002,-0.003 -0.002,-0.003 -0.003,-0.002 -0.004,-0.002 -0.004,10e-4 -0.003,-0.003 -0.003,-10e-4 0.002,-0.003 5.1e-4,-0.004 -0.002,-0.003 -4.9e-4,-0.004 -0.002,-0.003 -0.002,-0.003 -0.002,-0.003 3.2e-4,-0.004 -0.002,-0.003 -9.8e-4,-0.003 -0.003,-9.7e-4 -0.003,-0.002 -0.003,-0.002 -0.003,-10e-4 -0.003,-6.4e-4 -0.003,-0.002 -0.003,-0.001 -0.003,-9e-5 -0.003,0.001 -0.003,10e-4 -0.003,-10e-4 -0.003,-0.002 -0.003,-0.002 -0.003,-10e-4 0.002,-0.003 0.004,-9.8e-4 -5.5e-4,-0.004 0.002,-0.003 0.002,-0.003 0.003,-0.002 7.4e-4,-0.003 0.003,-0.002 5.9e-4,-0.004 0.003,-0.002 2.2e-4,-0.003 10e-4,-0.003 -0.002,-0.003 -0.002,-0.003 2.3e-4,-0.004 8.2e-4,-0.004 0.003,-0.002 0.003,-3.9e-4 0.003,-0.002 0.003,-2.2e-4 0.002,-0.003 10e-4,-0.003 0.002,-0.003 0.002,-0.003 2.7e-4,-0.003 -7.8e-4,-0.003 0.003,-0.002 10e-4,-0.003 0.002,-0.003 0.002,-0.002 0.002,-0.002 0.003,-0.002 -0.004,-5.8e-4 -0.002,-0.003 -0.003,-0.002 -10e-4,-0.003 -3.5e-4,-0.003 3e-4,-0.003 -6.3e-4,-0.004 -0.003,-0.002 -0.002,-0.003 -10e-4,-0.003 -10e-4,-0.003 -0.003,-0.002 -1.1e-4,-0.003 4.5e-4,-0.003 -6.5e-4,-0.004 -0.003,-0.002 0.002,-0.003 1.6e-4,-0.004 3.6e-4,-0.004 0.002,-0.003 0.002,-0.003 0.003,-0.002 0.002,-0.003 3.1e-4,-0.004 -10e-5,-0.004 -0.002,-0.003 2e-4,-0.004 -0.002,-0.003 3.9e-4,-0.004 -10e-4,-0.003 -0.002,-0.003 -0.002,-0.003 0.002,-0.003 4.2e-4,-0.003 0.002,-0.002 0.002,-0.002 0.002,-0.002 0.003,-6e-5 0.002,-0.002 0.002,-0.002 0.003,-1.7e-4 0.003,-8.9e-4 0.003,-0.002 0.003,3.1e-4 0.003,-0.002 0.002,-0.002 6.4e-4,-0.003 0.003,-0.002 10e-4,-0.003 0.003,-0.002 10e-4,-0.003 0.002,-0.002 -1.8e-4,-0.003 -6.6e-4,-0.003 -10e-4,-0.003 5.9e-4,-0.003 0.002,-0.003 -2.8e-4,-0.004 -10e-4,-0.003 -0.001,-0.003 -1.2e-4,-0.003 0.002,-0.003 0.003,-0.001 0.002,-0.003 0.002,-0.002 0.002,-0.002 10e-4,-0.003 0.003,-0.002 0.002,-0.002 0.002,-0.002 0.003,-0.001 0.002,-0.002 0.002,-0.002 10e-4,-0.003 0.002,-0.002 10e-4,-0.003 -10e-4,-0.003 1.3e-4,-0.003 10e-4,-0.003 3.4e-4,-0.003 0,-0.003 -0.002,-0.003 0.002,-0.002 -6e-5,-0.003 0.002,-0.002 10e-4,-0.003 0.003,-0.001 0.001,-0.003 0.002,-0.002 4.2e-4,-0.003 0.002,-0.002 0.002,-0.002 8.9e-4,-0.003 0.002,-0.002 0.002,-0.002 4e-4,-0.003 0.002,-0.003 3.1e-4,-0.003 -10e-4,-0.003 1.4e-4,-0.003 6.9e-4,-0.004 0.002,-0.003 0.004,-5.8e-4 0.002,-0.003 -8.3e-4,-0.003 -10e-4,-0.003 -4e-5,-0.003 0.001,-0.003 0.002,-0.003 -10e-6,-0.003 -0.002,-0.003 7.1e-4,-0.003 -0.003,-0.002 -0.003,-10e-4 -0.003,-0.002 -7.8e-4,-0.003 -0.002,-0.003 -0.003,-0.002 -3.1e-4,-0.003 -4.2e-4,-0.003 -0.002,-0.003 -0.003,-0.002 4.6e-4,-0.004 -10e-4,-0.003 -4.5e-4,-0.003 -6e-5,-0.003 -5.6e-4,-0.003 -0.002,-0.002 0.003,-2.2e-4 0.002,-0.002 0.003,-0.002 0.003,-2.6e-4 0.003,-3.2e-4 0.003,-9.8e-4 0.003,-0.002 10e-4,-0.003 0.003,-0.002 0.003,-0.002 7.9e-4,-0.004 0.003,-0.002 7.8e-4,-0.004 -0.002,-0.003 0.002,-0.003 8.4e-4,-0.003 -1.8e-4,-0.003 10e-4,-0.003 -4.1e-4,-0.003 10e-4,-0.003 0.002,-0.003 10e-4,-0.003 0.002,-0.002 4.9e-4,-0.003 -2.8e-4,-0.003 -5.5e-4,-0.003 5.3e-4,-0.003 8.9e-4,-0.003 10e-4,-0.003 -6e-5,-0.003 0.002,-0.003 0.002,-0.002 -0.002,-0.002 -0.002,-0.002 -10e-5,-0.003 -4.9e-4,-0.003 8.9e-4,-0.003 10e-4,-0.003 -10e-4,-0.003 -9.4e-4,-0.003 -10e-4,-0.003 6.7e-4,-0.003 8.9e-4,-0.003 -0.001,-0.003 -0.002,-0.003 6.4e-4,-0.003 -0.002,-0.002 -0.003,-0.002 -9.6e-4,-0.003 -0.002,-0.003 -0.002,-0.002 -0.002,-0.002 -8e-4,-0.003 -3.3e-4,-0.003 -0.003,-10e-4 -0.002,-0.003 -0.003,-0.002 -0.003,-0.002 -0.003,-10e-4 -0.003,10e-4 -0.003,-7.7e-4 -0.003,-0.002 -0.002,-0.003 -9.2e-4,-0.003 10e-4,-0.003 -2.4e-4,-0.003 -4.8e-4,-0.003 -10e-4,-0.003 9.4e-4,-0.003 -1.2e-4,-0.003 8.2e-4,-0.003 0.002,-0.003 8.5e-4,-0.003 0.002,-0.003 10e-5,-0.003 -0.002,-0.003 0.002,-0.002 3.5e-4,-0.003 9.9e-4,-0.003 0.002,-0.003 -0.002,-0.003 -10e-4,-0.003 3e-5,-0.003 1.7e-4,-0.003 -10e-4,-0.003 10e-6,-0.003 -5e-5,-0.003 0.002,-0.003 0.002,-0.003 1.6e-4,-0.003 -3.2e-4,-0.003 -0.002,-0.003 -0.002,-0.002 -0.001,-0.003 -0.002,-0.002 -2.8e-4,-0.003 10e-4,-0.003 5.4e-4,-0.003 -10e-4,-0.003 4.5e-4,-0.003 -5.4e-4,-0.003 0.002,-0.003 -9.4e-4,-0.003 -8.6e-4,-0.003 10e-4,-0.003 8e-5,-0.003 0.003,-0.002 0.002,-0.002 -1.2e-4,-0.003 -0.001,-0.003 0.002,-0.002 5.2e-4,-0.003 10e-4,-0.003 1.5e-4,-0.003 -5.4e-4,-0.003 6e-5,-0.003 1.6e-4,-0.003 -9e-4,-0.003 10e-4,-0.003 8.7e-4,-0.003 -2.7e-4,-0.003 0.002,-0.003 0.002,-0.002 10e-4,-0.003 -0.002,-0.002 2.9e-4,-0.003 -10e-4,-0.003 6.6e-4,-0.003 -6.2e-4,-0.003 -1.1e-4,-0.003 -0.002,-0.003 -10e-4,-0.003 -0.002,-0.002 -0.001,-0.003 3.4e-4,-0.003 -10e-4,-0.003 -0.003,-10e-4 -0.003,-6.3e-4 -0.002,-0.003 -0.003,-0.002 -4.4e-4,-0.003 -6.3e-4,-0.003 -0.002,-0.003 -0.003,-10e-4 -0.001,-0.003 -0.003,-0.002 2.1e-4,-0.003 2.3e-4,-0.003 0.002,-0.003 -5e-5,-0.003 -10e-4,-0.003 1.5e-4,-0.003 -7.4e-4,-0.003 0.001,-0.003 10e-4,-0.003 10e-4,-0.003 10e-4,-0.003 7.2e-4,-0.003 -7.2e-4,-0.003 0.001,-0.003 0.32616,0.0545 0.3096,-0.1162 0.30271,-0.10395 0.31376,-0.0633 0.34286,0.0325 0.27976,-0.20088 0.27099,-0.1749 0.26535,-0.18334 0.35224,0.004 0.34666,0.0626 0.25648,-0.24352 0.30782,-0.17418 0.34422,-0.0961 0.2962,-0.19996 0.17031,-0.31185 0.0915,-0.34335 0.24312,-0.2464 0.34037,-0.0631 0.25894,-0.2093 0.30341,-0.1371 0.26513,0.26586 0.37497,0.019 0.35993,-0.0112 0.31633,-0.17207 0.2203,0.29621 0.36181,0.0733 0.35513,-0.0432 0.32667,0.14583 0.28244,-0.22931 0.36275,0.0277 0.35393,-0.0388 0.26075,-0.24244 0.22504,-0.26474 0.20812,-0.27825 0.33173,-0.10713 0.34522,-0.0484 0.31092,-0.12065 0.33013,-0.0473 0.24392,-0.23686 0.32294,-0.10638 0.253,-0.25671 0.0385,-0.35836 0.18356,-0.30587 0.32549,-0.14598 -0.0329,-0.35023 0.18496,-0.29922 0.0438,-0.33337 0.12644,-0.31155 0.25733,-0.19012 0.29682,-0.11941 0.32019,-0.06 0.26117,-0.19474 0.18582,-0.28609 0.12111,-0.31892 0.3116,-0.13454 0.32002,-0.11306 0.30777,-0.16089 0.11991,-0.32594 0.1549,-0.29099 0.039,-0.32733 0.25569,-0.24025 0.0548,-0.34656 0.27199,-0.19623 0.31642,-0.11121 0.3103,-0.13529 0.22725,-0.25089 0.11396,-0.31559 0.21049,-0.26131 0.30486,-0.15825 0.27984,-0.19917 0.33317,0.0949 0.34637,-0.006 0.27843,-0.19804 0.34169,5.4e-4 0.30271,-0.12783 0.32622,-0.0395 0.21796,-0.25491 0.0926,-0.32236 0.28185,-0.18674 0.15895,-0.2984 0.30567,-0.12057 0.27093,-0.18592 0.29854,-0.17038 0.13898,-0.31438 0.26506,-0.1882 0.29148,-0.14392 0.30442,-0.15397 0.15358,-0.3046 0.0629,-0.35371 0.10166,-0.34457 0.35056,-0.12614 0.23372,-0.29014 0.0687,-0.33887 0.10026,-0.33092 0.0504,-0.36628 -0.20663,-0.30661 0.33774,-0.0245 0.3318,-0.0677 0.27272,-0.19955 0.2733,-0.19876 0.22971,-0.29321 0.36688,-0.0644 0.1407,-0.31891 0.0965,-0.33493 0.10742,-0.30554 0.18156,-0.26819 -0.0518,-0.33532 0.16358,-0.29726 -0.086,-0.32975 0.12775,-0.31592 0.15002,-0.28693 0.12643,-0.29807 0.28585,-0.1793 0.0894,-0.32537 0.24339,-0.213 0.31365,-0.0789 0.0334,-0.31656 0.13996,-0.28589 0.26129,-0.18973 0.14265,-0.28969 0.22282,-0.21353 0.16989,-0.25763 0.20781,-0.22704 0.24304,-0.18883 0.24218,-0.2155 0.0699,-0.31655 0.12185,-0.28579 0.0497,-0.30669 0.33179,-0.073 0.33205,0.0718 0.30034,-0.15013 0.33145,-0.0537 0.34209,-0.0346 0.34234,-0.032 0.34582,0.0867 0.25316,0.25105 0.332,-0.0984 0.31783,-0.13744 0.34938,-0.1044 0.34151,0.12782 0.34364,0.0846 0.35025,0.0507 0.2412,0.25933 0.2713,0.22765 0.33316,-0.0511 0.26645,-0.20643 0.30257,-0.12298 0.31227,-0.0957 0.22393,-0.25789 0.28929,-0.18156 0.35197,0.0472 0.31278,-0.16818 0.32868,-0.0933 0.27847,-0.19799 0.34235,0.096 0.33012,-0.13206 0.3311,0.10349 0.33107,-0.10359 0.3268,0.0533 0.32843,0.0422 0.32572,0.12216 0.34451,0.0483 0.33699,-0.11506 0.3519,0.0545 0.30324,-0.16341 0.31428,-0.141 0.33918,-0.0588 0.33835,-0.0635 0.31311,0.13253 0.33049,0.0799 0.25089,0.23111 0.29693,0.16792 0.35493,-0.0784 0.33296,0.14579 0.34306,0.11045 0.22776,0.2793 0.38394,-0.0663 0.36486,0.1367 0.30489,0.22316 0.256,0.27789 0.10659,0.34904 0.23248,0.28134 0.0603,0.36065 0.19994,0.30616 0.38846,-3.2e-4 0.30517,0.24037 0.31656,0.2108 0.1662,0.34209 0.35659,0.0697 0.36325,0.008 0.36373,-0.0482 0.32878,-0.16289 0.37636,0.009 0.29039,-0.23959 0.32927,-0.12917 0.3445,-0.0801 0.38177,0.0587 0.35157,-0.16 0.343,-0.1754 0.19687,-0.33115 0.37075,0.0947 0.27142,0.2697 0.26057,0.26274 0.29422,0.22443 0.35486,0.17314 0.37786,-0.11457 0.36751,0.0228 0.36754,-0.0225 0.3536,0.0695 0.30769,-0.18756 0.35808,-0.0278 0.24989,-0.25796 0.30864,-0.19012 0.1551,-0.32764 0.34511,-0.0545 0.32667,-0.12394 0.33216,-0.10949 0.34895,0.0234 0.34381,-0.0215 0.34255,0.0365 0.30134,-0.2245 0.37567,0.009 0.19812,-0.29888 0.27172,-0.23398 0.25776,-0.2429 0.1246,-0.33153 0.21105,-0.28078 0.0929,-0.33873 0.34485,-0.17563 0.18753,-0.33852 0.37175,0.0952 0.36826,-0.10793 0.31649,-0.15237 0.31889,-0.1473 0.18942,-0.30255 0.0714,-0.34973 0.20125,-0.26527 0.27814,-0.18307 0.28506,-0.16351 0.2667,-0.192 0.25975,-0.26327 0.36779,-0.0389 0.31283,-0.16585 0.35136,-0.0439 0.28215,-0.20868 0.285,-0.20478 0.31651,-0.19928 0.11138,-0.35706 0.13809,-0.3359 0.16236,-0.32486 0.34832,-0.14381 0.22326,-0.3036 0.16003,-0.33284 -0.0577,-0.36477 0.0256,-0.35251 0.0758,-0.34523 0.30838,0.15848 0.26426,0.22445 0.30114,0.18604 0.35258,0.0313 0.33101,0.16041 0.36691,-0.026 0.33961,0.15753 0.17842,0.32911 0.38293,-4.6e-4 0.37838,-0.0589 0.28668,-0.2522 0.28062,-0.25895 0.37322,0.0752 0.37436,-0.0693 0.33858,0.1611 0.30915,0.21218 0.26443,0.21883 0.24253,0.24287 0.27349,0.24797 0.36907,-0.009 0.2247,0.26601 0.13481,0.32106 0.33302,0.12287 0.23505,0.26598 0.29892,0.21897 0.16462,0.33197 0.368,0.0719 0.27186,0.25823 0.13131,0.32979 0.0721,0.34757 -0.003,0.35955 0.12499,0.33713 0.20356,0.27391 0.32813,0.0938 0.31283,0.0926 0.27644,0.17324 0.33495,0.11726 0.22588,0.27371 -0.0281,0.36318 0.21414,0.29469 0.26922,0.20774 0.24108,0.23982 0.36389,-0.0165 0.27906,0.23412 0.12659,0.31519 0.0309,0.33825 0.0502,0.35775 0.28079,0.22729 0.16005,0.29717 0.0992,0.32262 0.1656,0.31453 0.3246,0.14488 0.34058,0.0526 0.31921,0.12984 0.14453,0.33018 0.31264,0.17932 0.28715,0.23293 0.0582,0.36513 -0.0793,0.33753 -0.0173,0.34629 0.10025,0.3197 0.1034,0.31869 0.23305,0.24072 0.23001,0.24363 0.3449,0.11443 0.28205,0.2291 0.1543,0.32333 0.10955,0.3411 0.26004,0.24533 0.30083,0.19318 0.11167,0.33918 0.0569,0.35252 0.36966,-0.005 0.36597,0.0525 0.31904,0.20636 0.184,0.33244 0.27423,0.21348 0.26358,0.22649 0.25768,0.24954 0.10555,0.34281 0.3527,-0.0297 0.33739,0.10701 0.32754,0.11752 0.3404,0.0723 0.27506,0.27382 0.38711,0.0279 0.13493,0.34168 0.2232,0.29177 0.23517,0.2561 0.15603,0.31071 0.22578,0.26475 0.29167,0.18972 0.28459,0.20492 0.34556,0.0598 0.28718,0.20044 0.34523,0.0588 0.36112,-0.044 0.34558,-0.11364 0.27879,-0.23109 0.26921,-0.24219 0.33123,-0.22952 0.40042,0.0453 0.0903,-0.39107 0.32016,-0.24202 0.37221,-0.0871 0.24887,-0.29014 0.36417,0.1151 0.36246,-0.12039 0.29901,-0.21275 0.36598,-0.0271 0.36166,0.0949 0.34324,-0.14829 0.28222,0.26441 0.38539,0.0321 0.3233,0.17291 0.28835,0.22645 0.36804,0.0671 0.36313,-0.0899 0.33043,-0.19609 0.38277,0.0333 0.36163,-0.0112 0.3614,0.0172 0.36376,0.0259 0.35795,-0.0697 0.31476,0.24155 0.39633,-0.0186 0.29672,0.23109 0.22366,0.30237 0.37736,-0.0109 0.36986,0.0757 0.36338,-0.0958 0.34793,-0.14203 0.30857,-0.19928 0.30915,-0.19838 0.27824,-0.24208 0.31697,-0.18855 0.30211,-0.22901 0.36112,-0.11533 0.19091,-0.32166 0.16064,-0.33779 0.16892,-0.33409 0.13417,-0.34949 0.30092,-0.22468 0.33761,-0.16446 0.23488,-0.31969 0.0514,-0.39335 -0.0942,-0.37516 -0.005,-0.38678 0.39005,-0.0815 0.31677,-0.24172 0.28029,-0.28399 0.12588,-0.37864 0.22042,-0.29254 0.10648,-0.35048 0.0188,-0.36663 0.15181,-0.33425 0.1798,-0.32679 0.32456,-0.18381 0.33811,-0.15205 0.22156,-0.29724 0.28562,-0.23271 0.36818,0.0132 0.33747,-0.0779 0.31716,-0.13913 0.33674,0.10843 0.35211,-0.0341 0.35275,0.0603 0.33764,-0.11864 0.37013,0.10625 0.37914,-0.0673 0.25106,0.29642 0.36582,0.13064 0.32634,-0.17409 0.29759,-0.21966 0.36139,-0.0783 0.36869,-0.0281 0.37623,-0.065 0.24925,-0.28922 0.34434,0.12383 0.36573,-0.0123 0.35052,-0.0224 0.34841,0.0445 0.27682,-0.22982 0.35139,-0.0773 0.32125,0.18011 0.36276,0.0636 0.37712,-0.0169 0.31163,-0.21307 0.3601,0.0594 0.36298,-0.0381 0.29229,-0.21313 0.29948,-0.20292 0.35053,-7.3e-4 0.35012,-0.0167 0.34523,0.0684 0.35194,0.003 0.3875,-0.009 0.28768,0.25977 0.34265,-0.16053 0.37185,0.0701 0.2546,-0.28067 0.32576,-0.1936 0.37227,0.14368 0.37711,-0.13045 0.32164,-0.14808 0.31358,-0.16444 0.22009,-0.29133 0.33216,-0.1516 0.36276,0.16221 0.28793,0.27387 0.16274,0.36415 0.0156,0.39856 0.2473,0.29781 0.37929,0.0774 0.2166,0.31476 0.35618,0.13832 0.33225,0.21587 0.39417,-0.0402 0.35187,-0.1281 0.36548,-0.0815 0.33269,0.15174 0.36207,0.051 0.35738,0.057 0.35847,0.0497 0.36768,0.006 0.34704,-0.12164 0.36944,-0.0606 0.29155,-0.23485 0.37343,-0.0117 0.36826,0.063 0.2487,0.29577 0.36708,0.12081 0.29602,0.18822 0.23137,0.26367 0.30394,0.16859 0.31718,0.14214 0.0798,0.3602 0.21043,0.30305 0.32147,0.16765 0.30066,0.20263 0.36359,0.072 0.33605,-0.15637 0.29671,-0.20418 0.354,-0.0664 0.31552,0.16786 0.25616,0.24923 0.31667,0.17323 0.35906,0.0369 0.25255,0.21667 0.27633,0.18538 0.3107,0.12156 0.32784,0.0618 0.24441,0.23877 0.33642,0.0597 0.33833,0.0508 0.24902,0.23461 0.14614,0.18387 0.12867,0.1965 0.0309,0.23283 0.0518,0.22909 -0.1244,0.2032 -0.14625,0.18807 -0.0308,0.23665 0.007,0.23853 0.0323,0.23504 -0.10305,0.2137 0.052,0.22296 0.10575,0.20306 0.23049,0.084 0.14768,0.19589 0.001,0.23995 0.0938,0.22084 -0.0148,0.23194 -0.0248,0.23108 -0.0296,0.2316 0.0162,0.23292 0.0276,0.23766 0.11734,0.20853 0.12925,0.19577 0.13377,0.19271 0.18024,0.16839 0.0472,0.24211 0.15897,0.19328 0.24656,0.0429 0.12211,0.20586 0.19722,0.13561 0.21365,0.0994 0.23166,0.043 0.2274,0.0156 0.22577,0.0313 0.20318,0.10494 0.18157,0.13904 0.23172,0.074 0.11947,0.21189 0.0725,0.21752 0.13657,0.18419 0.13953,0.189 0.21612,0.0921 0.17742,0.15968 0.23761,0.0227 0.22772,0.0786 0.23674,0.0445 0.24503,-0.0468 0.18523,-0.16709 0.14451,0.20883 0.1328,0.21646 0.21845,0.15975 0.26984,-0.0207 0.0405,0.24453 -0.0431,0.24409 0.13081,0.20789 0.0854,0.2303 0.21031,0.12995 0.12802,0.2115 0.21893,0.1 0.20721,0.12242 0.21766,0.15672 0.26752,-0.0192 0.24054,-0.0791 0.22208,-0.12162 0.14037,0.1819 0.0913,0.21082 -0.0446,0.22372 -0.0288,0.2263 -0.0114,0.21853 -0.0549,0.21183 0.0234,0.21737 0.0625,0.20951 -0.0233,0.22437 -0.0658,0.21578 -0.14224,0.18231 -0.0413,0.22753 -0.23205,0.0459 -0.18104,0.15223 -0.12515,0.19305 -0.15878,0.16649 0.0211,0.21368 0.0747,0.20131 -0.0978,0.19017 -0.0615,0.20483 0.0683,0.19493 0.0436,0.20191 0.007,0.20716 -0.0359,0.20417 0.0503,0.20617 0.0149,0.21168 -0.0874,0.19363 -0.0489,0.20671 -0.18402,0.12483 -0.0649,0.21268 -0.0256,0.20929 -0.0685,0.19941 1e-4,0.23641 0.10606,0.21129 0.1337,0.20264 0.22907,0.0804 0.15026,0.15853 0.18108,0.12214 0.20008,0.10354 0.11835,0.19169 0.1439,0.18509 0.19537,0.12962 -0.0543,0.23584 0.0873,0.22574 0.0417,0.22464 -0.0219,0.22743 0.10212,0.20779 0.17911,0.14671 -0.0988,0.19642 -0.0583,0.212 -0.0643,0.2119 -0.12559,0.18238 -0.15552,0.16837 -0.0499,0.2237 -0.0767,0.21137 0.002,0.22486 -0.009,0.24184 0.0766,0.22959 0.10639,0.2203 0.19364,0.1495 -0.0497,0.22967 -0.11643,0.20411 0.0569,0.23582 -0.0829,0.22797 -0.0337,0.19273 0.0129,0.19524 0.0784,0.18192 0.003,0.19809 0.007,0.20912 0.12036,0.17118 0.0279,0.21361 -0.12451,0.17579 0.12424,0.16015 0.11541,0.16662 -0.0664,0.20272 0.067,0.2025 0.0738,0.18025 0.106,0.16341 -0.006,0.20155 0.10121,0.1744 -0.12758,0.15335 -0.0383,0.19576 -0.0298,0.19688 -0.11838,0.16012 -0.0464,0.18965 -0.0126,0.19483 -0.10842,0.16602 -0.0367,0.19486 -0.10175,0.18274 -0.129,0.16463 -0.0885,0.19396 -0.002,0.21318 0.12182,0.17783 0.12493,0.17566 -0.0762,0.21412 0.068,0.2169 -0.005,0.21153 -0.14489,0.1542 -0.12945,0.15542 -0.0534,0.19509 0.0389,0.20561 -0.0332,0.2066 -0.10615,0.17677 -0.11576,0.17065 0.15725,0.1512 0.0616,0.20928 -0.0817,0.20384 0.0405,0.21583 -0.006,0.20942 -0.10931,0.17873 0.026,0.20195 -0.0171,0.20289 0.11519,0.1632 0.0255,0.19812 0.0189,0.19744 0.0987,0.17204 -0.028,0.1987 0.0173,0.19992 0.0526,0.19599 0.12049,0.16327 0.18491,0.10281 0.13332,0.16428 0.034,0.20496 0.0271,0.20599 0.0565,0.18826 0.10063,0.16883 0.0767,0.18244 0.0118,0.19754 0.20397,0.0991 0.0833,0.21093 0.14961,0.16832 0.22303,0.0312 0.0436,0.22388 0.1767,0.14423 -0.027,0.21663 0.0541,0.21151 0.0694,0.20174 -0.0289,0.21139 0.0344,0.20653 0.087,0.19043 -0.13732,0.1675 -0.0167,0.21596 -0.0876,0.18851 -0.0441,0.20316 0.0371,0.2049 -0.026,0.20659 -0.0842,0.1878 -0.087,0.18655 0.007,0.20311 -0.0104,0.20296 0.0854,0.1859 0.0377,0.20107 0.14848,0.1681 0.11059,0.1951 -0.061,0.21928 0.0292,0.22572 0.15936,0.14797 0.12647,0.17691 0.21737,0.0366 0.18781,0.11537 -0.0498,0.20212 -0.0922,0.18659 -0.0211,0.22023 0.13002,0.17902 0.13298,0.15994 0.12912,0.16307 0.058,0.20616 -0.0441,0.20959 -0.0464,0.2091 0.0587,0.206 -0.0284,0.20859 -0.0945,0.18809 0.14728,0.16011 0.0212,0.21651 0.10421,0.18025 0.14873,0.14571 -0.0192,0.21366 0.0675,0.2036 0.0616,0.2035 0.12106,0.17478 0.20673,0.0556 0.20193,0.071 0.19588,0.10858 0.10011,0.20034 0.16546,0.10781 0.16755,0.10453 0.14987,0.13138 0.10918,0.16674 0.1961,0.0857 0.12059,0.17678 0.0853,0.19064 0.0147,0.20834 0.21391,0.10295 0.15455,0.1802 0.23203,0.0204 0.22683,0.0529 0.16945,0.16563 0.17332,0.16157 0.056,0.23068 0.0274,0.23579 0.14894,0.18412 0.21108,0.10736 0.0703,0.22115 0.0425,0.22813 0.0168,0.2502 0.17623,0.17838 -0.003,0.24519 -0.13694,0.20342 0.23026,0.0317 0.23242,-0.002 0.22713,-0.047 0.22984,-0.0311 0.24386,0.0381 0.16779,0.18102 0.22268,0.10952 0.10003,0.22711 0.20486,0.11426 0.22137,0.0776 0.15367,0.18039 0.2041,0.12042 0.0648,0.24278 0.18856,0.16611 -0.003,0.24055 0.005,0.2405 0.21341,0.0711 0.21918,-0.0506 0.2184,0.0171 0.21348,-0.0492 0.19724,-0.12248 0.23052,-0.0277 0.20559,0.10616 0.23077,0.0168 0.032,0.2363 0.16709,0.17014 0.22021,0.0989 0.10223,0.21869 0.17892,0.14397 0.22516,0.0452 0.21069,0.0769 0.19029,0.11874 0.15922,0.15871 0.20271,0.0972 0.20464,0.11458 0.09,0.21657 0.20217,0.12532 0.23586,-0.0308 0.16331,0.15922 0.21042,0.088 0.16294,-0.17377 0.23671,-0.0267 0.21241,-0.0703 0.20555,-0.0884 0.21928,0.0656 0.22119,0.0588 0.21619,-0.0941 0.2351,0.0178 0.13578,0.17944 0.11609,0.19277 0.23734,-0.0207 0.19794,0.13256 0.11068,0.19049 0.18771,0.11533 0.0946,0.19184 0.0761,0.19989 0.0958,0.20186 0.19641,0.10655 0.15979,0.14595 0.0935,0.19518 -0.002,0.22157 -0.0182,0.22083 0.0404,0.23372 0.18645,0.14662 -0.13093,0.18163 0.0161,0.22333 0.0331,0.20853 -4.6e-4,0.21114 0.13102,0.17837 -0.0177,0.2206 0.0374,0.20398 0.0408,0.20334 0.0282,0.22155 -0.0371,0.22023 -0.14915,0.16907 -0.0713,0.21388 0.0899,0.20994 0.16922,0.15336 0.0343,0.22178 -0.0138,0.22399 0.0904,0.19792 0.1629,0.14425 0.0886,0.19401 0.11194,0.18154 0.0193,0.21234 -0.0107,0.21294 -0.0968,0.20388 0.0534,0.21928 0.05,0.22825 0.17742,0.15204 0.13673,0.19367 0.23094,0.0536 -0.016,0.22199 0.0795,0.20789 -0.0302,0.21599 0.007,0.21796 0.18444,0.13025 0.22513,-0.0174 0.0931,0.20225 0.19201,0.11273 0.13135,0.16082 0.11451,0.17322 0.17412,0.11266 0.17444,0.11214 0.16316,0.13186 0.0992,0.18483 0.18288,0.097 0.15558,0.13658 0.13835,0.16173 0.0509,0.20665 0.20039,0.087 0.10713,0.1904 0.0673,0.18668 0.0487,0.19239 0.0217,0.1972 0.0381,0.1947 -0.10863,0.18018 -0.11177,0.17826 0.0538,0.20471 0.008,0.21152 -0.0605,0.20642 0.0648,0.20512 0.0994,0.18087 0.1261,0.1634 -0.0307,0.20873 -0.1247,0.17019 -0.003,0.20744 0.0627,0.19776 0.12608,0.16999 0.14358,0.15549 0.0713,0.19965 0.10153,0.18609 0.18326,0.10646 0.16697,0.13054 0.19277,0.0907 0.209,0.0413 0.21278,0.0927 0.0932,0.21255 0.006,0.22629 0.13381,0.1826 -0.12964,0.189 0.0191,0.2284 -0.026,0.22484 0.10749,0.19919 0.0519,0.18841 0.13324,0.14294 0.0376,0.18966 0.10609,0.16164 -0.0871,0.19774 0.0583,0.20806 0.17791,0.11814 0.0763,0.19944 0.15224,0.13771 0.18246,0.0941 0.0272,0.20225 0.0555,0.19638 0.1708,0.10295 0.0756,0.18454 0.072,0.17999 0.14088,0.13316 0.0417,0.20075 0.0309,0.2027 0.17459,0.1133 0.1252,0.16627 0.039,0.19766 -0.0627,0.19146 -0.0165,0.19667 0.0452,0.19211 0.16155,0.12365 0.17915,0.0964 0.0858,0.18398 0.0687,0.191 0.0232,0.2096 -0.0671,0.19992 0.0993,0.18133 0.13001,0.16077 0.0716,0.18824 0.12797,0.15555 0.0979,0.1732 0.0837,0.18048 0.091,0.19041 -0.0376,0.20766 0.0824,0.18313 0.0828,0.18296 -0.13873,0.16781 -0.0416,0.21371 0.0262,0.21193 0.0895,0.19387 0.005,0.20045 0.0258,0.19885 0.0224,0.21277 -0.12347,0.17472 0.10082,0.19225 0.14164,0.16449 0.17825,0.13737 0.22438,0.0173 0.15469,0.14035 0.19194,0.0824 0.15296,0.13897 0.17299,0.11304 -0.0279,0.21218 -0.0541,0.20705 0.10678,0.19522 -0.0151,0.222 0.10921,0.19079 -0.0103,0.21961 0.10753,0.18171 0.098,0.18702 0.0846,0.18739 0.11341,0.17151 -0.013,0.2076 0.0576,0.19986 0.17974,0.12769 0.10425,0.19428 -0.0413,0.21485 0.0432,0.21447 0.0411,0.20572 0.0971,0.18596 -0.0314,0.2053 -0.0354,0.20465 0.0121,0.20324 0.0728,0.19013 0.0564,0.19403 0.0203,0.20103 0.0403,0.22514 -0.007,0.22861 0.18967,0.13358 0.1236,0.19633 0.16549,0.15535 0.22383,0.0377 0.1408,0.16619 0.16249,0.14506 0.22431,-0.005 0.21564,-0.062 0.19521,0.12849 0.23353,-0.009 0.1937,0.14926 0.2445,0.003 0.15503,0.17827 0.0779,0.22303"
           id="path3079"
           inkscape:connector-curvature="0" />
        <path
           inkscape:connector-curvature="0"
           id="path3621"
           d="m -474.2575,628.06775 0.0625,-0.34375 0.0312,-0.375 -0.0625,-0.34375 0.15625,-0.34375 0.21875,-0.3125 0.375,-0.125 0.15625,-0.34375 0.125,-0.3125 0.125,-0.375 0.3125,-0.1875 0.28125,-0.21875 0.28125,-0.1875 0.34375,-0.0625 0.3125,-0.15625 0.375,-0.0312 0.25,-0.28125 0.28125,-0.1875 0.28125,-0.15625 0.28125,-0.1875 0.1875,-0.28125 0.0937,-0.34375 0.1875,-0.28125 0.3125,-0.15625 0.3125,-0.15625 0.375,-0.0937 0.375,0.0937 0.1875,-0.34375 0.34375,-0.1875 0.0937,-0.34375 0.1875,-0.28125 0.125,-0.3125 0.28125,-0.25 0.25,-0.25 0.21875,-0.28125 0.375,0 0.28125,-0.21875 0.34375,0.0312 0.34375,-0.0312 0.375,0.0312 0.3125,-0.0937 0.34375,-0.125 0.34375,-0.0625 0.15625,-0.3125 0.3125,-0.21875 0.25,-0.25 0.34375,-0.0312 0.3125,-0.1875 0.34375,0.0937 0.375,-0.0312 0.375,0.0312 0.375,-0.125 0.34375,0.15625 0.3125,0.25 0.25,0.25 0.28125,0.28125 0.34375,0.0937 0.21875,-0.34375 0.34375,-0.1875 0.34375,-0.15625 0.375,0.0625 0.34375,-0.0625 0.34375,-0.125 0.28125,-0.25 0.375,0 0.34375,-0.15625 0.34375,-0.0625 0.375,0.0312 0.34375,0.0625 0.1875,0.34375 0.3125,0.21875 0.28125,0.21875 0.40625,0 0.1875,0.3125 0.0625,0.375 0.25,0.28125 0.0937,0.34375 0.25,0.28125 0.3125,0.21875 0.375,0.125 0.375,-0.0625 0.21875,0.28125 0.34375,0.125 0.34375,0.125 0.34375,-0.0625 0.3125,0.15625 0.25,0.21875 0.3125,0.0937 0.3125,0.125 0.34375,-0.0625 0.34375,-0.0625 0.3125,-0.125 0.3125,-0.15625 0.34375,0.0312 0.34375,-0.0937 0.34375,0.0312 0.3125,0.125 0.34375,0.0312 0.3125,0.0625 0.34375,-0.0937 0.3125,0.0937 0.34375,-0.125 0.34375,0.0937 0.28125,-0.1875 0.3125,-0.0937 0.3125,-0.1875 0.375,0.0625 0.28125,-0.1875 0.21875,-0.25 0.3125,-0.0937 0.3125,-0.125 0.25,-0.21875 0.34375,-0.0625 0.28125,0.25 0.21875,0.25 0.375,0.0625 0.34375,0.0625 0.34375,0.125 0.34375,-0.0937 0.3125,-0.125 0.3125,-0.0937 0.28125,0.25 0.34375,0.0625 0.34375,-0.0312 0.34375,-0.0312 0.3125,-0.0312 0.3125,-0.15625 0.3125,0.0625 0.34375,-0.0625 0.0625,-0.3125 0.0937,-0.28125 0.0937,-0.3125 0.21875,-0.21875 0.25,-0.1875 0.21875,-0.25 0.15625,-0.25 0.21875,-0.21875 0.15625,-0.28125 0.25,-0.1875 0.15625,-0.28125 0.0312,-0.3125 0.3125,-0.0937 0.25,-0.21875 0.0937,-0.3125 0.28125,-0.1875 0.125,-0.28125 0.15625,-0.28125 0.125,-0.34375 -0.0937,-0.3125 0.1566,-0.31265 -0.0312,-0.3125 0.15625,-0.28125 0.125,-0.3125 0.0937,-0.3125 0.125,-0.34375 0.375,-0.0625 0.21875,-0.28125 0.28125,-0.1875 0.28125,-0.21875 0.34375,-0.0625 0.3125,-0.0312 -0.1875,-0.3125 0.0312,-0.34375 0.125,-0.34375 0.0625,-0.34375 0.21875,-0.28125 0.34375,-0.125 0.125,-0.34375 0.0625,-0.34375 0.15625,-0.3125 0.28125,-0.15625 0.3125,-0.15625 0.25,-0.1875 0.15625,-0.3125 0.2813,-0.1563 0.28125,-0.1875 0.3125,-0.125 0.15625,-0.3125 0.28125,-0.1875 0.0937,-0.3125 0.21875,-0.25 0.3125,-0.0312 0.3125,-0.125 0.34375,0 0.28125,-0.21875 0.34375,0 0.3125,0.0937 0.28125,-0.1875 0.3125,-0.15625 0.21875,-0.28125 0.125,-0.3125 0.21875,-0.25 0.3125,-0.125 0.3125,-0.125 0.28125,-0.1875 0.0312,-0.34375 0.25,-0.25 0.0625,-0.3125 0.15625,-0.3125 0.125,-0.3125 0.28125,-0.15625 0.34375,-0.125 0.3125,-0.125 0.0937,-0.3125 0.1875,-0.28125 0.28125,-0.21875 0.3125,-0.0625 0.3125,-0.0937 0.25,-0.1875 0.125,-0.3125 0.0312,-0.34375 0.1875,-0.3125 -0.0312,-0.34375 0.3125,-0.15625 0.1875,-0.28125 0.0625,-0.375 0.25,-0.25 0.3125,-0.0937 0.25,-0.25 0.3125,-0.0625 0.3125,-0.0937 0.34375,-0.0625 0.34375,-0.0937 0.21875,-0.28125 0.21875,-0.28125 0.25,-0.21875 0.375,-0.0625 0.34375,0.0312 0.28125,-0.21875 0.34375,0.125 0.34375,-0.0312 0.375,0.0625 0.21875,0.3125 0.3125,-0.1875 0.34375,0 0.375,0.0312 0.28125,0.25 0.28125,-0.125 0.28125,-0.21875 0.34375,-0.0625 0.21875,-0.25 0.0939,-0.3439 0.1875,-0.3125 0.28125,-0.1875 0.34375,-0.0937 0.3125,-0.1875 0.25,-0.25 0.34375,0.0625 0.375,0.0312 0.25,-0.1875 0.28125,-0.1875 0.28125,-0.1875 0.34375,0.0312 0.3125,-0.0625 0.3125,-0.125 0.28125,-0.0937 0.34375,0.0312 0,-0.0312 0,-0.0312 -0.0312,0 0,-0.0312 0,-0.0312 0,-0.0312 0,-0.0312 0,-0.0312 0,-0.0312 0,-0.0312 -0.0312,0 0,-0.0312 0,-0.0312 0,-0.0312 0.0312,0 0,-0.0312 0,-0.0312 0,-0.0312 0,-0.0312 0,-0.0312 0.0312,0 0,-0.0312 0,-0.0312 0.0312,0 0,-0.0312 0.0312,0 0,-0.0312 0,-0.0312 0,-0.0312 0,-0.0312 0,-0.0312 0,-0.0312 0.0312,0 0,-0.0312 -0.0312,0 -0.0312,0 0,-0.0312 0,-0.0312 0,-0.0312 -0.0312,0 0,-0.0312 0,-0.0312 0,-0.0312 0,-0.0312 0,-0.0312 -0.0312,0 0,-0.0312 -0.0312,0 0,-0.0312 0,-0.0312 0,-0.0312 0.0312,0 0.0312,0 0,-0.0312 0,-0.0312 0,-0.0312 -0.15625,-0.1875 0,-0.21875 0.0937,-0.15625 0.0312,-0.21875 -0.15625,-0.15625 -0.125,-0.15625 0.0312,-0.21875 -0.0312,-0.1875 0.0312,-0.1875 0.0937,-0.1875 0.0312,-0.1875 0.0937,-0.1875 0.15625,-0.15625 0.1875,-0.0312 0.15625,-0.15625 0.0312,-0.21875 -0.0937,-0.1875 0.0625,-0.21875 0.15625,-0.15625 0.0937,-0.1875 -0.0937,-0.1875 -0.0625,-0.1875 0.0312,-0.21875 -0.0625,-0.1875 -0.0625,-0.1875 -0.125,-0.15625 -0.125,-0.15625 -0.15625,-0.0937 -0.15625,-0.125 -0.125,-0.125 -0.15625,-0.15625 -0.125,-0.125 0.0312,-0.1875 0.125,-0.125 0.0937,-0.1875 0.15625,-0.0937 0.15625,-0.0937 0.0937,-0.1875 0.125,-0.0937 0.125,-0.15625 0,-0.1875 -0.0937,-0.15625 0,-0.21875 0.125,-0.15625 0.15625,-0.125 0,-0.1875 0.0937,-0.1875 -0.0625,-0.1875 0.0625,-0.1875 -0.0312,-0.1875 0.0625,-0.1875 0.15625,-0.125 -0.0312,-0.1875 -0.15625,-0.125 0,-0.1875 0.0312,-0.1875 -0.0312,-0.1875 0.125,-0.15625 0,-0.1875 -0.0937,-0.1875 0.125,-0.125 0.0312,-0.1875 0.0625,-0.15625 0,-0.1875 0.0937,-0.1875 0,-0.1875 0.0937,-0.1875 0,-0.21875 0,-0.1875 -0.125,-0.1875 -0.125,-0.15625 -0.0625,-0.1875 0.125,-0.15625 0.0937,-0.1875 0.1875,-0.0937 0.21875,-0.0312 0.0937,-0.15625 0.0937,-0.1875 0.0312,-0.21875 0,-0.1875 0.0937,-0.15625 0.0625,-0.1875 0,-0.1875 -0.0625,-0.1875 0.15625,-0.125 0.125,-0.125 0.125,-0.15625 0.125,-0.125 0.15625,-0.0937 0.15625,-0.0937 0.0937,-0.15625 0.125,-0.15625 0.0312,-0.1875 0,-0.1875 0.0312,-0.1875 0.15625,-0.125 0.0625,-0.1875 0.15625,-0.0937 0.1875,-0.0625 0.0937,-0.125 0.0937,-0.1875 0.125,-0.0937 0.1875,-0.0937 0.15625,-0.0625 0.15625,-0.0937 0.0625,-0.1875 0.0625,-0.1875 0.0937,-0.15625 0.1875,-0.125 0.125,-0.125 0.21875,0.0625 0.1875,-0.0312 0.0625,-0.21875 -0.0937,-0.21875 0.15625,-0.125 0.0312,-0.21875 0.21875,-0.0625 0.15625,-0.125 0.0937,-0.1875 0.125,-0.15625 0.1875,-0.0625 0.15625,-0.125 0.125,-0.125 0.1875,-0.0625 0.1875,0.0937 0.21875,0.0312 0.15625,-0.15625 0.21875,-0.0312 0.1875,0.0312 0.1875,-0.0625 0.1875,-0.0312 0.1875,-0.0625 0.0625,-0.1875 0.15625,-0.15625 0.15625,-0.0937 0.15625,-0.125 0.0937,-0.1875 0.0937,-0.15625 0.1875,-0.0937 0.0625,-0.1875 0.0312,-0.21875 0.125,-0.15625 -0.125,-0.1875 0,-0.1875 0.15625,-0.125 0.1875,-0.0625 0.15625,-0.125 0.0937,-0.15625 0.0937,-0.1875 -0.0312,-0.21875 0.125,-0.125 0.125,-0.15625 0.0312,-0.1875 0.0312,-0.1875 0.0937,-0.1875 0.0625,-0.1875 0,-0.1875 -0.0312,-0.21875 -0.0937,-0.1875 -0.15625,-0.125 0.1875,0.0625 0.1875,-0.0937 0.1875,0.0312 0.1875,0.0312 0.15625,-0.0937 0.0937,-0.1875 0.21875,-0.0312 0.15625,-0.125 0.0625,-0.1875 0.0625,-0.15625 0.1875,-0.0937 0.15625,-0.125 0.1875,-0.0312 0.21875,0.0312 0.1875,-0.0937 0.0625,-0.21875 0,-0.15625 0.0312,-0.1875 0.15625,-0.15625 0.0312,-0.1875 0.0328,-0.1592 0.0312,-0.1875 0.0312,-0.1875 0.0312,-0.1875 0,-0.1875 0.0625,-0.1875 0.0937,-0.15625 0.0312,-0.21875 0.15625,-0.125 0.125,-0.1875 0.1875,-0.0312 0.1875,-0.0625 -0.15625,-0.0937 -0.125,-0.1875 0.0312,-0.1875 -0.0937,-0.1875 -0.0625,-0.1875 -0.0312,-0.1875 0.0312,-0.1875 0,-0.1875 0,-0.21875 -0.0625,-0.1875 0.125,-0.15625 0.0625,-0.1875 0.0937,-0.15625 0.0312,-0.1875 0.0312,-0.1875 0.0937,-0.15625 -0.15625,-0.125 -0.125,-0.15625 -0.0625,-0.1875 0,-0.1875 -0.0312,-0.1875 -0.15625,-0.125 0,-0.1875 -0.0625,-0.15625 0,-0.21875 0.125,-0.15625 -0.0625,-0.1875 0.0937,-0.1875 -0.0937,-0.21875 -0.1875,-0.0937 0.0312,-0.1875 -0.0625,-0.1875 0.0937,-0.1875 0.0625,-0.1875 0.21875,-0.0625 0.15625,-0.15625 -0.0312,-0.1875 0.0312,-0.21875 0.0625,-0.1875 0.125,-0.15625 0.0312,-0.21875 0.15625,-0.15625 0.1875,-0.0937 0.1875,-0.0937 0.1875,0.0625 0.1875,-0.0937 0.21875,0 0.1875,-0.125 -0.125,-0.15625 -0.0625,-0.21875 -0.0312,-0.1875 0,-0.21875 -0.0625,-0.1875 0.0312,-0.21875 0.0625,-0.21875 0.1875,-0.125 0.1875,-0.0937 0.15625,-0.125 0.1875,-0.0937 0.1875,-0.0937 0.0937,-0.21875 0.21875,-0.0937 0.0625,-0.21875 -0.0312,-0.21875 0.15625,-0.0625 0.0937,-0.15625 0.125,-0.125 0.15625,-0.0937 0.125,-0.125 0.0312,-0.1875 0.15625,-0.125 0.1875,-0.0312 -0.0937,-0.15625 0.0312,-0.21875 0.15625,-0.125 0.0625,-0.1875 0.15625,-0.0937 0.0625,-0.1875 0.125,-0.125 0.15625,-0.0625 0.0312,-0.1875 0.125,-0.15625 0.0937,-0.15625 0.1875,-0.0625 0.125,-0.125 0,-0.1875 0.125,-0.0937 0.125,-0.15625 0.0937,-0.15625 0.15625,-0.0625 0.1875,-0.0625 0.0937,-0.125 0.125,-0.125 0.1875,-0.0625 0.125,-0.0937 0.15625,-0.0937 0.0312,-0.15625 -0.0625,-0.1875 0.0312,-0.15625 -0.0312,-0.1875 0.0312,-0.1875 0.0312,-0.15625 -0.0625,-0.15625 -0.0312,-0.1875 0.0937,-0.15625 -0.0312,-0.1875 0.125,-0.15625 -0.0312,-0.1875 -0.0625,-0.1875 0.0625,-0.1875 -0.0625,-0.1875 -0.125,-0.125 0.0937,-0.15625 0.0937,-0.15625 0.125,-0.15625 0,-0.1875 0.0312,-0.1875 -0.0625,-0.15625 0.0312,-0.1875 0.0312,-0.1875 0.15625,-0.0937 0.15625,-0.0937 0.0937,-0.15625 0.15625,-0.125 0.0625,-0.1875 -0.0312,-0.1875 0.125,-0.15625 0.125,-0.125 0.0937,-0.15625 0.0625,-0.1875 0.125,-0.15625 0.1875,-0.0937 -0.0625,-0.1875 0,-0.1875 0.0937,-0.1875 0.0937,-0.1875 0.0937,-0.125 0.0937,-0.1875 0.0625,-0.1875 -0.0312,-0.1875 0.0312,-0.21875 0.125,-0.125 0.1875,-0.0937 0.15625,-0.125 0.15625,-0.15625 0.1875,0 0.21875,-0.0312 0.1875,0.0625 0.1875,-0.0625 0.15625,-0.125 0.21875,-0.0625 0.1875,0.125 -0.0312,-0.21875 0.0937,-0.1875 0.125,-0.1875 0.15625,-0.125 0.21875,-0.0312 0.15625,-0.125 0.21875,-0.0312 0.15625,-0.15625 0.0937,-0.15625 0.0625,-0.1875 -0.125,-0.15625 0,-0.21875 0.0312,-0.1875 -0.0625,-0.1875 -0.0937,-0.15625 -0.1875,-0.125 0.0937,-0.1875 -0.0312,-0.1875 -0.0937,-0.15625 -0.125,-0.15625 0,-0.1875 0.0937,-0.1875 0.0312,-0.15625 -0.0312,-0.1875 0.125,-0.1875 0.15625,-0.125 0.21875,-0.0312 0.1875,-0.0625 0.15625,-0.15625 0.0312,-0.21875 0.0625,-0.1875 -0.0312,-0.21875 -0.0625,-0.1875 -0.0312,-0.1875 -0.0625,-0.1875 -0.0625,-0.1875 0.0625,-0.15625 0.0625,-0.21875 -0.0312,-0.1875 0.0937,-0.1875 0.15625,-0.0937 0.125,-0.15625 0.1875,-0.0625 0.15625,-0.125 0.15625,-0.0937 0.1875,-0.0937 0.125,-0.125 0.0625,-0.1875 0.1875,0.0625 0.1875,0.0625 0.1875,0.0937 0.21875,0 0.1875,0.0625 0.21875,-0.0937 0.1875,-0.0625 0.125,-0.15625 0.125,-0.15625 0.1875,-0.0625 0.15625,-0.125 0.21875,0 0.15625,-0.125 0.0937,-0.15625 0.0312,-0.1875 0.0312,-0.1875 0.0312,-0.1875 0.0312,-0.21875 0.0937,-0.15625 0.125,-0.125 0.21875,-0.0312 0.125,-0.15625 0.125,-0.125 0.125,-0.125 0.1875,-0.0625 0.125,-0.125 0.125,-0.125 0.125,-0.15625 0.0625,-0.15625 0.0937,-0.1875 0.0312,-0.15625 0.0312,-0.1875 0.1875,-0.0625 0.0937,-0.15625 0.125,-0.125 0.125,-0.125 0.0312,-0.1875 0.0312,-0.15625 0.15625,-0.125 0.0937,-0.15625 0.0625,-0.1875 0.0937,-0.15625 0.0312,-0.1875 -0.0312,-0.21875 0.125,-0.15625 0.1875,-0.0625 0.125,-0.15625 0.15625,-0.0625 0.0937,-0.1875 -0.0312,-0.1875 0.125,-0.125 0.0937,-0.1875 0.0625,-0.15625 0,-0.21875 0,-0.1875 -0.0937,-0.15625 0,-0.1875 0.0937,-0.15625 0.0625,-0.1875 0.0312,-0.15625 0,-0.1875 -0.0937,-0.1875 0.0937,-0.15625 0,-0.1875 -0.0312,-0.1875 0,-0.1875 -0.0625,-0.1875 0,-0.1875 0.0625,-0.1875 0.15625,-0.0937 0.0625,-0.1875 0,-0.1875 0.0625,-0.1875 -0.0625,-0.1875 -0.0312,-0.1875 -0.0625,-0.15625 -0.0625,-0.1875 -0.0625,-0.15625 -0.15625,-0.125 -0.0312,-0.1875 -0.0312,-0.1875 -0.125,-0.15625 0,-0.1875 0.0625,-0.1875 -0.125,-0.125 -0.0312,-0.1875 0,-0.1875 -0.0625,-0.1875 0.21875,-0.0625 0.125,-0.1875 0.15625,-0.125 0.0937,-0.1875 0.1875,-0.0937 0.21875,-0.0625 0.1875,0.0937 0.21875,0 0.0937,-0.15625 0.1875,-0.0937 0.125,-0.15625 0.0937,-0.1875 0.1875,-0.125 0.0333,-0.22025 -0.0312,-0.1875 0.0625,-0.21875 0.0312,-0.1875 0.0312,-0.1875 0.0312,-0.21875 0.125,-0.15625 0.0937,-0.21875 -0.0937,-0.21875 -0.15625,-0.125 -0.125,-0.21875 0.125,-0.15625 0.21875,-0.0625 -0.0312,-0.21875 0.125,-0.1875 0.15625,-0.0937 0.15625,-0.15625 0,-0.1875 0.0937,-0.1875 -212.03125,9.375 0.0625,0.21875 0.15625,0.1875 0.25,0 0.1875,0.15625 0.25,-0.0312 0.1875,0.15625 0.21875,-0.0625 0.21875,-0.0312 0.15625,0.15625 0.15625,0.15625 0.21875,0.0625 0.15625,0.15625 0.125,0.1875 0.1875,0.125 0,0.21875 0.0312,0.25 0.0312,0.1875 0.0625,0.1875 0.0625,0.1875 0.0312,0.21875 -0.0625,0.1875 -0.0312,0.21875 0.125,0.1875 0.0312,0.1875 0.0312,0.21875 -0.0312,0.21875 0.0937,0.1875 0.1875,0.15625 0.0625,0.1875 -0.0312,0.21875 0.125,0.15625 0.0937,0.1875 0.0937,0.1875 0.0937,0.1875 0,0.21875 0.125,0.1875 -0.0312,0.21875 0.0937,0.1875 -0.0312,0.21875 -0.0312,0.21875 0.15625,0.0937 0.15625,0.15625 0.1875,0.0625 0.15625,0.15625 0.25,0 0.15625,0.15625 0.15625,0.15625 0.0937,0.1875 -0.125,0.1875 0.0312,0.21875 0.0312,0.1875 0,0.1875 0.0937,0.21875 0,0.1875 -0.0312,0.21875 -0.125,0.1875 0.0625,0.1875 0.0937,0.15625 -0.0312,0.21875 0.0937,0.1875 0.0625,0.1875 0.125,0.15625 0.125,0.15625 0.0625,0.1875 0.125,0.1875 0.0937,0.15625 -0.0625,0.21875 0.0312,0.1875 0.0625,0.21875 0.0937,0.15625 0.1875,0.125 0.15625,0.125 0.0312,0.1875 0,0.1875 -0.0625,0.1875 0.0312,0.1875 0.125,0.1875 0.15625,0.0937 0.0312,0.21875 0.0625,0.1875 0.125,0.15625 0.0937,0.15625 0.0625,0.1875 0.15625,0.125 0.0625,0.1875 0.0312,0.1875 0.1875,0.0937 0.15625,0.15625 0.0625,0.1875 0.1875,0.125 0.0625,0.1875 -0.0937,0.21875 0.0937,0.15625 0.0625,0.1875 0.125,0.15625 0.0625,0.1875 0.0937,0.1875 -0.0312,0.21875 0.0312,0.25 -0.125,0.1875 0.125,0.15625 0,0.25 0.0937,0.1875 0.21875,0.0937 0.21875,0.0625 0.1875,0.0937 0.15625,0.125 0.1875,0.0937 0.0937,0.1875 0.0625,0.21875 0.15625,0.15625 0.125,0.15625 0.0625,0.1875 0,0.21875 -0.125,0.15625 -0.0312,0.21875 0.125,0.15625 0.0937,0.1875 0.0625,0.21875 -0.0625,0.1875 0.0312,0.21875 0.0312,0.21875 -0.0937,0.15625 -0.125,0.1875 0.0625,0.1875 0,0.21875 0.0625,0.1875 0.0625,0.1875 0.0937,0.1875 0.21875,0.0937 0.0312,0.1875 0.15625,0.15625 0.15625,0.15625 0.1875,0.0937 0.0937,0.1875 0.15625,0.125 0.1875,0.125 0.15625,0.0937 0.125,0.1875 0.125,0.15625 0.1875,0.125 0.0937,0.1875 0.21875,-0.0312 0.1875,0.15625 0.0312,0.21875 -0.0312,0.1875 0.0625,0.21875 0,0.21875 0.21875,0.0625 0.125,0.1875 0.1875,0.15625 0.0625,0.21875 0.0312,0.21875 -0.0937,0.21875 0,0.21875 0.0312,0.1875 0.0937,0.1875 0.0937,0.1875 0.15625,0.15625 0.0937,0.1875 0,0.25 0.0312,0.21875 0.15625,0.15625 0.0937,0.1875 -0.0625,0.21875 -0.15625,0.1875 -0.0312,0.21875 0.0312,0.21875 0.0312,0.1875 0.0312,0.21875 0,0.21875 0.125,0.1875 0,0.1875 0.0312,0.21875 0,0.21875 -0.125,0.1875 0.1875,0.15625 0.0312,0.21875 0,0.21875 0,0.21875 0.0937,0.1875 0.15625,0.15625 0.1875,0.125 0.0937,0.1875 0.0937,0.1875 0.0937,0.21875 0.1875,0.0937 0.0937,0.1875 0.21875,0.15625 0.21875,-0.0312 0.125,0.1875 0.125,0.1875 0.25,0 0.21875,-0.0937 0.21875,0.0625 0.21875,0.0625 0.1875,-0.0625 0.21875,-0.0937 0.25,-0.0312 0.15625,-0.15625 0.21875,0.0937 0.15625,0.15625 0.21875,-0.0312 0.21875,0.125 0.0937,0.21875 0.1875,0.0937 0.21875,0.125 0.15625,0.15625 0.1875,0.0937 0.21875,0.0937 0.21875,0.0312 0.1875,0.15625 0.0937,0.21875 0.21875,0.0937 0.15625,0.1875 0.0312,0.21875 0.25,0.0312 0.1875,0.0937 0.25,-0.0312 0.1875,-0.125 0.21875,-0.0312 0.21875,0 0.21875,-0.0312 0.21875,0.0625 0,0.25 0,0.21875 0.1875,0.1875 0.0625,0.21875 0.1875,0.125 0.15625,0.1875 0.21875,0.0625 0.21875,0.125 0.0937,0.21875 0.21875,0.125 0.1875,0.1875 0.21875,0.0312 0.25,-0.0312 0.21875,-0.0625 0.25,0 0.21875,0.0312 -0.125,0.21875 -0.0312,0.25 0.1875,0.15625 0.0312,0.25 0.0312,0.25 0.0625,0.21875 0.21875,0.0937 0.15625,0.1875 0.0312,0.25 0.0312,0.21875 0.1875,0.15625 0.15625,0.15625 0.25,0.0625 0.21875,0.0312 0.15625,0.1875 0.21875,0.0937 0,0.21875 0.0937,0.1875 0.125,0.15625 0.1875,0.0937 0.125,0.15625 0.125,0.15625 0.1875,0.0937 0.15625,0.0937 0.0937,0.21875 0.21875,0.0937 0.1875,0.0937 0.21875,0.0312 0.125,0.1875 0.0625,0.1875 0.0625,0.21875 -0.0312,0.21875 0.15625,0.125 0.0937,0.1875 0.0312,0.21875 0.15625,0.15625 -0.0937,0.1875 -0.0312,0.21875 0.0312,0.21875 -0.0312,0.1875 -0.0312,0.21875 0.0312,0.21875 0.15625,0.15625 0.125,0.15625 0.125,0.1875 -0.0312,0.21875 -0.0937,0.1875 -0.0312,0.1875 0.1875,0.125 0.21875,0.0312 0.125,0.1875 0.15625,0.125 0.0312,0.25 -0.0625,0.21875 0.0937,0.1875 0.15625,0.15625 0.0312,0.21875 0.0937,0.1875 0,0.1875 0,0.21875 -0.0937,0.1875 -0.0625,0.1875 -0.0312,0.1875 0.0312,0.21875 -0.0625,0.1875 -0.0625,0.1875 -0.0312,0.21875 -0.125,0.1875 0.0625,0.1875 0.0625,0.1875 -0.0312,0.21875 0.0625,0.1875 0.0625,0.21875 -0.0312,0.21875 0.15625,0.15625 0.0625,0.21875 0.21875,0.0312 0.15625,0.15625 0.0625,0.21875 0.21875,0.0937 0,0.21875 0.0937,0.15625 0.0937,0.1875 0.0625,0.1875 0.0312,0.1875 0.0312,0.21875 0.125,0.15625 0.1875,0.125 0.125,0.15625 0.0312,0.1875 0.0312,0.1875 -0.0312,0.21875 0.0937,0.15625 0.0312,0.21875 0.0312,0.1875 0.0937,0.15625 0,0.21875 0.0312,0.1875 -0.125,0.1875 0,0.21875 0.0312,0.1875 -0.0625,0.21875 0.0625,0.21875 0.15625,0.15625 -0.125,0.15625 -0.0937,0.1875 -0.0312,0.1875 0.0312,0.21875 -0.0625,0.1875 -0.125,0.15625 -0.15625,0.15625 0,0.21875 0.0625,0.21875 -0.0625,0.21875 0.125,0.15625 0.125,0.1875 0,0.21875 -0.0937,0.1875 -0.125,0.15625 -0.125,0.1875 -0.0312,0.1875 -0.0937,0.1875 -0.0312,0.1875 -0.0312,0.1875 -0.125,0.15625 -0.0312,0.1875 -0.0312,0.21875 -0.125,0.125 0.0937,0.1875 0,0.1875 0.0937,0.1875 0.0937,0.15625 0.0625,0.21875 -0.0625,0.1875 0.0937,0.1875 0.125,0.15625 -0.125,0.1875 0.0312,0.1875 0.125,0.1875 0,0.21875 0,0.1875 0.0937,0.1875 0,0.1875 -0.0312,0.1875 -0.0625,0.21875 0.0312,0.25 -0.0937,0.1875 -0.0625,0.25 0.1875,0.15625 0.125,0.21875 0.0625,0.21875 0,0.25 0,0.21875 -0.0625,0.21875 -0.0625,0.21875 -0.15625,0.15625 -0.125,0.1875 -0.0625,0.21875 -0.0625,0.21875 -0.0937,0.1875 0.1875,0.15625 0.0937,0.1875 -0.0312,0.25 0.0312,0.21875 0.0937,0.21875 -0.0312,0.25 0.1875,0.125 0.125,0.1875 0.125,0.1875 0.21875,0.0937 0.15625,0.125 0.15625,0.15625 0.21875,0.0937 0.15625,0.1875 0.0937,0.21875 0,0.21875 -0.0625,0.21875 -0.0312,0.1875 -0.0625,0.21875 -0.1875,0.125 -0.0312,0.21875 -0.0937,0.1875 0,0.21875 0.0625,0.1875 -0.0312,0.21875 0,0.21875 0.0312,0.1875 0.0937,0.1875 -0.0625,0.21875 -0.125,0.1875 0.0937,0.1875 0.0312,0.21875 -0.1875,0.1875 -0.125,0.1875 -0.15625,0.15625 -0.25,0.0312 -0.0312,0.21875 -0.15625,0.1875 -0.0625,0.21875 0,0.21875 0.0625,0.21875 0,0.21875 -0.0312,0.21875 -0.0312,0.21875 -0.0312,0.21875 -0.0312,0.21875 0.0937,0.21875 0.125,0.1875 0.21875,-0.125 0.25,-0.0937 0.28125,0 0.21875,0.15625 0.1875,0.125 0.21875,0.0937 0.125,0.21875 0.21875,0.125 0.0937,0.21875 0.125,0.21875 -0.0312,0.25 0.0312,0.21875 0.25,0 0.21875,0.15625 0.15625,0.21875 0.125,0.1875 0.1875,-0.15625 0.25,-0.0312 0.25,0.0312 0.21875,0.0937 0.25,0 0.15625,0.15625 0.21875,0.0937 0.15625,0.1875 0.125,0.1875 0.0625,0.21875 0.125,0.21875 0.25,0.0625 0.15625,0.15625 0.21875,0.0937 0.21875,0.0312 0.21875,0.0312 0.25,0.0312 0.21875,0.0937 0.1875,0.15625 0.125,0.1875 0.25,0.0625 0.15625,0.1875 0.0312,0.21875 0.1875,0.1875 0.125,0.1875 0.125,0.1875 0.125,0.21875 0.0312,0.25 0.0312,0.21875 -0.0312,0.21875 -0.0312,0.25 -0.0312,0.21875 0.0937,0.21875 0,0.25 0.15625,0.1875 0.25,0.0937 0.0937,0.1875 0.0625,0.25 -0.125,0.1875 0.0312,0.25 0.0312,0.25 -0.0312,0.21875 -0.15625,0.1875 -0.125,0.21875 0.0625,0.21875 0.0312,0.21875 0.125,0.21875 0.125,0.1875 0.25,0.21875 0.34375,0.0625 0.34375,0.0625 0.25,0.21875 0.3125,0.0625 0.3125,0.125 0.28125,0.1875 0.25,0.21875 0.375,0.0312 0.3125,0.1875 0.25,0.25 0.3125,0.15625 0.34375,-0.0625 0.3125,-0.21875 0.34375,-0.15625 0.34375,0.0937 0.3125,0.1875 0.3125,0.1875 0.21875,0.28125 0.0625,0.375 0.34375,0.125 0.28125,0.1875 0.25,0.25 0.28125,0.1875 0.375,0.125 0.25,0.3125 0.375,0.0625 0.375,-0.0312 0.28125,-0.21875 0.375,-0.0625 0.34375,-0.125 0.375,0 0.34375,0.0625 0.375,0.0312 0.34375,0.0625 0.34375,0.15625 0.34375,-0.0937 0.375,-0.125 0.375,-0.0312 0.34375,0.21875 0.34375,0.125 0.21875,0.3125 0.375,0.0937 0.25,0.28125 0.0312,0.40625 0.15625,0.375 0.28125,0.28125 0.375,0.15625 0.34375,-0.15625 0.21875,-0.28125 0.3125,-0.1875 0.3125,-0.125 0.375,-0.15625 0.375,0.15625 0.3125,-0.1875 0.25,-0.28125 0.375,0.0625 0.34375,-0.15625 0.3125,0.25 0.375,0 0.34375,0 0.34375,0.0625 0.34375,0 0.375,0 0.28125,-0.21875 0.3125,-0.21875 0.34375,-0.0312 0.375,0.0625 0.3125,-0.21875 0.375,0 0.34375,0.0625 0.34375,0.15625 0.34375,-0.0625 0.28125,-0.21875 0.34375,0.0312 0.34375,-0.0312 0.375,0 0.34375,0.125 0.25,-0.28125 0.375,-0.0625 0.375,-0.0312 0.34375,-0.0937 0.3125,-0.21875 0.3125,-0.15625 0.375,0.125 0.25,0.28125 0.375,-0.0625 0.375,0.0937 0.34375,-0.0937 0.34375,0.0625 0.34375,-0.0312 0.34375,0.0937 0.3125,-0.125 0.34375,-0.0937 0.375,0 0.28125,-0.21875 0.21875,-0.28125 0.34375,-0.15625 0.3125,-0.1875 0.1875,-0.34375 0.15625,-0.3125 0,-0.375 0.125,-0.34375 0.21875,-0.3125 0.125,-0.375 0.28125,-0.28125 0.3125,-0.25 0.375,-0.0625 0,-0.40625 -0.0937,-0.375 0.0625,-0.375 0.21875,-0.3125 0.34375,-0.1875 0.3125,-0.21875 0.125,-0.34375 0.1875,-0.34375 0.15625,-0.34375 0.1875,-0.3125 0.34375,-0.125 0.3125,-0.21875 0.3125,-0.1875 0.28125,-0.25 0.3125,-0.1875 0.3125,-0.1875 0.34375,-0.15625 0.375,-0.0937 0.375,0.0625 0.375,0 0.21875,0.3125 0.28125,0.21875 0.40625,0 0.3125,0.21875 0.34375,-0.0625 0.375,0.0312 0.375,0 0.34375,0 0.375,0.0312 0.34375,-0.1875 0.375,-0.0937 0.34375,0.0625 0.3125,0.21875 0.3125,0.1875 0.375,0.0312 0.28125,0.25 0.34375,-0.125 0.375,0.0937 0.375,-0.0312 0.28125,-0.21875 0.375,-0.125 0.34375,0.125 0.25,-0.28125 0.375,-0.0937 0.34375,-0.25 0.0625,-0.375 0.40625,0.0312 0.34375,-0.21875 0.25,-0.25 0.28125,-0.25 0.34375,-0.0937 0.375,-0.0625 0.34375,0.0625 0.28125,0.21875 0.34375,0.0625 0.28125,0.1875 0.3125,0.1875 0.21875,0.28125 0.15625,0.3125 0.25,0.25 0.21875,0.28125 0.125,0.34375 0.375,0.0312 0.28125,0.28125 0.34375,0.0625 0.34375,0.125 0.3125,0.0937 0.375,-0.0312 0.0937,0.34375 0.25,0.25 0.28125,0.25 0.25,0.1875 0.1875,0.34375 0.34375,0.21875 0.34375,0.0312 0.375,0 0.0625,0.34375 0.0937,0.34375 0.3125,0.1875 0.25,0.25 0.125,0.34375 0.15625,0.34375 0.28125,0.21875 0.34375,0.125 0.21875,0.21875 0.25,0.25 0.0937,0.3125 0.0937,0.34375 0,0.34375 -0.0937,0.3125 0.0625,0.375 0.28125,0.25 0.3125,0.15625 0.15625,0.34375 0.3125,0.125 0.34375,0.0625 0.3125,0.125 0.1875,0.3125 0.0937,0.34375 0.15625,0.28125 0.28125,0.21875 0.0625,0.375 0.0312,0.34375 0.125,0.3125 0.28125,0.21875 0.34375,0 0.25,0.21875 0.25,0.21875 0.21875,0.3125 -0.0312,0.34375 0.25,0.28125 0.3125,0.125 0.28125,0.15625 0.3125,0.0937 0.34375,0.0937 0.1875,0.28125 0.125,0.34375 0,0.34375 0.0625,0.34375 0.15625,0.34375 0.25,0.25 0.375,0.0625 0.15625,0.34375 0.3125,0.21875 0.25,0.28125 0.3125,0.125 0.125,0.3125 0.25,0.25 0.34375,0 0.28125,0.25 0.25,0.25 0.25,0.21875 0.3125,0.21875 0.34375,0.15625 0.375,-0.0937 0.375,0.0937 0.28125,-0.25 0.28125,-0.25 0.375,-0.0625 0.40625,0 0.15625,0.3125 0.34375,0.15625 0.375,-0.0312 0.34375,0.1875 0.34375,0.0312 0.28125,0.15625 0.28125,0.25 0.3125,0.15625 z"
           style="fill:#008000;fill-opacity:1;stroke:none" />
      </g>
      <g
         id="g4775"
         style="fill:#9acd32;fill-opacity:1;stroke:none;filter:url(#filter6271)"
         transform="translate(1245.4416,95.287022)">
        <path
           inkscape:connector-curvature="0"
           id="path4403"
           d="m -701.90301,507.30275 1.42078,-0.96939 1.71018,0.18329 1.66521,0.0415 1.44196,0.83391 1.47669,-0.52007 1.36518,-0.7664 1.60771,-0.24865 1.2125,-1.08462 0.76005,-1.4467 0.33178,-1.60016 1.18333,-1.17273 1.59106,-0.49405 0.37095,-1.51888 0.88446,-1.28931 0.7193,-1.40038 1.2379,-0.97265 1.47682,-0.39407 1.1596,-0.99578 1.48986,-0.20438 1.38158,-0.59388 1.29055,-0.99358 1.62797,0.0492 1.01546,-1.14959 1.04159,-1.12597 0.6633,-1.35924 0.8178,-1.27228 0.70275,-1.38543 -0.009,-1.55345 0.91214,-1.37402 1.59484,-0.42005 0.29067,-1.57505 1.07146,-1.1905 1.46678,-0.52561 1.38884,-0.70629 1.54755,0.49394 1.56208,-0.44584 0.12344,-1.66114 1.2293,-1.12402 1.52515,-0.62516 0.76257,-1.4613 1.44256,-0.63004 0.71755,-1.40108 1.27357,-0.75889 1.26946,-0.76575 1.40111,0.85826 1.62359,-0.25239 1.65223,-0.053 1.1889,-1.14856 1.38356,0.95925 1.68357,0.006 1.51989,-0.53041 1.45859,-0.68111 1.13795,-1.00146 1.07594,-1.06781 1.24408,-0.86593 1.19383,-0.934 1.25976,-0.74685 0.89464,-1.15948 0.85824,-1.16619 1.10178,-0.93948 1.33299,-0.64091 0.90239,-1.17189 1.36559,-0.53465 1.06186,-1.01151 1.96035,0.16627 1.96368,-0.12064 1.52709,-1.23497 1.62743,-1.09937 1.85182,0.33648 1.75445,0.68145 1.85329,0.65184 1.89189,-0.52948 1.68114,0.99601 1.38608,1.37733 1.44056,1.29811 1.45715,1.27946 2.04433,-0.11411 1.79071,-0.99282 1.91682,0.58827 1.99392,0.21103 1.72122,1.29509 1.6665,1.3648 2.19662,0.3848 2.0934,-0.76869 0.66851,1.92208 1.28841,1.57522 1.15466,1.63812 1.09068,1.68138 2.06741,-0.15138 1.91722,0.78829 2.01564,-0.54069 1.48517,-1.4661 2.1243,0.33258 1.36941,1.65769 2.09541,0.45855 1.88573,-1.02227 1.89265,0.54648 1.30076,1.47945 1.8987,-0.0134 1.86988,0.32975 1.96131,-0.31625 1.39509,-1.41439 1.89111,0.44448 1.88511,-0.46926 1.70406,0.68451 1.75915,0.52703 1.61001,1.11068 1.94526,-0.20419 1.9908,-0.49461 1.23629,-1.63692 1.97387,-0.54878 1.88535,0.8017 1.99488,-0.29891 2.01302,0.12885 1.73239,1.02362 1.54688,1.28692 1.99311,-0.0347 1.78801,-0.88131 1.2759,-1.51837 1.75945,-0.91528 1.94566,0.10674 1.75734,0.84188 1.72544,0.86575 1.41623,1.31185 1.7292,-0.77365 1.79616,-0.60207 1.81626,-0.62839 1.92154,0.0371 0.0607,1.01547 -0.0335,1.01674 -0.20442,0.99675 -0.10274,1.01229 0.44888,0.94467 -0.0247,1.04559 0.0203,1.01729 0.0137,1.01739 0.40318,1.05991 0.96034,0.60307 -0.0457,1.07747 0.11979,1.07177 0.74193,0.73838 0.84326,0.62015 0.41565,0.95759 0.43797,0.9476 -0.5752,0.87658 -0.48216,0.93101 0.4098,1.01961 -0.25531,1.06881 -0.15888,1.04439 -0.62123,0.85444 -0.64863,0.81578 -0.88834,0.54504 -0.24524,1.01649 -0.0956,1.04128 -0.84027,0.62277 -0.7369,0.74219 -0.94511,0.49111 -0.46899,0.95627 7.8e-4,1.05248 -0.55679,0.89314 0.57784,0.80331 0.45614,0.87814 0.21305,0.96568 0.3319,0.93153 -0.007,0.98123 0.14403,0.97062 0.30578,0.94647 -0.0499,0.99339 0.49319,0.90689 0.33674,0.97585 0.0713,1.03834 -0.24286,1.01204 1.07844,0.27502 0.74588,0.82603 0.15624,1.06813 0.48755,0.96312 1.03012,0.025 1.01197,0.19408 0.44358,1.01221 1.01758,0.4311 1.08661,-0.17497 0.96446,0.53024 0.57674,0.86933 0.69001,0.78246 -0.18645,1.14462 0.64719,0.96233 0.691,0.84383 0.90984,0.60145 0.95355,0.40516 1.01934,0.18537 0.76896,0.78306 1.09327,0.0962"
           style="fill:#9acd32;fill-opacity:1;stroke:none" />
        <path
           style="fill:#9acd32;fill-opacity:1;stroke:none"
           d="m -503.27681,521.11869 -1.42079,0.96938 -1.71018,-0.18328 -1.66521,-0.0415 -1.44196,-0.83391 -1.47669,0.52008 -1.36518,0.7664 -1.60771,0.24865 -1.21249,1.08462 -0.76005,1.44669 -0.33178,1.60015 -1.18333,1.17274 -1.59106,0.49405 -0.37095,1.51887 -0.88446,1.28932 -0.7193,1.40038 -1.2379,0.97266 -1.47682,0.39407 -1.1596,0.99578 -1.48986,0.20438 -1.38158,0.59388 -1.29055,0.99358 -1.62797,-0.0492 -1.01546,1.14959 -1.04159,1.12596 -0.6633,1.35924 -0.8178,1.27229 -0.70275,1.38543 0.009,1.55345 -0.91215,1.37402 -1.59484,0.42005 -0.29067,1.57505 -1.07146,1.1905 -1.46678,0.52561 -1.38884,0.70629 -1.54755,-0.49393 -1.56208,0.44583 -0.12344,1.66113 -1.2293,1.12403 -1.52515,0.62516 -0.76257,1.4613 -1.44256,0.63005 -0.71755,1.40107 -1.27357,0.75889 -1.26946,0.76575 -1.40111,-0.85826 -1.62359,0.25239 -1.65223,0.053 -1.1889,1.14857 -1.38356,-0.95925 -1.68357,-0.006 -1.51989,0.53043 -1.45859,0.6811 -1.13795,1.00146 -1.07594,1.06781 -1.24408,0.86594 -1.19383,0.93399 -1.25976,0.74684 -0.89464,1.15949 -0.85824,1.16619 -1.10178,0.93948 -1.33299,0.64092 -0.90239,1.17189 -1.36559,0.53465 -1.06186,1.01151 -1.96035,-0.16627 -1.96368,0.12064 -1.52709,1.23497 -1.62743,1.09937 -1.85182,-0.33649 -1.75445,-0.68144 -1.85329,-0.65184 -1.89189,0.52947 -1.68114,-0.996 -1.38608,-1.37734 -1.44056,-1.2981 -1.45715,-1.27946 -2.04433,0.11411 -1.79071,0.99282 -1.91682,-0.58827 -1.99392,-0.21103 -1.72122,-1.2951 -1.6665,-1.36479 -2.19662,-0.3848 -2.0934,0.76869 -0.66851,-1.92208 -1.2884,-1.57522 -1.15467,-1.63812 -1.09068,-1.68139 -2.06741,0.15139 -1.91722,-0.7883 -2.01564,0.5407 -1.48517,1.4661 -2.1243,-0.33258 -1.36941,-1.6577 -2.09541,-0.45854 -1.88573,1.02227 -1.89264,-0.54648 -1.30077,-1.47945 -1.89869,0.0134 -1.86989,-0.32975 -1.96131,0.31625 -1.39509,1.41439 -1.89111,-0.44448 -1.88511,0.46926 -1.70406,-0.68451 -1.75915,-0.52703 -1.61,-1.11068 -1.94527,0.20419 -1.99079,0.49461 -1.2363,1.63691 -1.97387,0.54879 -1.88535,-0.8017 -1.99488,0.29891 -2.01302,-0.12885 -1.73239,-1.02362 -1.54688,-1.28692 -1.99311,0.0347 -1.78801,0.88131 -1.2759,1.51837 -1.75945,0.91527 -1.94566,-0.10673 -1.75733,-0.84188 -1.72544,-0.86575 -1.41623,-1.31185 -1.72921,0.77364 -1.79616,0.60208 -1.81626,0.62839 -1.92154,-0.0371 -0.0607,-1.01548 0.0335,-1.01674 0.20441,-0.99675 0.10274,-1.01229 -0.44888,-0.94467 0.0247,-1.0456 -0.0203,-1.01728 -0.0137,-1.01739 -0.40318,-1.05991 -0.96034,-0.60308 0.0457,-1.07746 -0.11979,-1.07177 -0.74193,-0.73838 -0.84326,-0.62014 -0.41565,-0.95759 -0.43797,-0.9476 0.5752,-0.87658 0.48217,-0.93101 -0.4098,-1.01961 0.2553,-1.06882 0.15889,-1.04438 0.62122,-0.85444 0.64863,-0.81578 0.88834,-0.54504 0.24524,-1.01649 0.0956,-1.04128 0.84027,-0.62277 0.7369,-0.74219 0.94511,-0.49111 0.46899,-0.95627 -7.7e-4,-1.05248 0.55679,-0.89314 -0.57785,-0.80331 -0.45614,-0.87814 -0.21305,-0.96568 -0.3319,-0.93153 0.007,-0.98123 -0.14403,-0.97063 -0.30578,-0.94647 0.0499,-0.99338 -0.49319,-0.90689 -0.33674,-0.97585 -0.0713,-1.03834 0.24286,-1.01205 -1.07844,-0.27501 -0.74588,-0.82604 -0.15624,-1.06812 -0.48756,-0.96313 -1.03013,-0.025 -1.01197,-0.19407 -0.44357,-1.01221 -1.01759,-0.4311 -1.0866,0.17497 -0.96447,-0.53024 -0.57673,-0.86933 -0.69001,-0.78246 0.18645,-1.14462 -0.64718,-0.96233 -0.69101,-0.84384 -0.90984,-0.60144 -0.95355,-0.40516 -1.01934,-0.18538 -0.76896,-0.78305 -1.09327,-0.0962"
           id="path4773"
           inkscape:connector-curvature="0" />
      </g>
    </g>
  </g>
</svg>
