<?xml version="1.0" encoding="UTF-8" standalone="no"?>
<!-- Created with Inkscape (http://www.inkscape.org/) -->

<svg
   xmlns:dc="http://purl.org/dc/elements/1.1/"
   xmlns:cc="http://creativecommons.org/ns#"
   xmlns:rdf="http://www.w3.org/1999/02/22-rdf-syntax-ns#"
   xmlns:svg="http://www.w3.org/2000/svg"
   xmlns="http://www.w3.org/2000/svg"
   xmlns:sodipodi="http://sodipodi.sourceforge.net/DTD/sodipodi-0.dtd"
   xmlns:inkscape="http://www.inkscape.org/namespaces/inkscape"
   width="256"
   height="256"
   id="svg3385"
   version="1.1"
   inkscape:version="0.48.2 r9819"
   sodipodi:docname="Cloud1.svg"
   inkscape:export-filename="E:\Proyectos\2dDevelopment\FakeMario\FakeMario-android\assets\data\layers\Layer21.png"
   inkscape:export-xdpi="90"
   inkscape:export-ydpi="90">
  <defs
     id="defs3387">
    <filter
       inkscape:collect="always"
       id="filter3809"
       x="-0.070703126"
       width="1.1414063"
       y="-0.15136942"
       height="1.3027389"
       color-interpolation-filters="sRGB">
      <feGaussianBlur
         inkscape:collect="always"
         stdDeviation="11.949924"
         id="feGaussianBlur3811" />
    </filter>
    <filter
       inkscape:collect="always"
       id="filter3809-3"
       x="-0.070703126"
       width="1.1414063"
       y="-0.15136942"
       height="1.3027389"
       color-interpolation-filters="sRGB">
      <feGaussianBlur
         inkscape:collect="always"
         stdDeviation="11.949924"
         id="feGaussianBlur3811-9" />
    </filter>
    <filter
       inkscape:collect="always"
       id="filter3809-0"
       x="-0.070703126"
       width="1.1414063"
       y="-0.15136942"
       height="1.3027389"
       color-interpolation-filters="sRGB">
      <feGaussianBlur
         inkscape:collect="always"
         stdDeviation="11.949924"
         id="feGaussianBlur3811-1" />
    </filter>
    <filter
       inkscape:collect="always"
       id="filter3843"
       x="-0.075334147"
       width="1.1506683"
       y="-0.13229017"
       height="1.2645802"
       color-interpolation-filters="sRGB">
      <feGaussianBlur
         inkscape:collect="always"
         stdDeviation="15.258996"
         id="feGaussianBlur3845" />
    </filter>
  </defs>
  <sodipodi:namedview
     id="base"
     pagecolor="#ffffff"
     bordercolor="#666666"
     borderopacity="1.0"
     inkscape:pageopacity="0.0"
     inkscape:pageshadow="2"
     inkscape:zoom="2.8"
     inkscape:cx="136.55932"
     inkscape:cy="137.15729"
     inkscape:document-units="px"
     inkscape:current-layer="layer1"
     showgrid="false"
     inkscape:window-width="1920"
     inkscape:window-height="1018"
     inkscape:window-x="-8"
     inkscape:window-y="-8"
     inkscape:window-maximized="1" />
  <metadata
     id="metadata3390">
    <rdf:RDF>
      <cc:Work
         rdf:about="">
        <dc:format>image/svg+xml</dc:format>
        <dc:type
           rdf:resource="http://purl.org/dc/dcmitype/StillImage" />
        <dc:title></dc:title>
      </cc:Work>
    </rdf:RDF>
  </metadata>
  <g
     inkscape:label="Capa 1"
     inkscape:groupmode="layer"
     id="layer1"
     transform="translate(0,-796.36218)">
    <rect
       style="fill:#4169e1;fill-opacity:1;stroke:none;display:inline"
       id="rect3005"
       width="256.45547"
       height="256.18481"
       x="0.43269372"
       y="796.79376" />
    <path
       style="fill:#ffffff;fill-opacity:1;stroke:none;display:inline;filter:url(#filter3843)"
       d="m 821.34731,523.4076 c -2.23678,-0.89471 -4.64457,-1.44467 -6.71035,-2.68414 -0.3836,-0.23016 0.20007,-0.94194 0,-1.34207 -0.28293,-0.56587 -0.99113,-0.81567 -1.34207,-1.34207 -0.55488,-0.83232 -0.78719,-1.85183 -1.34207,-2.68414 -0.35094,-0.52641 -0.99114,-0.81567 -1.34207,-1.34208 -2.34533,-3.51799 -0.50163,-2.34533 -2.68414,-6.71035 -0.28294,-0.56587 -1.18863,-0.7283 -1.34207,-1.34207 -0.3255,-1.302 0.16646,-2.69451 0,-4.02621 -0.28294,-2.26347 -1.05914,-4.44689 -1.34207,-6.71036 -0.16647,-1.3317 0.36869,-2.73578 0,-4.02621 -0.54962,-1.92366 -2.13453,-3.44462 -2.68415,-5.36828 -0.36869,-1.29044 0,-2.68414 0,-4.02621 0,-1.78943 0,-3.57886 0,-5.36829 0,-7.60506 0,-15.21013 0,-22.8152 0,-4.02621 0,-8.05243 0,-12.07864 0,-0.89471 0,-1.78943 0,-2.68414 0,-0.89471 -0.33228,-1.85342 0,-2.68414 0.59905,-1.4976 2.04877,-2.54366 2.68415,-4.02621 4.42473,-1.58622 0.62073,-4.54633 1.34207,-6.71036 0.31633,-0.94898 0.89471,-1.78942 1.34207,-2.68414 0.89471,-1.78943 1.78942,-3.57885 2.68414,-5.36828 0.44736,-0.89472 0.89471,-1.78943 1.34207,-2.68414 0.44736,-0.89472 0.74188,-1.88389 1.34207,-2.68414 0.75919,-1.01226 1.78943,-1.78943 2.68414,-2.68415 0.44736,-1.34207 0.61423,-2.81314 1.34207,-4.02621 0.651,-1.085 2.03314,-1.59914 2.68414,-2.68414 3.11532,-9.34595 -0.8864,0.65857 4.02622,-6.71035 0.24815,-0.37223 -0.1085,-0.90807 0,-1.34207 0.3431,-1.37243 0.61423,-2.81315 1.34207,-4.02622 0.651,-1.085 2.03314,-1.59914 2.68414,-2.68414 0.72784,-1.21307 0.55735,-2.84914 1.34207,-4.02621 1.05281,-1.57921 2.68414,-2.68414 4.02621,-4.02621 0.44736,-0.44736 0.77621,-1.05914 1.34207,-1.34207 0.40013,-0.20007 0.91767,0.14146 1.34207,0 0.94899,-0.31633 1.73516,-1.02575 2.68415,-1.34207 1.2732,-0.4244 2.7102,0.2632 4.02621,0 1.38719,-0.27744 2.63901,-1.06464 4.02621,-1.34208 0.87734,-0.17546 1.78943,0 2.68414,0 1.78943,0 3.57886,0 5.36828,0 0.89472,0 1.78943,0 2.68415,0 0.44735,0 0.91767,-0.14146 1.34207,0 0.94898,0.31633 1.73515,1.02575 2.68414,1.34208 0.8488,0.28293 1.83534,-0.28294 2.68414,0 0.94899,0.31632 1.71369,1.09945 2.68414,1.34207 1.302,0.3255 2.75301,-0.4244 4.02621,0 0.94899,0.31633 1.71369,1.09945 2.68415,1.34207 0.868,0.217 1.8068,-0.17547 2.68414,0 1.38719,0.27744 2.65378,0.99896 4.02621,1.34207 0.868,0.217 1.78943,0 2.68414,0 2.23679,0 4.47357,0 6.71035,0 2.68415,0 5.36829,0 8.05243,0 0.44736,0 1.02574,0.31633 1.34207,0 0.70733,-0.70734 0.78719,-1.85183 1.34207,-2.68414 0.35094,-0.52641 0.89471,-0.89472 1.34207,-1.34207 0.89472,-0.89472 1.78943,-1.78943 2.68414,-2.68415 0.44736,-0.44735 0.81567,-0.99113 1.34207,-1.34207 0.83232,-0.55487 1.97681,-0.63473 2.68415,-1.34207 0.70733,-0.70733 0.78719,-1.85182 1.34207,-2.68414 0.35093,-0.5264 0.89471,-0.89471 1.34207,-1.34207 0.44735,-0.44736 0.83594,-0.96248 1.34207,-1.34207 1.29037,-0.96778 2.88567,-1.5436 4.02621,-2.68414 0.31633,-0.31633 -0.24815,-0.96985 0,-1.34207 0.70187,-1.05281 2.11827,-1.55241 2.68414,-2.68414 0.40013,-0.80026 0,-1.78943 0,-2.68415 0.44736,-1.34207 0.55736,-2.84913 1.34207,-4.02621 0.24815,-0.37222 1.02574,0.31633 1.34207,0 0.70734,-0.70733 0.89472,-1.78943 1.34207,-2.68414 0.56948,-1.13894 3.40967,-7.43588 4.02622,-8.05242 0.31633,-0.31633 0.94194,0.20006 1.34207,0 5.58537,-2.79269 -1.43472,0.0927 1.34207,-2.68415 0.70733,-0.70733 1.97681,-0.63473 2.68414,-1.34207 0.31633,-0.31633 -0.24815,-0.96984 0,-1.34207 0.14822,-0.22232 4.56994,-4.76952 5.36828,-5.36828 1.34207,-0.89471 2.68414,-1.78943 4.02621,-2.68414 0,-0.44736 -0.31632,-1.02574 0,-1.34207 0.31633,-0.31633 1.14201,0.40012 1.34208,0 2.6905,-5.381 -4.4376,-0.027 2.68414,-5.36829 1.13337,-2.8032 3.78663,-0.39308 5.36828,-1.34207 1.6275,-0.9765 2.54414,-2.84055 4.02621,-4.02621 1.19295,-0.95436 5.63345,-2.46876 6.71036,-2.68414 0.87734,-0.17547 1.81614,0.217 2.68414,0 2.00875,-0.50219 5.26711,-3.30459 6.71035,-4.02621 0.40013,-0.20007 0.89472,0 1.34207,0 1.13895,0 7.31257,0.24661 8.05243,0 1.89797,-0.63266 3.49502,-1.98167 5.36828,-2.68414 9.12293,-3.4211 1.73922,-0.0662 9.3945,-1.34208 1.39541,-0.23257 2.68414,-0.89471 4.02621,-1.34207 2.23677,-0.44735 4.45217,-1.01947 6.71037,-1.34207 1.7715,-0.25306 3.5789,0 5.3683,0 5.3683,0 10.7366,0 16.1049,0 3.1315,0 6.263,0 9.3945,0 0.8947,0 1.7894,0 2.6841,0 0.8947,0 1.9397,-0.4963 2.6841,0 0.8324,0.55488 0.5098,2.12927 1.3421,2.68414 0.7445,0.4963 1.8534,-0.33228 2.6842,0 1.4976,0.59905 2.6431,1.85428 4.0262,2.68415 0.2324,0.13945 5.3201,2.63599 5.3683,2.68414 1.1405,1.14054 1.2836,3.22595 2.6841,4.02621 1.9805,1.13173 4.6701,0.32194 6.7104,1.34207 0.8947,0.44736 0.4735,2.18784 1.342,2.68414 3.523,2.01311 8.3041,2.34863 12.0787,4.02621 2.7423,1.21881 5.3683,2.68415 8.0524,4.02622 1.7894,0.89471 3.6313,1.69154 5.3683,2.68414 1.4005,0.80025 2.6431,1.85427 4.0262,2.68414 0.2324,0.13945 5.3201,2.63599 5.3683,2.68414 0.3163,0.31633 -0.3722,1.09392 0,1.34207 1.1771,0.78472 2.7127,0.81668 4.0262,1.34207 0.9288,0.37151 1.7554,0.97056 2.6842,1.34207 1.3134,0.5254 2.8944,0.49327 4.0262,1.34207 0.8002,0.6002 0.5418,2.08395 1.342,2.68415 1.1318,0.8488 2.6538,0.99896 4.0262,1.34207 0.434,0.1085 1.0258,-0.31633 1.3421,0 0.7074,0.70733 0.6348,1.9768 1.3421,2.68414 0.6326,0.63266 2.0515,-0.63266 2.6841,0 0.3164,0.31633 -0.2,0.94194 0,1.34207 0.283,0.56587 0.9912,0.81567 1.3421,1.34207 0.5549,0.83232 0.6347,1.97681 1.3421,2.68414 0.3163,0.31633 1.0257,-0.31633 1.342,0 0.3164,0.31633 -0.1414,0.91767 0,1.34207 0.3164,0.94899 0.9706,1.75537 1.3421,2.68414 0.5254,1.31349 0.7094,2.7609 1.3421,4.02622 0.2829,0.56586 1.0591,0.7762 1.3421,1.34207 0.2,0.40013 -0.1415,0.91767 0,1.34207 0.3163,0.94898 1.0257,1.73515 1.342,2.68414 0.1415,0.4244 -0.3163,1.02574 0,1.34207 0.3164,0.31633 1.0258,-0.31633 1.3421,0 1.6346,1.63462 0.6287,2.99847 2.6841,4.02621 3.5789,0 -0.4473,-0.44735 1.3421,1.34207 0.3163,0.31633 1.0257,-0.31633 1.3421,0 0.3163,0.31633 -0.3164,1.02574 0,1.34207 0.3163,0.31633 0.9419,-0.20006 1.342,0 1.1318,0.56587 1.5525,2.11828 2.6842,2.68415 0.4001,0.20006 0.9419,-0.20007 1.3421,0 0.5658,0.28293 0.7762,1.05913 1.342,1.34207 0.4002,0.20006 0.9699,-0.24815 1.3421,0 1.0528,0.70187 1.6313,1.98227 2.6841,2.68414 0.5845,0.38961 3.3178,-0.35421 4.0263,0 1.1317,0.56586 1.4837,2.28401 2.6841,2.68414 0.7215,0.2405 4.232,0 5.3683,0 1.3421,0 2.6841,0 4.0262,0 2.6841,0 5.4116,0.48015 8.0524,0 2.3703,-0.43095 4.363,-2.14244 6.7104,-2.68414 3.5143,-0.811 7.1423,-1.04255 10.7365,-1.34207 1.7833,-0.14861 3.6323,0.434 5.3683,0 1.9409,-0.48523 3.4446,-2.13453 5.3683,-2.68414 2.5809,-0.7374 5.3953,0.37959 8.0524,0 1.826,-0.26086 3.5424,-1.08122 5.3683,-1.34208 1.3286,-0.18979 2.6842,0 4.0262,0 0.8947,0 1.8162,0.217 2.6842,0 0.9704,-0.24261 1.6974,-1.17761 2.6841,-1.34207 1.7651,-0.29418 3.5789,0 5.3683,0 4.0262,0 8.0524,0 12.0786,0 1.3529,0 8.7959,-0.23945 9.3945,0 4.0223,1.60892 1.6196,2.96165 4.0262,5.36829 1.5817,1.58164 3.9364,2.30786 5.3683,4.02621 0.9057,1.08678 0.6143,2.81314 1.3421,4.02621 0.651,1.085 2.1183,1.55241 2.6841,2.68414 0.4002,0.80026 -0.2829,1.83534 0,2.68414 0.6327,1.89798 1.8961,3.52941 2.6842,5.36829 0.5572,1.30028 0.7094,2.76089 1.342,4.02621 1.5314,3.06275 3.0219,3.69722 4.0263,6.71035 1.3777,4.13314 1.6204,7.82388 2.6841,12.07864 -0.1983,2.66571 2.0223,4.39396 2.6841,6.71035 0.6267,2.19332 1.0195,4.4522 1.3421,6.71036 0.1265,0.88572 0,1.78943 0,2.68414 0,1.78943 0,3.57886 0,5.36828 0,1.34207 -0.2206,2.70241 0,4.02622 0.2326,1.39541 0.8947,2.68414 1.3421,4.02621 0.4473,1.34207 0.7094,2.76089 1.3421,4.02621 0.2829,0.56587 1.142,0.74188 1.342,1.34207 0.283,0.8488 0,1.78943 0,2.68414 0,1.78943 0,3.57886 0,5.36829 0,3.13149 0,6.26299 0,9.39449 0,0.89472 0,1.78943 0,2.68414 0,0.44736 -0.1661,0.92671 0,1.34207 0.8947,1.78943 1.7895,3.57886 2.6842,5.36829 0,0.44735 -0.1415,0.91767 0,1.34207 0.3163,0.94898 1.0257,1.73515 1.342,2.68414 0.2893,0.86792 0,5.24494 0,6.71035 0,1.99387 0.3267,3.69952 -1.342,5.36829 -0.3164,0.31633 -0.8947,0 -1.3421,0 -0.8947,0 -1.8839,-0.40013 -2.6841,0 -1.1318,0.56586 -1.5992,2.03314 -2.6842,2.68414 -4.3676,2.62057 -2.9324,0.71242 -6.7103,1.34207 -3.4632,-1.38784 -5.2781,2.12926 -8.0525,2.68414 -3.9143,0.78287 -5.2191,-1.04383 -9.3945,0 -1.9409,0.48523 -3.5107,1.94112 -5.3682,2.68414 -0.4154,0.16615 -0.8948,0 -1.3421,0 -0.5646,0 -7.6532,-0.19962 -8.0524,0 -0.5659,0.28293 -1.0592,0.77621 -1.3421,1.34207 -0.1377,0.2753 -0.1893,3.83695 0,4.02621 0.3163,0.31633 1.0257,-0.31632 1.3421,0 0.3163,0.31633 -0.3164,1.02575 0,1.34208 0.3163,0.31632 1.0257,-0.31633 1.342,0 0.3164,0.31632 -0.3163,1.02574 0,1.34207 0.7074,0.70733 1.8839,0.74187 2.6842,1.34207 1.0122,0.75919 1.7894,1.78942 2.6841,2.68414 0.4474,0.44736 1.0591,0.7762 1.3421,1.34207 0.2,0.40013 -0.3163,1.02574 0,1.34207 0.3163,0.31633 1.0257,-0.31633 1.3421,0 0.3163,0.31633 -0.1415,0.91767 0,1.34207 0.3163,0.94899 1.0257,1.73515 1.342,2.68414 0.1415,0.4244 -0.1414,0.91767 0,1.34207 0.3164,0.94899 1.0995,1.71369 1.3421,2.68414 0.2639,1.0557 0,6.65678 0,8.05243 0,0.89471 0,1.78943 0,2.68414 0,0.89471 0.4001,1.88389 0,2.68414 -1.3421,2.68414 -2.6841,2.01311 -4.0262,4.02621 -3.7738,5.66072 2.2482,-0.34406 -5.3683,5.36829 -2.412,1.80902 -4.2483,5.06898 -6.7104,6.71035 -0.3722,0.24815 -0.9698,-0.24815 -1.342,0 -1.0528,0.70187 -1.7895,1.78943 -2.6842,2.68414 -2.587,2.58702 -2.1884,2.75426 -5.3683,4.02622 -2.1244,0.84977 -7.4149,2.40134 -9.3944,2.68414 -1.3286,0.18979 -2.7358,-0.3687 -4.0263,0 -1.9236,0.54962 -3.4446,2.13452 -5.3682,2.68414 -1.2905,0.36869 -2.6842,0 -4.0263,0 -2.7638,0 -11.5134,0 -13.4207,0 -14.7627,0 -29.5255,0 -44.2883,0 -12.0786,0 -24.1573,0 -36.2359,0 -3.5789,0 -7.1577,0 -10.7366,0 -1.7894,0 -3.5926,-0.22195 -5.3683,0 -1.8302,0.22878 -3.5947,0.83535 -5.3682,1.34207 -1.3603,0.38864 -2.6225,1.1666 -4.0263,1.34207 -2.2195,0.27744 -4.4735,0 -6.7103,0 -1.7894,0 -3.5789,0 -5.3683,0 -7.1577,0 -14.3154,0 -21.4732,0 -4.9209,0 -9.8418,0 -14.7627,0 -1.7895,0 -3.5789,0 -5.3683,0 -0.8947,0 -1.8068,-0.17547 -2.6842,0 -8.8323,1.76647 0.7401,1.34207 -8.0524,1.34207 -5.2427,0 -0.1417,-0.40013 -5.3683,1.34207 -0.4244,0.14147 -0.8947,0 -1.342,0 -1.3421,0 -2.6842,0 -4.0263,0 -0.8947,0 -1.8161,-0.217 -2.6841,0 -0.9704,0.24262 -1.6939,1.20061 -2.6842,1.34207 -2.2143,0.31633 -4.4736,0 -6.71034,0 -4.47357,0 -8.94714,0 -13.42071,0 -13.42071,0 -26.84142,0 -40.26212,0 -6.71036,0 -13.42071,0 -20.13107,0 -0.46845,0 -7.82189,0.15369 -8.05242,0 -1.05281,-0.70187 -1.63133,-1.98227 -2.68414,-2.68414 -0.37222,-0.24815 -0.89472,0 -1.34207,0 -0.89472,0 -1.78943,0 -2.68414,0 -3.1315,0 -6.263,0 -9.3945,0 -0.89471,0 -1.78943,0 -2.68414,0 -0.44736,0 -0.94194,0.20007 -1.34207,0 -0.56587,-0.28293 -0.77621,-1.05914 -1.34207,-1.34207 -0.40013,-0.20006 -0.90807,0.1085 -1.34207,0 -1.37243,-0.34311 -2.65379,-0.99896 -4.02622,-1.34207 -0.868,-0.217 -1.93969,0.4963 -2.68414,0 -1.0528,-0.70187 -1.63133,-1.98227 -2.68414,-2.68414 -0.74445,-0.4963 -1.81614,0.217 -2.68414,0 -1.37243,-0.34311 -2.72593,-0.78481 -4.02621,-1.34207 -1.83888,-0.78809 -3.57886,-1.78943 -5.36829,-2.68414 -0.89471,-0.44736 -1.73515,-1.02575 -2.68414,-1.34208 -0.4244,-0.14146 -0.89471,0 -1.34207,0 -0.44735,-0.44735 -0.7762,-1.05913 -1.34207,-1.34207 -3.30545,-1.65272 1.21154,3.89568 -4.02621,-1.34207 -0.31633,-0.31633 0.31633,-1.02574 0,-1.34207 -0.086,-0.086 -5.11829,-2.51748 -5.36828,-2.68414 -0.52641,-0.35093 -0.81567,-0.99113 -1.34207,-1.34207 -0.83232,-0.55488 -1.97681,-0.63474 -2.68415,-1.34207 -0.31633,-0.31633 0.31633,-1.02574 0,-1.34207 -6.85849,-6.85849 1.87183,5.62727 -5.36828,-4.02621 -0.60019,-0.80026 -0.63474,-1.97681 -1.34207,-2.68415 -0.31633,-0.31632 -0.94194,0.20007 -1.34207,0 -1.44268,-0.72134 -2.88567,-1.5436 -4.02621,-2.68414 -0.086,-0.086 -2.51749,-5.11829 -2.68414,-5.36828 -0.83729,-1.25593 -4.50877,-4.50877 -5.36829,-5.36828 -4.02621,-4.02622 -8.05242,-8.05243 -12.07864,-12.07864 z"
       id="path3841"
       inkscape:connector-curvature="0"
       transform="matrix(0.46610097,0,0,0.6730352,-356.89784,624.44064)" />
  </g>
</svg>
